<svg width="103" height="18" viewBox="0 0 103 18" fill="none" xmlns="http://www.w3.org/2000/svg">
<g clip-path="url(#clip0_106_171)">
<path d="M15.8465 0H0V3.59983H15.8465V0Z" fill="white"/>
<path d="M15.8465 14.4001H0V18H15.8465V14.4001Z" fill="white"/>
<path d="M65.9452 14.4001H50.0986V18H65.9452V14.4001Z" fill="white"/>
<path d="M19.8079 14.4002V3.59985L15.8467 3.59985V14.4002H19.8079Z" fill="white"/>
<path d="M27.7301 3.59985L43.5767 3.59985V2.28882e-05L27.7301 2.28882e-05V3.59985Z" fill="white"/>
<path d="M27.7311 7.19968V3.59985H23.769V18H27.7311V10.8004H43.5768V7.19968H27.7311Z" fill="white"/>
<path d="M83.1923 18L99.0388 18V14.4002L83.1923 14.4002V18Z" fill="white"/>
<path d="M83.1922 5.42972V0H79.231V14.4002H83.1922V9.02956H99.0387V14.4002H103V9.02956V5.42972H83.1922Z" fill="white"/>
<path d="M51.5 14.4002V0L47.5388 0V14.4002H51.5Z" fill="white"/>
<path d="M75.2698 18V0L71.3086 0V18H75.2698Z" fill="white"/>
</g>
<defs>
<clipPath id="clip0_106_171">
<rect width="103" height="18" fill="white"/>
</clipPath>
</defs>
</svg>
