<svg width="380" height="250" xmlns="http://www.w3.org/2000/svg" xmlns:xlink="http://www.w3.org/1999/xlink" version="1.1" baseProfile="full" viewBox="0 0 380 250">
<rect width="380" height="250" x="0" y="0" fill="none"></rect>
<polyline points="294.3 119.6 341.3 92.5 356.3 92.5" fill="transparent" stroke="#5470c6" class="zr0-cls-0"></polyline>
<polyline points="285 164.3 285 190 300 190" fill="transparent" stroke="#91cc75" class="zr0-cls-0"></polyline>
<polyline points="241.7 100 228.7 92.5 213.7 92.5" fill="transparent" stroke="#fac858" class="zr0-cls-0"></polyline>
<polyline points="116.7 112.5 151.3 92.5 166.3 92.5" fill="transparent" stroke="#5470c6" class="zr0-cls-0"></polyline>
<polyline points="95 175 95 190 110 190" fill="transparent" stroke="#91cc75" class="zr0-cls-0"></polyline>
<polyline points="64.7 107.5 38.7 92.5 23.7 92.5" fill="transparent" stroke="#fac858" class="zr0-cls-0"></polyline>
<path d="M285 114.2857A10.7143 10.7143 0 0 1 294.2788 130.3571L285 125Z" fill="#5470c6" class="zr0-cls-1"></path>
<path d="M319.0224 144.6429A39.2857 39.2857 0 0 1 250.9776 144.6429L285 125Z" fill="#91cc75" class="zr0-cls-2"></path>
<path d="M241.6987 150A50 50 0 0 1 285 75L285 125Z" fill="rgb(250,200,88)" class="zr0-cls-3"></path>
<path d="M95 100A25 25 0 0 1 116.6506 137.5L95 125Z" fill="#5470c6" class="zr0-cls-1"></path>
<path d="M138.3013 150A50 50 0 0 1 51.6987 150L95 125Z" fill="#91cc75" class="zr0-cls-2"></path>
<path d="M64.6891 142.5A35 35 0 0 1 95 90L95 125Z" fill="#fac858" class="zr0-cls-3"></path>
<text dominant-baseline="central" text-anchor="start" style="font-size:12px;font-family:sans-serif;" transform="translate(361.2917 92.5)" fill="#333" stroke="rgb(255,255,255)" stroke-width="2" paint-order="stroke" stroke-miterlimit="2">B</text>
<text dominant-baseline="central" text-anchor="start" style="font-size:12px;font-family:sans-serif;" transform="translate(305 190)" fill="#333" stroke="rgb(255,255,255)" stroke-width="2" paint-order="stroke" stroke-miterlimit="2">G</text>
<text dominant-baseline="central" text-anchor="end" style="font-size:12px;font-family:sans-serif;" transform="translate(208.7083 92.5)" fill="#333" stroke="rgb(255,255,255)" stroke-width="2" paint-order="stroke" stroke-miterlimit="2">Y</text>
<text dominant-baseline="central" text-anchor="start" style="font-size:12px;font-family:sans-serif;" transform="translate(171.2917 92.5)" fill="#333" stroke="rgb(255,255,255)" stroke-width="2" paint-order="stroke" stroke-miterlimit="2">B</text>
<text dominant-baseline="central" text-anchor="start" style="font-size:12px;font-family:sans-serif;" transform="translate(115 190)" fill="#333" stroke="rgb(255,255,255)" stroke-width="2" paint-order="stroke" stroke-miterlimit="2">G</text>
<text dominant-baseline="central" text-anchor="end" style="font-size:12px;font-family:sans-serif;" transform="translate(18.7083 92.5)" fill="#333" stroke="rgb(255,255,255)" stroke-width="2" paint-order="stroke" stroke-miterlimit="2">Y</text>
<path d="M-5 -5l145.3333 0l0 24l-145.3333 0Z" transform="translate(122.3333 5)" fill="rgb(0,0,0)" fill-opacity="0" stroke="#ccc" stroke-width="0" class="zr0-cls-4"></path>
<path d="M3.5 0L21.5 0A3.5 3.5 0 0 1 25 3.5L25 10.5A3.5 3.5 0 0 1 21.5 14L3.5 14A3.5 3.5 0 0 1 0 10.5L0 3.5A3.5 3.5 0 0 1 3.5 0" transform="translate(122.3333 5)" fill="#5470c6" class="zr0-cls-4"></path>
<text dominant-baseline="central" text-anchor="start" style="font-size:12px;font-family:sans-serif;" x="30" y="7" transform="translate(122.3333 5)" fill="#333">B</text>
<path d="M0 0l38 0l0 14l-38 0Z" transform="translate(122.3333 5)" fill="transparent" class="zr0-cls-5"></path>
<path d="M3.5 0L21.5 0A3.5 3.5 0 0 1 25 3.5L25 10.5A3.5 3.5 0 0 1 21.5 14L3.5 14A3.5 3.5 0 0 1 0 10.5L0 3.5A3.5 3.5 0 0 1 3.5 0" transform="translate(170.3333 5)" fill="#91cc75" class="zr0-cls-4"></path>
<text dominant-baseline="central" text-anchor="start" style="font-size:12px;font-family:sans-serif;" x="30" y="7" transform="translate(170.3333 5)" fill="#333">G</text>
<path d="M0 0l39.3333 0l0 14l-39.3333 0Z" transform="translate(170.3333 5)" fill="transparent" class="zr0-cls-5"></path>
<path d="M3.5 0L21.5 0A3.5 3.5 0 0 1 25 3.5L25 10.5A3.5 3.5 0 0 1 21.5 14L3.5 14A3.5 3.5 0 0 1 0 10.5L0 3.5A3.5 3.5 0 0 1 3.5 0" transform="translate(219.6667 5)" fill="#fac858" class="zr0-cls-4"></path>
<text dominant-baseline="central" text-anchor="start" style="font-size:12px;font-family:sans-serif;" x="30" y="7" transform="translate(219.6667 5)" fill="#333">Y</text>
<path d="M0 0l38 0l0 14l-38 0Z" transform="translate(219.6667 5)" fill="transparent" class="zr0-cls-5"></path>
<style ><![CDATA[
.zr0-cls-0:hover {
cursor:pointer;
}
.zr0-cls-1:hover {
cursor:pointer;
fill:rgba(92,123,217,1);
}
.zr0-cls-2:hover {
cursor:pointer;
fill:rgba(159,224,128,1);
}
.zr0-cls-3:hover {
cursor:pointer;
fill:rgba(255,220,96,1);
}
.zr0-cls-4:hover {
pointer-events:none;
}
.zr0-cls-5:hover {
cursor:pointer;
fill:rgba(0,0,0,0);
}

]]>

</style>
</svg>