<svg width="30" height="30" viewBox="0 0 30 30" fill="none" xmlns="http://www.w3.org/2000/svg">
<path d="M0.419645 0.419144C0.979174 -0.139715 1.81824 -0.139715 2.37777 0.419144L27.1327 25.1444V6.77531C27.1327 6.00682 27.7623 5.37839 28.5313 5.37839C29.3007 5.37839 29.9299 6.00682 29.9299 6.77531V28.4885C29.9303 28.5371 29.9281 28.5853 29.9231 28.6335C29.858 29.2952 29.3262 29.8245 28.6633 29.8872C28.6196 29.8918 28.5755 29.894 28.5313 29.894H6.78343C6.01402 29.894 5.38483 29.2656 5.38483 28.4971C5.38483 27.7291 6.01402 27.1002 6.78343 27.1002H25.1104L0.419645 2.37492C-0.139883 1.81606 -0.139883 0.978002 0.419645 0.419144Z" fill="white"/>
</svg>
