<svg width="240" height="240" viewBox="0 0 240 240" fill="none" xmlns="http://www.w3.org/2000/svg">
<g clip-path="url(#clip0_6212_22075)">
<path d="M164.417 72.9941V60.5534C164.417 60.2641 164.573 60 164.875 59.8292C165.186 59.6539 165.563 59.6327 165.877 59.7884C172.904 63.2808 184.054 65.7278 201.639 65.7278C219.225 65.7278 230.374 63.2808 237.402 59.7884C237.716 59.6327 238.093 59.6539 238.403 59.8292C238.706 60 238.862 60.2641 238.862 60.5534V72.9941C238.862 73.2083 238.779 73.3694 238.674 73.4618C235.842 75.9678 231.285 78.0051 225.016 79.4074C218.768 80.8049 210.928 81.548 201.639 81.548C192.35 81.548 184.51 80.8049 178.262 79.4074C171.994 78.0051 167.436 75.9678 164.604 73.4618C164.5 73.3694 164.417 73.2083 164.417 72.9941Z" fill="#1B1C21" stroke="#8BA98F" stroke-width="2.5"/>
<path d="M164.417 95.6213V82.5368C164.417 82.2475 164.573 81.9834 164.875 81.8126C165.186 81.6373 165.563 81.6161 165.877 81.7718C172.904 85.2642 184.054 87.7112 201.639 87.7112C219.225 87.7112 230.374 85.2642 237.402 81.7718C237.716 81.6161 238.093 81.6373 238.403 81.8126C238.706 81.9834 238.862 82.2475 238.862 82.5368V95.6213C238.862 97.1867 237.976 98.7131 236.035 100.18C234.091 101.65 231.234 102.937 227.688 103.993C220.612 106.101 211.123 107.195 201.639 107.195C192.156 107.195 182.667 106.101 175.59 103.993C172.045 102.937 169.188 101.65 167.243 100.18C165.302 98.7131 164.417 97.1867 164.417 95.6213Z" fill="#1B1C21" stroke="#8BA98F" stroke-width="2.5"/>
<path d="M177.565 35.5348C171.402 34.0864 166.929 32.0039 164.173 29.439C164.256 27.8497 165.208 26.3351 167.093 24.9107C169.071 23.4156 171.96 22.1181 175.519 21.0577C182.626 18.9404 192.141 17.8447 201.639 17.8447C211.138 17.8447 220.653 18.9404 227.76 21.0577C231.319 22.1181 234.208 23.4156 236.186 24.9107C238.071 26.3351 239.022 27.8497 239.106 29.439C236.35 32.0039 231.876 34.0864 225.714 35.5348C219.341 37.0327 211.262 37.8289 201.639 37.8289C192.017 37.8289 183.938 37.0327 177.565 35.5348Z" fill="#34C759" stroke="#34C759" stroke-width="2"/>
<path d="M164.417 51.0097V38.569C164.417 38.2797 164.573 38.0156 164.875 37.8448C165.186 37.6695 165.563 37.6483 165.877 37.8041C172.904 41.2964 184.054 43.7435 201.639 43.7435C219.225 43.7435 230.374 41.2964 237.402 37.8041C237.716 37.6483 238.093 37.6695 238.403 37.8448C238.706 38.0156 238.862 38.2797 238.862 38.569V51.0097C238.862 51.224 238.779 51.3851 238.674 51.4774C235.842 53.9834 231.285 56.0208 225.016 57.423C218.768 58.8206 210.928 59.5637 201.639 59.5637C192.35 59.5637 184.51 58.8206 178.262 57.423C171.994 56.0208 167.436 53.9834 164.604 51.4774C164.5 51.3851 164.417 51.2239 164.417 51.0097Z" fill="#1B1C21" stroke="#8BA98F" stroke-width="2.5"/>
<path d="M109.835 182.988L109.837 182.988C111.469 182.986 113.087 183.261 114.621 183.799C115.928 184.258 117.41 183.792 118.199 182.611C122.003 176.919 128.518 173.167 135.922 173.167C146.617 173.167 155.452 181 156.946 191.17C157.111 192.294 157.881 193.21 158.907 193.598C163.226 195.23 166.277 199.37 166.277 204.202C166.277 204.989 166.708 205.704 167.384 206.078C171.363 208.281 174.039 212.488 174.039 217.306C174.039 224.387 168.25 230.154 161.075 230.155C160.79 230.155 160.508 230.146 160.229 230.128C160.079 230.118 159.93 230.12 159.786 230.132C159.593 230.147 159.402 230.155 159.211 230.155H93.669H93.6663C92.483 230.157 91.3194 229.862 90.2833 229.3C90.1558 229.231 90.0196 229.169 89.8754 229.116C83.4228 226.746 78.8414 220.592 78.8414 213.393C78.8414 205 85.0711 198.028 93.2214 196.818C94.5115 196.626 95.5312 195.643 95.7866 194.38C97.0991 187.892 102.883 182.988 109.835 182.988Z" fill="#34C759" stroke="#34C759" stroke-width="4"/>
<path d="M115.447 213.845L113.423 210.171H112.854V213.845H110.483V204.112H114.462C115.23 204.112 115.881 204.246 116.417 204.514C116.963 204.782 117.369 205.152 117.637 205.623C117.905 206.085 118.039 206.603 118.039 207.176C118.039 207.823 117.855 208.401 117.485 208.909C117.124 209.417 116.588 209.778 115.877 209.99L118.123 213.845H115.447ZM112.854 208.493H114.324C114.758 208.493 115.082 208.387 115.294 208.174C115.516 207.962 115.627 207.661 115.627 207.273C115.627 206.903 115.516 206.612 115.294 206.4C115.082 206.187 114.758 206.081 114.324 206.081H112.854V208.493ZM121.898 206.011V207.98H125.073V209.81H121.898V211.945H125.489V213.845H119.528V204.112H125.489V206.011H121.898ZM130.55 213.942C129.838 213.942 129.2 213.826 128.637 213.595C128.073 213.364 127.62 213.022 127.278 212.569C126.945 212.116 126.77 211.571 126.751 210.933H129.274C129.311 211.294 129.436 211.571 129.649 211.765C129.861 211.95 130.139 212.042 130.481 212.042C130.832 212.042 131.109 211.964 131.312 211.807C131.516 211.64 131.617 211.414 131.617 211.127C131.617 210.887 131.534 210.688 131.368 210.531C131.211 210.374 131.012 210.245 130.772 210.143C130.541 210.041 130.208 209.926 129.773 209.796C129.145 209.602 128.632 209.408 128.235 209.214C127.837 209.02 127.495 208.733 127.209 208.355C126.922 207.976 126.779 207.481 126.779 206.871C126.779 205.965 127.107 205.258 127.763 204.75C128.419 204.232 129.274 203.973 130.328 203.973C131.4 203.973 132.264 204.232 132.921 204.75C133.577 205.258 133.928 205.97 133.974 206.885H131.409C131.391 206.571 131.275 206.326 131.063 206.15C130.85 205.965 130.578 205.873 130.245 205.873C129.958 205.873 129.727 205.951 129.552 206.109C129.376 206.256 129.288 206.474 129.288 206.76C129.288 207.074 129.436 207.319 129.732 207.495C130.028 207.671 130.49 207.86 131.118 208.063C131.747 208.276 132.255 208.479 132.643 208.673C133.041 208.867 133.383 209.149 133.669 209.519C133.956 209.889 134.099 210.365 134.099 210.947C134.099 211.502 133.956 212.005 133.669 212.458C133.392 212.911 132.985 213.272 132.449 213.54C131.913 213.808 131.28 213.942 130.55 213.942ZM142.56 204.112V206.011H139.981V213.845H137.61V206.011H135.031V204.112H142.56Z" fill="#231F20"/>
<rect x="32.1384" y="45.0947" width="60.5" height="76.5" rx="3.75" fill="#1B1C21"/>
<rect x="32.1384" y="45.0947" width="60.5" height="76.5" rx="3.75" stroke="#8BA98F" stroke-width="2.5"/>
<path d="M67.6972 61.8819L39.3483 61.9469C38.98 61.9466 38.6267 61.8005 38.3657 61.5405C38.1046 61.2805 37.957 60.9277 37.9551 60.5591C37.9555 60.1907 38.1015 59.8373 38.3614 59.5762C38.6212 59.3151 38.9737 59.1675 39.342 59.1656L67.6909 59.1006C68.0595 59.1007 68.4132 59.247 68.6743 59.5074C68.9354 59.7679 69.0827 60.1212 69.084 60.4901C69.0831 60.8582 68.9368 61.2111 68.677 61.4717C68.4173 61.7324 68.0651 61.8798 67.6972 61.8819Z" fill="#34C759"/>
<path d="M86.1469 68.917L39.2811 69.0249C38.9128 69.0245 38.5597 68.8784 38.2987 68.6184C38.0378 68.3584 37.8903 68.0056 37.8884 67.6372C37.8886 67.2687 38.0345 66.9154 38.2943 66.6543C38.5541 66.3931 38.9066 66.2455 39.2748 66.2436L86.1406 66.1357C86.5089 66.1361 86.8621 66.2822 87.1231 66.5422C87.3841 66.8022 87.5317 67.1549 87.5338 67.5235C87.5335 67.892 87.3875 68.2454 87.1277 68.5065C86.8678 68.7677 86.5152 68.9152 86.1469 68.917Z" fill="#8BA98F"/>
<path d="M86.1632 75.9955L39.2973 76.1034C38.9288 76.103 38.5755 75.9567 38.3145 75.6964C38.0535 75.4361 37.9062 75.083 37.9046 74.7143C37.9047 74.3459 38.0506 73.9924 38.3104 73.7313C38.5702 73.4701 38.9228 73.3225 39.291 73.3207L86.1568 73.2129C86.5252 73.2131 86.8784 73.3592 87.1395 73.6192C87.4005 73.8792 87.5481 74.232 87.55 74.6006C87.5501 74.9693 87.4043 75.3231 87.1444 75.5845C86.8845 75.846 86.5317 75.9937 86.1632 75.9955Z" fill="#8BA98F"/>
<path d="M86.1794 83.0752L39.3135 83.183C38.9453 83.1825 38.5923 83.0364 38.3313 82.7764C38.0704 82.5164 37.9229 82.1637 37.9208 81.7953C37.9207 81.4265 38.0666 81.0727 38.3266 80.8114C38.5867 80.55 38.9396 80.4024 39.3081 80.4008L86.174 80.293C86.5422 80.2936 86.8953 80.4399 87.1561 80.7001C87.4168 80.9603 87.5641 81.3131 87.5658 81.6816C87.5656 82.05 87.4196 82.4034 87.1598 82.6645C86.9001 82.9256 86.5476 83.0732 86.1794 83.0752Z" fill="#8BA98F"/>
<path d="M86.1956 90.1553L39.3298 90.2632C38.9616 90.2627 38.6085 90.1165 38.3476 89.8565C38.0867 89.5966 37.9391 89.2439 37.9371 88.8755C37.9372 88.507 38.0831 88.1535 38.3429 87.8924C38.6027 87.6313 38.9552 87.4837 39.3235 87.4819L86.1893 87.374C86.5576 87.3743 86.9109 87.5203 87.1719 87.7803C87.433 88.0404 87.5806 88.3932 87.5825 88.7617C87.5821 89.1302 87.4361 89.4836 87.1762 89.7447C86.9164 90.0058 86.5639 90.1534 86.1956 90.1553Z" fill="#8BA98F"/>
<path d="M86.2128 97.2344L39.3469 97.3418C38.9789 97.3415 38.6259 97.1954 38.3651 96.9354C38.1043 96.6755 37.9569 96.3229 37.9551 95.9546C37.9553 95.586 38.1011 95.2326 38.3609 94.9714C38.6207 94.7101 38.9733 94.5624 39.3415 94.5605L86.2074 94.4531C86.5757 94.4534 86.929 94.5994 87.19 94.8595C87.451 95.1195 87.5986 95.4723 87.6005 95.8408C87.6002 96.2095 87.454 96.563 87.194 96.8241C86.9339 97.0852 86.5812 97.2327 86.2128 97.2344Z" fill="#8BA98F"/>
<path d="M86.2281 104.314L39.3622 104.422C38.994 104.422 38.6408 104.276 38.3798 104.016C38.1188 103.756 37.9713 103.403 37.9695 103.035C37.9697 102.666 38.1155 102.313 38.3753 102.051C38.6351 101.79 38.9877 101.643 39.3559 101.641L86.2218 101.533C86.59 101.533 86.9432 101.679 87.2042 101.939C87.4653 102.199 87.6129 102.552 87.6149 102.92C87.6147 103.289 87.4687 103.642 87.2089 103.904C86.949 104.165 86.5964 104.313 86.2281 104.314Z" fill="#8BA98F"/>
<path d="M50.4351 114.981C50.4351 114.849 50.4589 114.726 50.5066 114.613C50.5579 114.499 50.6257 114.4 50.7101 114.316C50.7981 114.231 50.9007 114.165 51.0181 114.118C51.1354 114.066 51.2637 114.041 51.4031 114.041C51.5387 114.041 51.6652 114.066 51.7826 114.118C51.8999 114.165 52.0026 114.231 52.0906 114.316C52.1786 114.4 52.2464 114.499 52.2941 114.613C52.3454 114.726 52.3711 114.849 52.3711 114.981C52.3711 115.113 52.3454 115.238 52.2941 115.355C52.2464 115.469 52.1786 115.568 52.0906 115.652C52.0026 115.737 51.8999 115.803 51.7826 115.85C51.6652 115.898 51.5387 115.922 51.4031 115.922C51.2637 115.922 51.1354 115.898 51.0181 115.85C50.9007 115.803 50.7981 115.737 50.7101 115.652C50.6257 115.568 50.5579 115.469 50.5066 115.355C50.4589 115.238 50.4351 115.113 50.4351 114.981ZM56.2404 113.524C55.8994 113.538 55.6189 113.568 55.3989 113.612C55.1789 113.656 55.0047 113.711 54.8764 113.777C54.7481 113.843 54.6582 113.918 54.6069 114.002C54.5592 114.087 54.5354 114.178 54.5354 114.277C54.5354 114.472 54.5886 114.609 54.6949 114.69C54.8012 114.767 54.9571 114.805 55.1624 114.805C55.3824 114.805 55.5749 114.767 55.7399 114.69C55.9049 114.613 56.0717 114.488 56.2404 114.316V113.524ZM53.1714 110.933C53.5161 110.629 53.8974 110.403 54.3154 110.257C54.7371 110.106 55.1881 110.031 55.6684 110.031C56.0131 110.031 56.3229 110.088 56.5979 110.202C56.8766 110.312 57.1112 110.468 57.3019 110.669C57.4962 110.867 57.6447 111.104 57.7474 111.379C57.8501 111.654 57.9014 111.954 57.9014 112.281V115.845H57.1204C56.9591 115.845 56.8362 115.823 56.7519 115.779C56.6712 115.735 56.6034 115.643 56.5484 115.504L56.4274 115.19C56.2844 115.311 56.1469 115.418 56.0149 115.509C55.8829 115.601 55.7454 115.68 55.6024 115.746C55.4631 115.808 55.3127 115.854 55.1514 115.883C54.9937 115.916 54.8177 115.933 54.6234 115.933C54.3631 115.933 54.1266 115.9 53.9139 115.834C53.7012 115.764 53.5197 115.663 53.3694 115.531C53.2227 115.399 53.1091 115.236 53.0284 115.042C52.9477 114.844 52.9074 114.616 52.9074 114.36C52.9074 114.154 52.9587 113.947 53.0614 113.738C53.1641 113.526 53.3419 113.333 53.5949 113.161C53.8479 112.985 54.1889 112.838 54.6179 112.721C55.0469 112.603 55.5877 112.537 56.2404 112.523V112.281C56.2404 111.947 56.1707 111.707 56.0314 111.56C55.8957 111.41 55.7014 111.335 55.4484 111.335C55.2467 111.335 55.0817 111.357 54.9534 111.401C54.8251 111.445 54.7096 111.494 54.6069 111.549C54.5079 111.604 54.4107 111.654 54.3154 111.698C54.2201 111.742 54.1064 111.764 53.9744 111.764C53.8571 111.764 53.7581 111.734 53.6774 111.676C53.5967 111.617 53.5307 111.547 53.4794 111.467L53.1714 110.933ZM64.2144 110.141L62.0034 115.845H60.4524L58.2414 110.141H59.6604C59.7814 110.141 59.8822 110.171 59.9629 110.229C60.0472 110.284 60.104 110.354 60.1334 110.438L60.9254 112.996C60.995 113.205 61.0555 113.408 61.1069 113.606C61.1619 113.804 61.2095 114.002 61.2499 114.2C61.3305 113.804 61.4424 113.403 61.5854 112.996L62.4104 110.438C62.4397 110.354 62.4947 110.284 62.5754 110.229C62.656 110.171 62.7514 110.141 62.8614 110.141H64.2144ZM66.3656 111.021C66.5416 110.713 66.7432 110.471 66.9706 110.295C67.2016 110.119 67.4656 110.031 67.7626 110.031C68.0192 110.031 68.2282 110.092 68.3896 110.213L68.2796 111.467C68.2612 111.547 68.2301 111.602 68.1861 111.632C68.1457 111.661 68.0889 111.676 68.0156 111.676C67.9862 111.676 67.9477 111.674 67.9001 111.67C67.8524 111.667 67.8029 111.663 67.7516 111.659C67.7002 111.652 67.6471 111.646 67.5921 111.643C67.5407 111.635 67.4931 111.632 67.4491 111.632C67.1997 111.632 66.9999 111.698 66.8496 111.83C66.7029 111.962 66.5782 112.145 66.4756 112.38V115.845H64.7706V110.141H65.7826C65.8669 110.141 65.9366 110.149 65.9916 110.163C66.0502 110.178 66.0979 110.202 66.1346 110.235C66.1749 110.264 66.2042 110.304 66.2226 110.356C66.2446 110.407 66.2629 110.469 66.2776 110.543L66.3656 111.021ZM71.5031 110.053C71.9357 110.053 72.3299 110.121 72.6856 110.257C73.0412 110.392 73.3456 110.587 73.5986 110.84C73.8552 111.093 74.0532 111.401 74.1926 111.764C74.3356 112.123 74.4071 112.528 74.4071 112.979C74.4071 113.434 74.3356 113.845 74.1926 114.211C74.0532 114.574 73.8552 114.884 73.5986 115.141C73.3456 115.394 73.0412 115.59 72.6856 115.729C72.3299 115.865 71.9357 115.933 71.5031 115.933C71.0667 115.933 70.6689 115.865 70.3096 115.729C69.9539 115.59 69.6459 115.394 69.3856 115.141C69.1289 114.884 68.9291 114.574 68.7861 114.211C68.6467 113.845 68.5771 113.434 68.5771 112.979C68.5771 112.528 68.6467 112.123 68.7861 111.764C68.9291 111.401 69.1289 111.093 69.3856 110.84C69.6459 110.587 69.9539 110.392 70.3096 110.257C70.6689 110.121 71.0667 110.053 71.5031 110.053ZM71.5031 114.668C71.8954 114.668 72.1832 114.53 72.3666 114.255C72.5536 113.977 72.6471 113.555 72.6471 112.99C72.6471 112.426 72.5536 112.006 72.3666 111.731C72.1832 111.456 71.8954 111.318 71.5031 111.318C71.0997 111.318 70.8046 111.456 70.6176 111.731C70.4306 112.006 70.3371 112.426 70.3371 112.99C70.3371 113.555 70.4306 113.977 70.6176 114.255C70.8046 114.53 71.0997 114.668 71.5031 114.668Z" fill="white"/>
<rect x="17.1384" y="27.0947" width="60.5" height="76.5" rx="3.75" fill="#1B1C21"/>
<rect x="17.1384" y="27.0947" width="60.5" height="76.5" rx="3.75" stroke="#8BA98F" stroke-width="2.5"/>
<path d="M52.6972 43.8819L24.3483 43.9469C23.98 43.9466 23.6267 43.8005 23.3657 43.5405C23.1046 43.2805 22.957 42.9277 22.9551 42.5591C22.9555 42.1907 23.1015 41.8373 23.3614 41.5762C23.6212 41.3151 23.9737 41.1675 24.342 41.1656L52.6909 41.1006C53.0595 41.1007 53.4131 41.247 53.6742 41.5074C53.9354 41.7679 54.0827 42.1212 54.084 42.4901C54.0831 42.8582 53.9368 43.2111 53.677 43.4717C53.4173 43.7324 53.0651 43.8798 52.6972 43.8819Z" fill="#34C759"/>
<path d="M71.1469 50.917L24.2811 51.0249C23.9128 51.0245 23.5597 50.8784 23.2987 50.6184C23.0378 50.3584 22.8903 50.0056 22.8884 49.6372C22.8886 49.2687 23.0345 48.9154 23.2943 48.6543C23.5541 48.3931 23.9065 48.2455 24.2747 48.2436L71.1406 48.1357C71.5089 48.1361 71.8621 48.2822 72.1231 48.5422C72.3841 48.8022 72.5317 49.1549 72.5338 49.5235C72.5335 49.892 72.3875 50.2454 72.1276 50.5065C71.8678 50.7677 71.5152 50.9152 71.1469 50.917Z" fill="#8BA98F"/>
<path d="M71.1631 57.9955L24.2973 58.1034C23.9288 58.103 23.5755 57.9567 23.3145 57.6964C23.0535 57.4361 22.9061 57.083 22.9046 56.7143C22.9047 56.3459 23.0506 55.9924 23.3104 55.7313C23.5702 55.4701 23.9227 55.3225 24.291 55.3207L71.1568 55.2129C71.5252 55.2131 71.8784 55.3592 72.1395 55.6192C72.4005 55.8792 72.5481 56.232 72.55 56.6006C72.5501 56.9693 72.4043 57.3231 72.1444 57.5845C71.8845 57.846 71.5317 57.9937 71.1631 57.9955Z" fill="#8BA98F"/>
<path d="M71.1794 65.0752L24.3135 65.183C23.9453 65.1825 23.5922 65.0364 23.3313 64.7764C23.0704 64.5164 22.9228 64.1637 22.9208 63.7953C22.9207 63.4265 23.0666 63.0727 23.3266 62.8114C23.5866 62.55 23.9396 62.4024 24.3081 62.4008L71.174 62.293C71.5422 62.2936 71.8953 62.4399 72.156 62.7001C72.4168 62.9603 72.5641 63.3131 72.5658 63.6816C72.5655 64.05 72.4196 64.4034 72.1598 64.6645C71.9001 64.9256 71.5476 65.0732 71.1794 65.0752Z" fill="#8BA98F"/>
<path d="M71.1956 72.1553L24.3298 72.2632C23.9616 72.2627 23.6085 72.1165 23.3476 71.8565C23.0866 71.5966 22.9391 71.2439 22.9371 70.8755C22.9372 70.507 23.0831 70.1535 23.3429 69.8924C23.6027 69.6313 23.9552 69.4837 24.3234 69.4819L71.1893 69.374C71.5576 69.3743 71.9109 69.5203 72.1719 69.7803C72.433 70.0404 72.5806 70.3932 72.5825 70.7617C72.5821 71.1302 72.4361 71.4836 72.1762 71.7447C71.9164 72.0058 71.5639 72.1534 71.1956 72.1553Z" fill="#8BA98F"/>
<path d="M71.2128 79.2344L24.3469 79.3418C23.9788 79.3415 23.6259 79.1954 23.3651 78.9354C23.1043 78.6755 22.9569 78.3229 22.9551 77.9546C22.9552 77.586 23.1011 77.2326 23.3609 76.9714C23.6207 76.7101 23.9732 76.5624 24.3415 76.5605L71.2074 76.4531C71.5757 76.4534 71.929 76.5994 72.19 76.8595C72.451 77.1195 72.5986 77.4723 72.6005 77.8408C72.6002 78.2095 72.454 78.563 72.194 78.8241C71.9339 79.0852 71.5812 79.2327 71.2128 79.2344Z" fill="#8BA98F"/>
<path d="M71.2281 86.3145L24.3622 86.4219C23.994 86.4218 23.6408 86.2758 23.3798 86.0158C23.1188 85.7559 22.9713 85.4031 22.9695 85.0346C22.9696 84.6661 23.1155 84.3126 23.3753 84.0514C23.6351 83.7902 23.9876 83.6425 24.3559 83.6406L71.2218 83.5332C71.59 83.5334 71.9432 83.6795 72.2042 83.9394C72.4653 84.1993 72.6129 84.552 72.6149 84.9205C72.6147 85.289 72.4687 85.6425 72.2089 85.9037C71.949 86.1649 71.5964 86.3126 71.2281 86.3145Z" fill="#8BA98F"/>
<path d="M36.5576 96.9812C36.5576 96.8492 36.5815 96.7264 36.6291 96.6127C36.6805 96.4991 36.7483 96.4001 36.8326 96.3157C36.9206 96.2314 37.0233 96.1654 37.1406 96.1177C37.258 96.0664 37.3863 96.0407 37.5256 96.0407C37.6613 96.0407 37.7878 96.0664 37.9051 96.1177C38.0225 96.1654 38.1251 96.2314 38.2131 96.3157C38.3011 96.4001 38.369 96.4991 38.4166 96.6127C38.468 96.7264 38.4936 96.8492 38.4936 96.9812C38.4936 97.1132 38.468 97.2379 38.4166 97.3552C38.369 97.4689 38.3011 97.5679 38.2131 97.6522C38.1251 97.7366 38.0225 97.8026 37.9051 97.8502C37.7878 97.8979 37.6613 97.9217 37.5256 97.9217C37.3863 97.9217 37.258 97.8979 37.1406 97.8502C37.0233 97.8026 36.9206 97.7366 36.8326 97.6522C36.7483 97.5679 36.6805 97.4689 36.6291 97.3552C36.5815 97.2379 36.5576 97.1132 36.5576 96.9812ZM44.8765 97.8447H43.2375C43.1165 97.8447 43.0175 97.8154 42.9405 97.7567C42.8671 97.6981 42.8085 97.6284 42.7645 97.5477L41.747 95.7987C41.7286 95.8611 41.7066 95.9197 41.681 95.9747C41.6553 96.0297 41.6278 96.0811 41.5985 96.1287L40.7625 97.5477C40.7111 97.6211 40.6506 97.6889 40.581 97.7512C40.5113 97.8136 40.4215 97.8447 40.3115 97.8447H38.7935L40.7075 94.8967L38.8705 92.1412H40.5095C40.6305 92.1412 40.7185 92.1577 40.7735 92.1907C40.8321 92.2201 40.8835 92.2714 40.9275 92.3447L41.945 94.0332C41.967 93.9672 41.9945 93.9031 42.0275 93.8407C42.0605 93.7747 42.0971 93.7087 42.1375 93.6427L42.8635 92.3722C42.9148 92.2916 42.968 92.2329 43.023 92.1962C43.0816 92.1596 43.1531 92.1412 43.2375 92.1412H44.7995L42.9625 94.8197L44.8765 97.8447ZM47.1089 89.6112V97.8447H45.4039V89.6112H47.1089ZM51.8858 93.3897C51.8418 93.4594 51.7941 93.5089 51.7428 93.5382C51.6951 93.5676 51.6328 93.5822 51.5558 93.5822C51.4751 93.5822 51.3944 93.5657 51.3138 93.5327C51.2331 93.4961 51.1451 93.4576 51.0498 93.4172C50.9581 93.3769 50.8536 93.3402 50.7363 93.3072C50.6189 93.2706 50.4851 93.2522 50.3348 93.2522C50.1184 93.2522 49.9516 93.2944 49.8343 93.3787C49.7206 93.4594 49.6638 93.5731 49.6638 93.7197C49.6638 93.8261 49.7004 93.9141 49.7738 93.9837C49.8508 94.0534 49.9516 94.1157 50.0763 94.1707C50.2009 94.2221 50.3421 94.2716 50.4998 94.3192C50.6574 94.3669 50.8188 94.4201 50.9838 94.4787C51.1488 94.5374 51.3101 94.6071 51.4678 94.6877C51.6254 94.7647 51.7666 94.8619 51.8913 94.9792C52.0159 95.0929 52.1149 95.2322 52.1883 95.3972C52.2653 95.5622 52.3038 95.7602 52.3038 95.9912C52.3038 96.2736 52.2524 96.5339 52.1498 96.7722C52.0471 97.0106 51.8931 97.2159 51.6878 97.3882C51.4861 97.5606 51.2349 97.6944 50.9343 97.7897C50.6373 97.8851 50.2944 97.9327 49.9058 97.9327C49.7114 97.9327 49.5171 97.9144 49.3228 97.8777C49.1284 97.8411 48.9396 97.7916 48.7563 97.7292C48.5766 97.6669 48.4098 97.5936 48.2558 97.5092C48.1018 97.4212 47.9698 97.3277 47.8598 97.2287L48.2558 96.6017C48.2998 96.5284 48.3548 96.4716 48.4208 96.4312C48.4904 96.3872 48.5784 96.3652 48.6848 96.3652C48.7838 96.3652 48.8718 96.3872 48.9488 96.4312C49.0294 96.4752 49.1156 96.5229 49.2073 96.5742C49.2989 96.6256 49.4053 96.6732 49.5263 96.7172C49.6509 96.7612 49.8068 96.7832 49.9938 96.7832C50.1258 96.7832 50.2376 96.7704 50.3293 96.7447C50.4209 96.7154 50.4943 96.6769 50.5493 96.6292C50.6043 96.5816 50.6446 96.5284 50.6703 96.4697C50.6959 96.4111 50.7088 96.3506 50.7088 96.2882C50.7088 96.1746 50.6703 96.0811 50.5933 96.0077C50.5163 95.9344 50.4154 95.8721 50.2908 95.8207C50.1661 95.7657 50.0231 95.7162 49.8618 95.6722C49.7041 95.6246 49.5428 95.5714 49.3778 95.5127C49.2128 95.4541 49.0496 95.3844 48.8883 95.3037C48.7306 95.2194 48.5894 95.1149 48.4648 94.9902C48.3401 94.8619 48.2393 94.7061 48.1623 94.5227C48.0853 94.3394 48.0468 94.1176 48.0468 93.8572C48.0468 93.6152 48.0926 93.3861 48.1843 93.1697C48.2796 92.9497 48.4208 92.7572 48.6078 92.5922C48.7948 92.4272 49.0294 92.2971 49.3118 92.2017C49.5941 92.1027 49.9241 92.0532 50.3018 92.0532C50.5071 92.0532 50.7051 92.0716 50.8958 92.1082C51.0901 92.1449 51.2716 92.1962 51.4403 92.2622C51.6089 92.3282 51.7629 92.4071 51.9023 92.4987C52.0416 92.5867 52.1644 92.6839 52.2708 92.7902L51.8858 93.3897ZM58.6157 97.8447H56.9767C56.8557 97.8447 56.7567 97.8154 56.6797 97.7567C56.6064 97.6981 56.5477 97.6284 56.5037 97.5477L55.4862 95.7987C55.4679 95.8611 55.4459 95.9197 55.4202 95.9747C55.3945 96.0297 55.367 96.0811 55.3377 96.1287L54.5017 97.5477C54.4504 97.6211 54.3899 97.6889 54.3202 97.7512C54.2505 97.8136 54.1607 97.8447 54.0507 97.8447H52.5327L54.4467 94.8967L52.6097 92.1412H54.2487C54.3697 92.1412 54.4577 92.1577 54.5127 92.1907C54.5714 92.2201 54.6227 92.2714 54.6667 92.3447L55.6842 94.0332C55.7062 93.9672 55.7337 93.9031 55.7667 93.8407C55.7997 93.7747 55.8364 93.7087 55.8767 93.6427L56.6027 92.3722C56.654 92.2916 56.7072 92.2329 56.7622 92.1962C56.8209 92.1596 56.8924 92.1412 56.9767 92.1412H58.5387L56.7017 94.8197L58.6157 97.8447Z" fill="white"/>
<path d="M49.4569 7.87285L3.16418 8.07514C2.73304 8.07698 2.30648 8.16378 1.90887 8.33057C1.51126 8.49736 1.15038 8.74089 0.846842 9.04724C0.543302 9.35359 0.303049 9.71676 0.139802 10.116C-0.023446 10.5153 -0.10649 10.9428 -0.104589 11.3742L0.212718 83.9951C0.214558 84.4265 0.301308 84.8532 0.468012 85.2511C0.634717 85.6489 0.878111 86.01 1.1843 86.3137C1.49048 86.6174 1.85346 86.8578 2.2525 87.0211C2.65155 87.1844 3.07884 87.2675 3.50998 87.2656L59.8024 87.0201C60.6732 87.0161 61.5067 86.6663 62.1197 86.0476C62.7327 85.4288 63.0749 84.5918 63.0712 83.7206L62.7976 21.1048L49.4569 7.87285Z" fill="#34C759"/>
<path d="M49.5622 17.912C49.5644 18.7832 49.9122 19.6178 50.5292 20.2324C51.1463 20.847 51.982 21.1912 52.8527 21.1894L62.8511 21.1664L49.5392 7.9082L49.5622 17.912Z" fill="#22853B"/>
<path d="M36.4269 26.3231L8.1174 26.388C7.74959 26.3877 7.39682 26.2419 7.13614 25.9822C6.87547 25.7226 6.72808 25.3703 6.72618 25.0023C6.72653 24.6344 6.87237 24.2815 7.13185 24.0208C7.39133 23.7601 7.74337 23.6127 8.1111 23.6108L36.4206 23.5459C36.7887 23.546 37.1418 23.6921 37.4026 23.9521C37.6633 24.2122 37.8105 24.565 37.8118 24.9334C37.8108 25.301 37.6647 25.6533 37.4053 25.9136C37.1459 26.1739 36.7942 26.3211 36.4269 26.3231Z" fill="#231F20"/>
<path d="M54.851 33.3485L8.05036 33.4562C7.68263 33.4558 7.32997 33.3099 7.06939 33.0503C6.80882 32.7907 6.6615 32.4384 6.65959 32.0705C6.65982 31.7026 6.80556 31.3498 7.06497 31.089C7.32438 30.8283 7.67637 30.6809 8.04406 30.679L54.8447 30.5713C55.2125 30.5716 55.5652 30.7175 55.8258 30.9771C56.0865 31.2368 56.2339 31.589 56.2359 31.957C56.2357 32.3249 56.0899 32.6778 55.8304 32.9386C55.5709 33.1993 55.2188 33.3467 54.851 33.3485Z" fill="#231F20"/>
<path d="M54.8672 40.4172L8.06657 40.5249C7.6986 40.5246 7.34574 40.3785 7.08512 40.1185C6.82451 39.8586 6.67734 39.5061 6.6758 39.1379C6.67591 38.77 6.82161 38.417 7.08104 38.1563C7.34047 37.8955 7.69254 37.7482 8.06026 37.7464L54.8609 37.6387C55.2287 37.6389 55.5815 37.7848 55.8422 38.0444C56.1028 38.304 56.2502 38.6563 56.2521 39.0243C56.2523 39.3925 56.1066 39.7458 55.8471 40.0068C55.5875 40.2679 55.2352 40.4154 54.8672 40.4172Z" fill="#231F20"/>
<path d="M54.8834 47.4851L8.08277 47.5928C7.71507 47.5923 7.36248 47.4464 7.10193 47.1868C6.84138 46.9272 6.69402 46.575 6.692 46.2072C6.69188 45.8389 6.8376 45.4856 7.09725 45.2247C7.3569 44.9637 7.70933 44.8163 8.07737 44.8147L54.878 44.707C55.2458 44.7076 55.5983 44.8538 55.8587 45.1136C56.1191 45.3733 56.2662 45.7257 56.2679 46.0936C56.2677 46.4615 56.1219 46.8143 55.8625 47.0751C55.6031 47.3358 55.2511 47.4832 54.8834 47.4851Z" fill="#231F20"/>
<path d="M54.8997 54.5555L8.09899 54.6632C7.73129 54.6627 7.3787 54.5168 7.11815 54.2572C6.8576 53.9976 6.71024 53.6454 6.70822 53.2775C6.70834 52.9096 6.85404 52.5567 7.11347 52.2959C7.3729 52.0352 7.72496 51.8878 8.09269 51.886L54.8933 51.7783C55.2612 51.7786 55.6139 51.9244 55.8746 52.184C56.1353 52.4437 56.2827 52.796 56.2846 53.164C56.2842 53.5319 56.1384 53.8848 55.8789 54.1455C55.6194 54.4062 55.2674 54.5536 54.8997 54.5555Z" fill="#231F20"/>
<path d="M54.9168 61.6239L8.11611 61.7311C7.74854 61.7308 7.39604 61.5849 7.13562 61.3253C6.8752 61.0658 6.72803 60.7137 6.72624 60.3459C6.72636 59.9779 6.87204 59.625 7.13146 59.3641C7.39088 59.1033 7.74294 58.9558 8.11071 58.9539L54.9114 58.8467C55.2792 58.8469 55.6319 58.9928 55.8926 59.2524C56.1533 59.512 56.3007 59.8643 56.3026 60.2323C56.3022 60.6004 56.1563 60.9534 55.8966 61.2142C55.6369 61.4749 55.2847 61.6222 54.9168 61.6239Z" fill="#231F20"/>
<path d="M22.3838 78.9812C22.3838 78.8492 22.4076 78.7264 22.4553 78.6127C22.5066 78.4991 22.5744 78.4001 22.6588 78.3157C22.7468 78.2314 22.8494 78.1654 22.9668 78.1177C23.0841 78.0664 23.2124 78.0407 23.3518 78.0407C23.4874 78.0407 23.6139 78.0664 23.7313 78.1177C23.8486 78.1654 23.9513 78.2314 24.0393 78.3157C24.1273 78.4001 24.1951 78.4991 24.2428 78.6127C24.2941 78.7264 24.3198 78.8492 24.3198 78.9812C24.3198 79.1132 24.2941 79.2379 24.2428 79.3552C24.1951 79.4689 24.1273 79.5679 24.0393 79.6522C23.9513 79.7366 23.8486 79.8026 23.7313 79.8502C23.6139 79.8979 23.4874 79.9217 23.3518 79.9217C23.2124 79.9217 23.0841 79.8979 22.9668 79.8502C22.8494 79.8026 22.7468 79.7366 22.6588 79.6522C22.5744 79.5679 22.5066 79.4689 22.4553 79.3552C22.4076 79.2379 22.3838 79.1132 22.3838 78.9812ZM29.4376 75.4942C29.3863 75.5566 29.3368 75.6061 29.2891 75.6427C29.2414 75.6794 29.1736 75.6977 29.0856 75.6977C29.0013 75.6977 28.9243 75.6776 28.8546 75.6372C28.7886 75.5969 28.7134 75.5529 28.6291 75.5052C28.5448 75.4539 28.4458 75.4081 28.3321 75.3677C28.2184 75.3274 28.0773 75.3072 27.9086 75.3072C27.6996 75.3072 27.5181 75.3457 27.3641 75.4227C27.2138 75.4997 27.0891 75.6097 26.9901 75.7527C26.8911 75.8957 26.8178 76.0717 26.7701 76.2807C26.7224 76.4861 26.6986 76.7189 26.6986 76.9792C26.6986 77.5256 26.8031 77.9454 27.0121 78.2387C27.2248 78.5321 27.5163 78.6787 27.8866 78.6787C28.0846 78.6787 28.2404 78.6549 28.3541 78.6072C28.4714 78.5559 28.5704 78.5009 28.6511 78.4422C28.7318 78.3799 28.8051 78.3231 28.8711 78.2717C28.9408 78.2204 29.0269 78.1947 29.1296 78.1947C29.2653 78.1947 29.3679 78.2442 29.4376 78.3432L29.9326 78.9537C29.7566 79.1554 29.5714 79.3204 29.3771 79.4487C29.1828 79.5734 28.9829 79.6724 28.7776 79.7457C28.5759 79.8154 28.3724 79.8631 28.1671 79.8887C27.9618 79.9181 27.7619 79.9327 27.5676 79.9327C27.2193 79.9327 26.8856 79.8667 26.5666 79.7347C26.2513 79.6027 25.9726 79.4121 25.7306 79.1627C25.4923 78.9097 25.3016 78.5999 25.1586 78.2332C25.0193 77.8666 24.9496 77.4486 24.9496 76.9792C24.9496 76.5686 25.0101 76.1854 25.1311 75.8297C25.2558 75.4704 25.4373 75.1606 25.6756 74.9002C25.9176 74.6362 26.2146 74.4291 26.5666 74.2787C26.9223 74.1284 27.3329 74.0532 27.7986 74.0532C28.2459 74.0532 28.6383 74.1247 28.9756 74.2677C29.3129 74.4107 29.6173 74.6197 29.8886 74.8947L29.4376 75.4942ZM34.2207 75.3897C34.1767 75.4594 34.1291 75.5089 34.0777 75.5382C34.0301 75.5676 33.9677 75.5822 33.8907 75.5822C33.8101 75.5822 33.7294 75.5657 33.6487 75.5327C33.5681 75.4961 33.4801 75.4576 33.3847 75.4172C33.2931 75.3769 33.1886 75.3402 33.0712 75.3072C32.9539 75.2706 32.8201 75.2522 32.6697 75.2522C32.4534 75.2522 32.2866 75.2944 32.1692 75.3787C32.0556 75.4594 31.9987 75.5731 31.9987 75.7197C31.9987 75.8261 32.0354 75.9141 32.1087 75.9837C32.1857 76.0534 32.2866 76.1157 32.4112 76.1707C32.5359 76.2221 32.6771 76.2716 32.8347 76.3192C32.9924 76.3669 33.1537 76.4201 33.3187 76.4787C33.4837 76.5374 33.6451 76.6071 33.8027 76.6877C33.9604 76.7647 34.1016 76.8619 34.2262 76.9792C34.3509 77.0929 34.4499 77.2322 34.5232 77.3972C34.6002 77.5622 34.6387 77.7602 34.6387 77.9912C34.6387 78.2736 34.5874 78.5339 34.4847 78.7722C34.3821 79.0106 34.2281 79.2159 34.0227 79.3882C33.8211 79.5606 33.5699 79.6944 33.2692 79.7897C32.9722 79.8851 32.6294 79.9327 32.2407 79.9327C32.0464 79.9327 31.8521 79.9144 31.6577 79.8777C31.4634 79.8411 31.2746 79.7916 31.0912 79.7292C30.9116 79.6669 30.7447 79.5936 30.5907 79.5092C30.4367 79.4212 30.3047 79.3277 30.1947 79.2287L30.5907 78.6017C30.6347 78.5284 30.6897 78.4716 30.7557 78.4312C30.8254 78.3872 30.9134 78.3652 31.0197 78.3652C31.1187 78.3652 31.2067 78.3872 31.2837 78.4312C31.3644 78.4752 31.4506 78.5229 31.5422 78.5742C31.6339 78.6256 31.7402 78.6732 31.8612 78.7172C31.9859 78.7612 32.1417 78.7832 32.3287 78.7832C32.4607 78.7832 32.5726 78.7704 32.6642 78.7447C32.7559 78.7154 32.8292 78.6769 32.8842 78.6292C32.9392 78.5816 32.9796 78.5284 33.0052 78.4697C33.0309 78.4111 33.0437 78.3506 33.0437 78.2882C33.0437 78.1746 33.0052 78.0811 32.9282 78.0077C32.8512 77.9344 32.7504 77.8721 32.6257 77.8207C32.5011 77.7657 32.3581 77.7162 32.1967 77.6722C32.0391 77.6246 31.8777 77.5714 31.7127 77.5127C31.5477 77.4541 31.3846 77.3844 31.2232 77.3037C31.0656 77.2194 30.9244 77.1149 30.7997 76.9902C30.6751 76.8619 30.5742 76.7061 30.4972 76.5227C30.4202 76.3394 30.3817 76.1176 30.3817 75.8572C30.3817 75.6152 30.4276 75.3861 30.5192 75.1697C30.6146 74.9497 30.7557 74.7572 30.9427 74.5922C31.1297 74.4272 31.3644 74.2971 31.6467 74.2017C31.9291 74.1027 32.2591 74.0532 32.6367 74.0532C32.8421 74.0532 33.0401 74.0716 33.2307 74.1082C33.4251 74.1449 33.6066 74.1962 33.7752 74.2622C33.9439 74.3282 34.0979 74.4071 34.2372 74.4987C34.3766 74.5867 34.4994 74.6839 34.6057 74.7902L34.2207 75.3897ZM40.7607 74.1412L38.5497 79.8447H36.9987L34.7877 74.1412H36.2067C36.3277 74.1412 36.4286 74.1706 36.5092 74.2292C36.5936 74.2842 36.6504 74.3539 36.6797 74.4382L37.4717 76.9957C37.5414 77.2047 37.6019 77.4082 37.6532 77.6062C37.7082 77.8042 37.7559 78.0022 37.7962 78.2002C37.8769 77.8042 37.9887 77.4027 38.1317 76.9957L38.9567 74.4382C38.9861 74.3539 39.0411 74.2842 39.1217 74.2292C39.2024 74.1706 39.2977 74.1412 39.4077 74.1412H40.7607Z" fill="#231F20"/>
</g>
<defs>
<clipPath id="clip0_6212_22075">
<rect width="240" height="240" fill="white"/>
</clipPath>
</defs>
</svg>
