<svg width="240" height="240" viewBox="0 0 240 240" fill="none" xmlns="http://www.w3.org/2000/svg">
<path d="M2.15907 42.2651H106.067V103.648C106.067 104.663 105.244 105.486 104.229 105.486H3.99716C2.98201 105.486 2.15907 104.663 2.15907 103.648V42.2651Z" fill="#1B1C21"/>
<path d="M2.15907 42.2651H106.067V103.648C106.067 104.663 105.244 105.486 104.229 105.486H3.99716C2.98201 105.486 2.15907 104.663 2.15907 103.648V42.2651Z" stroke="#8BA98F" stroke-width="3.48324"/>
<path d="M3.99716 31.1772H104.229C105.244 31.1772 106.067 32.0001 106.067 33.0153V42.3141H2.15907V33.0153C2.15907 32.0001 2.98201 31.1772 3.99716 31.1772Z" fill="#34C759"/>
<path d="M3.99716 31.1772H104.229C105.244 31.1772 106.067 32.0001 106.067 33.0153V42.3141H2.15907V33.0153C2.15907 32.0001 2.98201 31.1772 3.99716 31.1772Z" stroke="#34C759" stroke-width="3.48324"/>
<path d="M68.3407 145.603H172.249V206.985C172.249 208 171.426 208.823 170.411 208.823H70.1788C69.1637 208.823 68.3407 208 68.3407 206.985V145.603Z" fill="#1B1C21"/>
<path d="M68.3407 145.603H172.249V206.985C172.249 208 171.426 208.823 170.411 208.823H70.1788C69.1637 208.823 68.3407 208 68.3407 206.985V145.603Z" stroke="#8BA98F" stroke-width="3.48324"/>
<path d="M70.1788 134.514H170.411C171.426 134.514 172.249 135.337 172.249 136.352V145.651H68.3407V136.352C68.3407 135.337 69.1637 134.514 70.1788 134.514Z" fill="#34C759"/>
<path d="M70.1788 134.514H170.411C171.426 134.514 172.249 135.337 172.249 136.352V145.651H68.3407V136.352C68.3407 135.337 69.1637 134.514 70.1788 134.514Z" stroke="#34C759" stroke-width="3.48324"/>
<path d="M133.933 42.267H237.841V103.649C237.841 104.664 237.018 105.487 236.003 105.487H135.771C134.756 105.487 133.933 104.664 133.933 103.649V42.267Z" fill="#1B1C21"/>
<path d="M133.933 42.267H237.841V103.649C237.841 104.664 237.018 105.487 236.003 105.487H135.771C134.756 105.487 133.933 104.664 133.933 103.649V42.267Z" stroke="#8BA98F" stroke-width="3.48324"/>
<path d="M135.771 30.5966H236.003C237.339 30.5966 238.421 31.6795 238.421 33.0153V42.8944H133.352V33.0153C133.352 31.6795 134.435 30.5966 135.771 30.5966Z" fill="#34C759"/>
<path d="M135.771 30.5966H236.003C237.339 30.5966 238.421 31.6795 238.421 33.0153V42.8944H133.352V33.0153C133.352 31.6795 134.435 30.5966 135.771 30.5966Z" stroke="#34C759" stroke-width="2.32216"/>
</svg>
