<svg width="240" height="240" viewBox="0 0 240 240" fill="none" xmlns="http://www.w3.org/2000/svg">
<g clip-path="url(#clip0_6212_22346)">
<path d="M164.417 67.0215V54.5807C164.417 54.2915 164.573 54.0273 164.875 53.8565C165.186 53.6812 165.563 53.66 165.877 53.8158C172.904 57.3081 184.054 59.7552 201.639 59.7552C219.225 59.7552 230.374 57.3081 237.402 53.8158C237.716 53.66 238.093 53.6812 238.403 53.8565C238.706 54.0273 238.862 54.2915 238.862 54.5807V67.0215C238.862 67.2357 238.779 67.3968 238.674 67.4891C235.842 69.9951 231.285 72.0325 225.016 73.4347C218.768 74.8323 210.928 75.5754 201.639 75.5754C192.35 75.5754 184.51 74.8323 178.262 73.4347C171.994 72.0325 167.436 69.9951 164.604 67.4891C164.5 67.3968 164.417 67.2357 164.417 67.0215Z" fill="#1B1C21" stroke="#8BA98F" stroke-width="2.5"/>
<path d="M164.417 89.6487V76.5641C164.417 76.2749 164.573 76.0107 164.875 75.8399C165.186 75.6646 165.563 75.6434 165.877 75.7992C172.904 79.2915 184.054 81.7386 201.639 81.7386C219.225 81.7386 230.374 79.2915 237.402 75.7992C237.716 75.6434 238.093 75.6646 238.403 75.8399C238.706 76.0107 238.862 76.2749 238.862 76.5641V89.6487C238.862 91.214 237.976 92.7404 236.035 94.2074C234.091 95.677 231.234 96.964 227.688 98.0203C220.612 100.129 211.123 101.223 201.639 101.223C192.156 101.223 182.667 100.129 175.59 98.0203C172.045 96.964 169.188 95.677 167.243 94.2074C165.302 92.7404 164.417 91.214 164.417 89.6487Z" fill="#1B1C21" stroke="#8BA98F" stroke-width="2.5"/>
<path d="M177.565 29.5621C171.402 28.1138 166.929 26.0313 164.173 23.4663C164.256 21.877 165.208 20.3625 167.093 18.9381C169.071 17.443 171.96 16.1454 175.519 15.085C182.626 12.9677 192.141 11.8721 201.639 11.8721C211.138 11.8721 220.653 12.9677 227.76 15.085C231.319 16.1454 234.208 17.443 236.186 18.9381C238.071 20.3625 239.022 21.877 239.106 23.4663C236.35 26.0313 231.876 28.1138 225.714 29.5621C219.341 31.06 211.262 31.8563 201.639 31.8563C192.017 31.8563 183.938 31.06 177.565 29.5621Z" fill="#34C759" stroke="#34C759" stroke-width="2"/>
<path d="M164.417 45.0371V32.5963C164.417 32.3071 164.573 32.043 164.875 31.8722C165.186 31.6968 165.563 31.6756 165.877 31.8314C172.904 35.3237 184.054 37.7708 201.639 37.7708C219.225 37.7708 230.374 35.3237 237.402 31.8314C237.716 31.6756 238.093 31.6968 238.403 31.8722C238.706 32.043 238.862 32.3071 238.862 32.5963V45.0371C238.862 45.2513 238.779 45.4124 238.674 45.5047C235.842 48.0108 231.285 50.0481 225.016 51.4504C218.768 52.8479 210.928 53.591 201.639 53.591C192.35 53.591 184.51 52.8479 178.262 51.4504C171.994 50.0481 167.436 48.0108 164.604 45.5047C164.5 45.4124 164.417 45.2513 164.417 45.0371Z" fill="#1B1C21" stroke="#8BA98F" stroke-width="2.5"/>
<rect x="32.1384" y="39.1221" width="60.5" height="76.5" rx="2.75" fill="#1B1C21"/>
<rect x="32.1384" y="39.1221" width="60.5" height="76.5" rx="2.75" stroke="#8BA98F" stroke-width="2.5"/>
<path d="M67.6972 55.9092L39.3483 55.9742C38.98 55.974 38.6267 55.8279 38.3657 55.5679C38.1046 55.3079 37.957 54.955 37.9551 54.5865C37.9555 54.218 38.1015 53.8646 38.3614 53.6035C38.6212 53.3424 38.9737 53.1948 39.342 53.1929L67.6909 53.1279C68.0595 53.128 68.4132 53.2743 68.6743 53.5348C68.9354 53.7952 69.0827 54.1485 69.084 54.5174C69.0831 54.8856 68.9368 55.2384 68.677 55.4991C68.4173 55.7598 68.0651 55.9072 67.6972 55.9092Z" fill="#34C759"/>
<path d="M86.1469 62.9444L39.2811 63.0522C38.9128 63.0519 38.5597 62.9057 38.2987 62.6457C38.0378 62.3857 37.8903 62.033 37.8884 61.6645C37.8886 61.2961 38.0345 60.9427 38.2943 60.6816C38.5541 60.4205 38.9066 60.2729 39.2748 60.2709L86.1406 60.1631C86.5089 60.1634 86.8621 60.3096 87.1231 60.5695C87.3841 60.8295 87.5317 61.1823 87.5338 61.5508C87.5335 61.9193 87.3875 62.2727 87.1277 62.5339C86.8678 62.795 86.5152 62.9426 86.1469 62.9444Z" fill="#8BA98F"/>
<path d="M86.1632 70.0229L39.2973 70.1307C38.9288 70.1304 38.5755 69.9841 38.3145 69.7238C38.0535 69.4635 37.9062 69.1104 37.9046 68.7417C37.9047 68.3732 38.0506 68.0198 38.3104 67.7586C38.5702 67.4975 38.9228 67.3499 39.291 67.3481L86.1568 67.2402C86.5252 67.2405 86.8784 67.3865 87.1395 67.6466C87.4005 67.9066 87.5481 68.2594 87.55 68.6279C87.5501 68.9967 87.4043 69.3505 87.1444 69.6119C86.8845 69.8733 86.5317 70.0211 86.1632 70.0229Z" fill="#8BA98F"/>
<path d="M86.1794 77.1025L39.3135 77.2104C38.9453 77.2099 38.5923 77.0637 38.3313 76.8037C38.0704 76.5438 37.9229 76.1911 37.9208 75.8226C37.9207 75.4539 38.0666 75.1001 38.3266 74.8387C38.5867 74.5773 38.9396 74.4297 39.3081 74.4282L86.174 74.3203C86.5422 74.3209 86.8953 74.4673 87.1561 74.7274C87.4168 74.9876 87.5641 75.3405 87.5658 75.7089C87.5656 76.0774 87.4196 76.4307 87.1598 76.6918C86.9001 76.953 86.5476 77.1006 86.1794 77.1025Z" fill="#8BA98F"/>
<path d="M86.1956 84.1826L39.3298 84.2905C38.9616 84.29 38.6085 84.1439 38.3476 83.8839C38.0867 83.6239 37.9391 83.2712 37.9371 82.9028C37.9372 82.5343 38.0831 82.1809 38.3429 81.9198C38.6027 81.6586 38.9552 81.511 39.3235 81.5092L86.1893 81.4014C86.5576 81.4016 86.9109 81.5477 87.1719 81.8077C87.433 82.0677 87.5806 82.4205 87.5825 82.7891C87.5821 83.1576 87.4361 83.5109 87.1762 83.772C86.9164 84.0331 86.5639 84.1807 86.1956 84.1826Z" fill="#8BA98F"/>
<path d="M86.2128 91.2618L39.3469 91.3692C38.9789 91.3688 38.6259 91.2227 38.3651 90.9628C38.1043 90.7028 37.9569 90.3502 37.9551 89.9819C37.9553 89.6134 38.1011 89.2599 38.3609 88.9987C38.6207 88.7375 38.9733 88.5898 39.3415 88.5879L86.2074 88.4805C86.5757 88.4807 86.929 88.6268 87.19 88.8868C87.451 89.1468 87.5986 89.4996 87.6005 89.8682C87.6002 90.2368 87.454 90.5903 87.194 90.8514C86.9339 91.1126 86.5812 91.2601 86.2128 91.2618Z" fill="#8BA98F"/>
<path d="M86.2281 98.3418L39.3622 98.4492C38.994 98.4491 38.6408 98.3031 38.3798 98.0432C38.1188 97.7832 37.9713 97.4304 37.9695 97.062C37.9697 96.6935 38.1155 96.34 38.3753 96.0788C38.6351 95.8176 38.9877 95.6699 39.3559 95.668L86.2218 95.5605C86.59 95.5608 86.9432 95.7068 87.2042 95.9667C87.4653 96.2266 87.6129 96.5793 87.6149 96.9478C87.6147 97.3164 87.4687 97.6698 87.2089 97.931C86.949 98.1922 86.5964 98.3399 86.2281 98.3418Z" fill="#8BA98F"/>
<path d="M50.4351 109.009C50.4351 108.877 50.4589 108.754 50.5066 108.64C50.5579 108.526 50.6257 108.427 50.7101 108.343C50.7981 108.259 50.9007 108.193 51.0181 108.145C51.1354 108.094 51.2637 108.068 51.4031 108.068C51.5387 108.068 51.6652 108.094 51.7826 108.145C51.8999 108.193 52.0026 108.259 52.0906 108.343C52.1786 108.427 52.2464 108.526 52.2941 108.64C52.3454 108.754 52.3711 108.877 52.3711 109.009C52.3711 109.141 52.3454 109.265 52.2941 109.383C52.2464 109.496 52.1786 109.595 52.0906 109.68C52.0026 109.764 51.8999 109.83 51.7826 109.878C51.6652 109.925 51.5387 109.949 51.4031 109.949C51.2637 109.949 51.1354 109.925 51.0181 109.878C50.9007 109.83 50.7981 109.764 50.7101 109.68C50.6257 109.595 50.5579 109.496 50.5066 109.383C50.4589 109.265 50.4351 109.141 50.4351 109.009ZM56.2404 107.551C55.8994 107.566 55.6189 107.595 55.3989 107.639C55.1789 107.683 55.0047 107.738 54.8764 107.804C54.7481 107.87 54.6582 107.945 54.6069 108.03C54.5592 108.114 54.5354 108.206 54.5354 108.305C54.5354 108.499 54.5886 108.636 54.6949 108.717C54.8012 108.794 54.9571 108.833 55.1624 108.833C55.3824 108.833 55.5749 108.794 55.7399 108.717C55.9049 108.64 56.0717 108.515 56.2404 108.343V107.551ZM53.1714 104.961C53.5161 104.656 53.8974 104.431 54.3154 104.284C54.7371 104.134 55.1881 104.059 55.6684 104.059C56.0131 104.059 56.3229 104.115 56.5979 104.229C56.8766 104.339 57.1112 104.495 57.3019 104.697C57.4962 104.895 57.6447 105.131 57.7474 105.406C57.8501 105.681 57.9014 105.982 57.9014 106.308V109.872H57.1204C56.9591 109.872 56.8362 109.85 56.7519 109.806C56.6712 109.762 56.6034 109.67 56.5484 109.531L56.4274 109.218C56.2844 109.339 56.1469 109.445 56.0149 109.537C55.8829 109.628 55.7454 109.707 55.6024 109.773C55.4631 109.835 55.3127 109.881 55.1514 109.911C54.9937 109.944 54.8177 109.96 54.6234 109.96C54.3631 109.96 54.1266 109.927 53.9139 109.861C53.7012 109.791 53.5197 109.691 53.3694 109.559C53.2227 109.427 53.1091 109.263 53.0284 109.069C52.9477 108.871 52.9074 108.644 52.9074 108.387C52.9074 108.182 52.9587 107.975 53.0614 107.766C53.1641 107.553 53.3419 107.36 53.5949 107.188C53.8479 107.012 54.1889 106.865 54.6179 106.748C55.0469 106.631 55.5877 106.565 56.2404 106.55V106.308C56.2404 105.974 56.1707 105.734 56.0314 105.588C55.8957 105.437 55.7014 105.362 55.4484 105.362C55.2467 105.362 55.0817 105.384 54.9534 105.428C54.8251 105.472 54.7096 105.522 54.6069 105.577C54.5079 105.632 54.4107 105.681 54.3154 105.725C54.2201 105.769 54.1064 105.791 53.9744 105.791C53.8571 105.791 53.7581 105.762 53.6774 105.703C53.5967 105.644 53.5307 105.575 53.4794 105.494L53.1714 104.961ZM64.2144 104.169L62.0034 109.872H60.4524L58.2414 104.169H59.6604C59.7814 104.169 59.8822 104.198 59.9629 104.257C60.0472 104.312 60.104 104.381 60.1334 104.466L60.9254 107.023C60.995 107.232 61.0555 107.436 61.1069 107.634C61.1619 107.832 61.2095 108.03 61.2499 108.228C61.3305 107.832 61.4424 107.43 61.5854 107.023L62.4104 104.466C62.4397 104.381 62.4947 104.312 62.5754 104.257C62.656 104.198 62.7514 104.169 62.8614 104.169H64.2144ZM66.3656 105.049C66.5416 104.741 66.7432 104.499 66.9706 104.323C67.2016 104.147 67.4656 104.059 67.7626 104.059C68.0192 104.059 68.2282 104.119 68.3896 104.24L68.2796 105.494C68.2612 105.575 68.2301 105.63 68.1861 105.659C68.1457 105.688 68.0889 105.703 68.0156 105.703C67.9862 105.703 67.9477 105.701 67.9001 105.698C67.8524 105.694 67.8029 105.69 67.7516 105.687C67.7002 105.679 67.6471 105.674 67.5921 105.67C67.5407 105.663 67.4931 105.659 67.4491 105.659C67.1997 105.659 66.9999 105.725 66.8496 105.857C66.7029 105.989 66.5782 106.172 66.4756 106.407V109.872H64.7706V104.169H65.7826C65.8669 104.169 65.9366 104.176 65.9916 104.191C66.0502 104.205 66.0979 104.229 66.1346 104.262C66.1749 104.291 66.2042 104.332 66.2226 104.383C66.2446 104.434 66.2629 104.497 66.2776 104.57L66.3656 105.049ZM71.5031 104.081C71.9357 104.081 72.3299 104.148 72.6856 104.284C73.0412 104.42 73.3456 104.614 73.5986 104.867C73.8552 105.12 74.0532 105.428 74.1926 105.791C74.3356 106.15 74.4071 106.556 74.4071 107.007C74.4071 107.461 74.3356 107.872 74.1926 108.239C74.0532 108.602 73.8552 108.911 73.5986 109.168C73.3456 109.421 73.0412 109.617 72.6856 109.757C72.3299 109.892 71.9357 109.96 71.5031 109.96C71.0667 109.96 70.6689 109.892 70.3096 109.757C69.9539 109.617 69.6459 109.421 69.3856 109.168C69.1289 108.911 68.9291 108.602 68.7861 108.239C68.6467 107.872 68.5771 107.461 68.5771 107.007C68.5771 106.556 68.6467 106.15 68.7861 105.791C68.9291 105.428 69.1289 105.12 69.3856 104.867C69.6459 104.614 69.9539 104.42 70.3096 104.284C70.6689 104.148 71.0667 104.081 71.5031 104.081ZM71.5031 108.695C71.8954 108.695 72.1832 108.558 72.3666 108.283C72.5536 108.004 72.6471 107.582 72.6471 107.018C72.6471 106.453 72.5536 106.033 72.3666 105.758C72.1832 105.483 71.8954 105.346 71.5031 105.346C71.0997 105.346 70.8046 105.483 70.6176 105.758C70.4306 106.033 70.3371 106.453 70.3371 107.018C70.3371 107.582 70.4306 108.004 70.6176 108.283C70.8046 108.558 71.0997 108.695 71.5031 108.695Z" fill="white"/>
<rect x="17.1384" y="21.1221" width="60.5" height="76.5" rx="2.75" fill="#1B1C21"/>
<rect x="17.1384" y="21.1221" width="60.5" height="76.5" rx="2.75" stroke="#8BA98F" stroke-width="2.5"/>
<path d="M52.6972 37.9092L24.3483 37.9742C23.98 37.974 23.6267 37.8279 23.3657 37.5679C23.1046 37.3079 22.957 36.955 22.9551 36.5865C22.9555 36.218 23.1015 35.8646 23.3614 35.6035C23.6212 35.3424 23.9737 35.1948 24.342 35.1929L52.6909 35.1279C53.0595 35.128 53.4131 35.2743 53.6742 35.5348C53.9354 35.7952 54.0827 36.1485 54.084 36.5174C54.0831 36.8856 53.9368 37.2384 53.677 37.4991C53.4173 37.7598 53.0651 37.9072 52.6972 37.9092Z" fill="#34C759"/>
<path d="M71.1469 44.9444L24.2811 45.0522C23.9128 45.0519 23.5597 44.9057 23.2987 44.6457C23.0378 44.3857 22.8903 44.033 22.8884 43.6645C22.8886 43.2961 23.0345 42.9427 23.2943 42.6816C23.5541 42.4205 23.9065 42.2729 24.2747 42.2709L71.1406 42.1631C71.5089 42.1634 71.8621 42.3096 72.1231 42.5695C72.3841 42.8295 72.5317 43.1823 72.5338 43.5508C72.5335 43.9193 72.3875 44.2727 72.1276 44.5339C71.8678 44.795 71.5152 44.9426 71.1469 44.9444Z" fill="#8BA98F"/>
<path d="M71.1631 52.0229L24.2973 52.1307C23.9288 52.1304 23.5755 51.9841 23.3145 51.7238C23.0535 51.4635 22.9061 51.1104 22.9046 50.7417C22.9047 50.3732 23.0506 50.0198 23.3104 49.7586C23.5702 49.4975 23.9227 49.3499 24.291 49.3481L71.1568 49.2402C71.5252 49.2405 71.8784 49.3865 72.1395 49.6466C72.4005 49.9066 72.5481 50.2594 72.55 50.6279C72.5501 50.9967 72.4043 51.3505 72.1444 51.6119C71.8845 51.8733 71.5317 52.0211 71.1631 52.0229Z" fill="#8BA98F"/>
<path d="M71.1794 59.1025L24.3135 59.2104C23.9453 59.2099 23.5922 59.0637 23.3313 58.8037C23.0704 58.5438 22.9228 58.1911 22.9208 57.8226C22.9207 57.4539 23.0666 57.1001 23.3266 56.8387C23.5866 56.5773 23.9396 56.4297 24.3081 56.4282L71.174 56.3203C71.5422 56.3209 71.8953 56.4673 72.156 56.7274C72.4168 56.9876 72.5641 57.3405 72.5658 57.7089C72.5655 58.0774 72.4196 58.4307 72.1598 58.6918C71.9001 58.953 71.5476 59.1006 71.1794 59.1025Z" fill="#8BA98F"/>
<path d="M71.1956 66.1826L24.3298 66.2905C23.9616 66.29 23.6085 66.1439 23.3476 65.8839C23.0866 65.6239 22.9391 65.2712 22.9371 64.9028C22.9372 64.5343 23.0831 64.1809 23.3429 63.9198C23.6027 63.6586 23.9552 63.511 24.3234 63.5092L71.1893 63.4014C71.5576 63.4016 71.9109 63.5477 72.1719 63.8077C72.433 64.0677 72.5806 64.4205 72.5825 64.7891C72.5821 65.1576 72.4361 65.5109 72.1762 65.772C71.9164 66.0331 71.5639 66.1807 71.1956 66.1826Z" fill="#8BA98F"/>
<path d="M71.2128 73.2618L24.3469 73.3692C23.9788 73.3688 23.6259 73.2227 23.3651 72.9628C23.1043 72.7028 22.9569 72.3502 22.9551 71.9819C22.9552 71.6134 23.1011 71.2599 23.3609 70.9987C23.6207 70.7375 23.9732 70.5898 24.3415 70.5879L71.2074 70.4805C71.5757 70.4807 71.929 70.6268 72.19 70.8868C72.451 71.1468 72.5986 71.4996 72.6005 71.8682C72.6002 72.2368 72.454 72.5903 72.194 72.8514C71.9339 73.1126 71.5812 73.2601 71.2128 73.2618Z" fill="#8BA98F"/>
<path d="M71.2281 80.3418L24.3622 80.4492C23.994 80.4491 23.6408 80.3031 23.3798 80.0432C23.1188 79.7832 22.9713 79.4304 22.9695 79.062C22.9696 78.6935 23.1155 78.34 23.3753 78.0788C23.6351 77.8176 23.9876 77.6699 24.3559 77.668L71.2218 77.5605C71.59 77.5608 71.9432 77.7068 72.2042 77.9667C72.4653 78.2266 72.6129 78.5793 72.6149 78.9478C72.6147 79.3164 72.4687 79.6698 72.2089 79.931C71.949 80.1922 71.5964 80.3399 71.2281 80.3418Z" fill="#8BA98F"/>
<path d="M36.5576 91.0086C36.5576 90.8766 36.5815 90.7537 36.6291 90.6401C36.6805 90.5264 36.7483 90.4274 36.8326 90.3431C36.9206 90.2587 37.0233 90.1927 37.1406 90.1451C37.258 90.0937 37.3863 90.0681 37.5256 90.0681C37.6613 90.0681 37.7878 90.0937 37.9051 90.1451C38.0225 90.1927 38.1251 90.2587 38.2131 90.3431C38.3011 90.4274 38.369 90.5264 38.4166 90.6401C38.468 90.7537 38.4936 90.8766 38.4936 91.0086C38.4936 91.1406 38.468 91.2652 38.4166 91.3826C38.369 91.4962 38.3011 91.5952 38.2131 91.6796C38.1251 91.7639 38.0225 91.8299 37.9051 91.8776C37.7878 91.9252 37.6613 91.9491 37.5256 91.9491C37.3863 91.9491 37.258 91.9252 37.1406 91.8776C37.0233 91.8299 36.9206 91.7639 36.8326 91.6796C36.7483 91.5952 36.6805 91.4962 36.6291 91.3826C36.5815 91.2652 36.5576 91.1406 36.5576 91.0086ZM44.8765 91.8721H43.2375C43.1165 91.8721 43.0175 91.8427 42.9405 91.7841C42.8671 91.7254 42.8085 91.6557 42.7645 91.5751L41.747 89.8261C41.7286 89.8884 41.7066 89.9471 41.681 90.0021C41.6553 90.0571 41.6278 90.1084 41.5985 90.1561L40.7625 91.5751C40.7111 91.6484 40.6506 91.7162 40.581 91.7786C40.5113 91.8409 40.4215 91.8721 40.3115 91.8721H38.7935L40.7075 88.9241L38.8705 86.1686H40.5095C40.6305 86.1686 40.7185 86.1851 40.7735 86.2181C40.8321 86.2474 40.8835 86.2987 40.9275 86.3721L41.945 88.0606C41.967 87.9946 41.9945 87.9304 42.0275 87.8681C42.0605 87.8021 42.0971 87.7361 42.1375 87.6701L42.8635 86.3996C42.9148 86.3189 42.968 86.2602 43.023 86.2236C43.0816 86.1869 43.1531 86.1686 43.2375 86.1686H44.7995L42.9625 88.8471L44.8765 91.8721ZM47.1089 83.6386V91.8721H45.4039V83.6386H47.1089ZM51.8858 87.4171C51.8418 87.4867 51.7941 87.5362 51.7428 87.5656C51.6951 87.5949 51.6328 87.6096 51.5558 87.6096C51.4751 87.6096 51.3944 87.5931 51.3138 87.5601C51.2331 87.5234 51.1451 87.4849 51.0498 87.4446C50.9581 87.4042 50.8536 87.3676 50.7363 87.3346C50.6189 87.2979 50.4851 87.2796 50.3348 87.2796C50.1184 87.2796 49.9516 87.3217 49.8343 87.4061C49.7206 87.4867 49.6638 87.6004 49.6638 87.7471C49.6638 87.8534 49.7004 87.9414 49.7738 88.0111C49.8508 88.0807 49.9516 88.1431 50.0763 88.1981C50.2009 88.2494 50.3421 88.2989 50.4998 88.3466C50.6574 88.3942 50.8188 88.4474 50.9838 88.5061C51.1488 88.5647 51.3101 88.6344 51.4678 88.7151C51.6254 88.7921 51.7666 88.8892 51.8913 89.0066C52.0159 89.1202 52.1149 89.2596 52.1883 89.4246C52.2653 89.5896 52.3038 89.7876 52.3038 90.0186C52.3038 90.3009 52.2524 90.5612 52.1498 90.7996C52.0471 91.0379 51.8931 91.2432 51.6878 91.4156C51.4861 91.5879 51.2349 91.7217 50.9343 91.8171C50.6373 91.9124 50.2944 91.9601 49.9058 91.9601C49.7114 91.9601 49.5171 91.9417 49.3228 91.9051C49.1284 91.8684 48.9396 91.8189 48.7563 91.7566C48.5766 91.6942 48.4098 91.6209 48.2558 91.5366C48.1018 91.4486 47.9698 91.3551 47.8598 91.2561L48.2558 90.6291C48.2998 90.5557 48.3548 90.4989 48.4208 90.4586C48.4904 90.4146 48.5784 90.3926 48.6848 90.3926C48.7838 90.3926 48.8718 90.4146 48.9488 90.4586C49.0294 90.5026 49.1156 90.5502 49.2073 90.6016C49.2989 90.6529 49.4053 90.7006 49.5263 90.7446C49.6509 90.7886 49.8068 90.8106 49.9938 90.8106C50.1258 90.8106 50.2376 90.7977 50.3293 90.7721C50.4209 90.7427 50.4943 90.7042 50.5493 90.6566C50.6043 90.6089 50.6446 90.5557 50.6703 90.4971C50.6959 90.4384 50.7088 90.3779 50.7088 90.3156C50.7088 90.2019 50.6703 90.1084 50.5933 90.0351C50.5163 89.9617 50.4154 89.8994 50.2908 89.8481C50.1661 89.7931 50.0231 89.7436 49.8618 89.6996C49.7041 89.6519 49.5428 89.5987 49.3778 89.5401C49.2128 89.4814 49.0496 89.4117 48.8883 89.3311C48.7306 89.2467 48.5894 89.1422 48.4648 89.0176C48.3401 88.8892 48.2393 88.7334 48.1623 88.5501C48.0853 88.3667 48.0468 88.1449 48.0468 87.8846C48.0468 87.6426 48.0926 87.4134 48.1843 87.1971C48.2796 86.9771 48.4208 86.7846 48.6078 86.6196C48.7948 86.4546 49.0294 86.3244 49.3118 86.2291C49.5941 86.1301 49.9241 86.0806 50.3018 86.0806C50.5071 86.0806 50.7051 86.0989 50.8958 86.1356C51.0901 86.1722 51.2716 86.2236 51.4403 86.2896C51.6089 86.3556 51.7629 86.4344 51.9023 86.5261C52.0416 86.6141 52.1644 86.7112 52.2708 86.8176L51.8858 87.4171ZM58.6157 91.8721H56.9767C56.8557 91.8721 56.7567 91.8427 56.6797 91.7841C56.6064 91.7254 56.5477 91.6557 56.5037 91.5751L55.4862 89.8261C55.4679 89.8884 55.4459 89.9471 55.4202 90.0021C55.3945 90.0571 55.367 90.1084 55.3377 90.1561L54.5017 91.5751C54.4504 91.6484 54.3899 91.7162 54.3202 91.7786C54.2505 91.8409 54.1607 91.8721 54.0507 91.8721H52.5327L54.4467 88.9241L52.6097 86.1686H54.2487C54.3697 86.1686 54.4577 86.1851 54.5127 86.2181C54.5714 86.2474 54.6227 86.2987 54.6667 86.3721L55.6842 88.0606C55.7062 87.9946 55.7337 87.9304 55.7667 87.8681C55.7997 87.8021 55.8364 87.7361 55.8767 87.6701L56.6027 86.3996C56.654 86.3189 56.7072 86.2602 56.7622 86.2236C56.8209 86.1869 56.8924 86.1686 56.9767 86.1686H58.5387L56.7017 88.8471L58.6157 91.8721Z" fill="white"/>
<path d="M49.4569 1.90019L3.16418 2.10249C2.73304 2.10433 2.30648 2.19112 1.90887 2.35791C1.51126 2.52471 1.15038 2.76823 0.846842 3.07458C0.543302 3.38093 0.303049 3.7441 0.139802 4.14336C-0.023446 4.54262 -0.10649 4.97014 -0.104589 5.40152L0.212718 78.0224C0.214558 78.4538 0.301308 78.8806 0.468012 79.2784C0.634717 79.6762 0.878111 80.0373 1.1843 80.341C1.49048 80.6447 1.85346 80.8851 2.2525 81.0484C2.65155 81.2118 3.07884 81.2949 3.50998 81.293L59.8024 81.0474C60.6732 81.0435 61.5067 80.6937 62.1197 80.0749C62.7327 79.4562 63.0749 78.6192 63.0712 77.7479L62.7976 15.1321L49.4569 1.90019Z" fill="#34C759"/>
<path d="M49.5622 11.9394C49.5644 12.8105 49.9122 13.6451 50.5292 14.2597C51.1463 14.8743 51.982 15.2185 52.8527 15.2167L62.8511 15.1938L49.5392 1.93555L49.5622 11.9394Z" fill="#22853B"/>
<path d="M36.4269 20.3504L8.11746 20.4153C7.74965 20.4151 7.39688 20.2692 7.1362 20.0096C6.87553 19.75 6.72815 19.3977 6.72624 19.0297C6.72659 18.6617 6.87243 18.3089 7.13191 18.0482C7.39139 17.7874 7.74343 17.64 8.11116 17.6381L36.4206 17.5732C36.7888 17.5734 37.1419 17.7194 37.4026 17.9795C37.6634 18.2395 37.8105 18.5924 37.8118 18.9607C37.8109 19.3283 37.6648 19.6806 37.4054 19.9409C37.146 20.2012 36.7943 20.3484 36.4269 20.3504Z" fill="#231F20"/>
<path d="M54.851 27.3758L8.05036 27.4835C7.68263 27.4832 7.32997 27.3372 7.06939 27.0776C6.80882 26.818 6.6615 26.4658 6.65959 26.0979C6.65982 25.73 6.80556 25.3771 7.06497 25.1164C7.32438 24.8557 7.67637 24.7082 8.04406 24.7063L54.8447 24.5986C55.2125 24.599 55.5652 24.7449 55.8258 25.0045C56.0865 25.2641 56.2339 25.6163 56.2359 25.9843C56.2357 26.3523 56.0899 26.7052 55.8304 26.9659C55.5709 27.2267 55.2188 27.374 54.851 27.3758Z" fill="#231F20"/>
<path d="M54.8672 34.4446L8.06657 34.5523C7.6986 34.5519 7.34574 34.4058 7.08512 34.1459C6.82451 33.886 6.67734 33.5334 6.6758 33.1652C6.67591 32.7973 6.82161 32.4444 7.08104 32.1836C7.34047 31.9229 7.69254 31.7755 8.06026 31.7737L54.8609 31.666C55.2287 31.6662 55.5815 31.8121 55.8422 32.0717C56.1028 32.3314 56.2502 32.6837 56.2521 33.0517C56.2523 33.4199 56.1066 33.7731 55.8471 34.0342C55.5875 34.2952 55.2352 34.4428 54.8672 34.4446Z" fill="#231F20"/>
<path d="M54.8834 41.5125L8.08277 41.6202C7.71507 41.6197 7.36248 41.4737 7.10193 41.2141C6.84138 40.9546 6.69402 40.6024 6.692 40.2345C6.69188 39.8663 6.8376 39.513 7.09725 39.252C7.3569 38.991 7.70933 38.8436 8.07737 38.8421L54.878 38.7344C55.2458 38.735 55.5983 38.8811 55.8587 39.1409C56.1191 39.4007 56.2662 39.753 56.2679 40.1209C56.2677 40.4888 56.1219 40.8417 55.8625 41.1024C55.6031 41.3631 55.2511 41.5106 54.8834 41.5125Z" fill="#231F20"/>
<path d="M54.8997 48.5829L8.09899 48.6906C7.73129 48.6901 7.3787 48.5441 7.11815 48.2845C6.8576 48.0249 6.71024 47.6728 6.70822 47.3049C6.70834 46.937 6.85404 46.584 7.11347 46.3233C7.3729 46.0625 7.72496 45.9152 8.09269 45.9134L54.8933 45.8057C55.2612 45.8059 55.6139 45.9518 55.8746 46.2114C56.1353 46.471 56.2827 46.8233 56.2846 47.1913C56.2842 47.5593 56.1384 47.9121 55.8789 48.1728C55.6194 48.4335 55.2674 48.5809 54.8997 48.5829Z" fill="#231F20"/>
<path d="M54.9168 55.6512L8.11611 55.7585C7.74854 55.7581 7.39604 55.6122 7.13562 55.3527C6.8752 55.0931 6.72803 54.741 6.72624 54.3732C6.72636 54.0053 6.87204 53.6523 7.13146 53.3915C7.39088 53.1307 7.74294 52.9832 8.11071 52.9813L54.9114 52.874C55.2792 52.8743 55.6319 53.0201 55.8926 53.2798C56.1533 53.5394 56.3007 53.8917 56.3026 54.2597C56.3022 54.6278 56.1563 54.9808 55.8966 55.2415C55.6369 55.5022 55.2847 55.6495 54.9168 55.6512Z" fill="#231F20"/>
<path d="M22.3838 73.0086C22.3838 72.8766 22.4076 72.7537 22.4553 72.6401C22.5066 72.5264 22.5744 72.4274 22.6588 72.3431C22.7468 72.2587 22.8494 72.1927 22.9668 72.1451C23.0841 72.0937 23.2124 72.0681 23.3518 72.0681C23.4874 72.0681 23.6139 72.0937 23.7313 72.1451C23.8486 72.1927 23.9513 72.2587 24.0393 72.3431C24.1273 72.4274 24.1951 72.5264 24.2428 72.6401C24.2941 72.7537 24.3198 72.8766 24.3198 73.0086C24.3198 73.1406 24.2941 73.2652 24.2428 73.3826C24.1951 73.4962 24.1273 73.5952 24.0393 73.6796C23.9513 73.7639 23.8486 73.8299 23.7313 73.8776C23.6139 73.9252 23.4874 73.9491 23.3518 73.9491C23.2124 73.9491 23.0841 73.9252 22.9668 73.8776C22.8494 73.8299 22.7468 73.7639 22.6588 73.6796C22.5744 73.5952 22.5066 73.4962 22.4553 73.3826C22.4076 73.2652 22.3838 73.1406 22.3838 73.0086ZM29.4376 69.5216C29.3863 69.5839 29.3368 69.6334 29.2891 69.6701C29.2414 69.7067 29.1736 69.7251 29.0856 69.7251C29.0013 69.7251 28.9243 69.7049 28.8546 69.6646C28.7886 69.6242 28.7134 69.5802 28.6291 69.5326C28.5448 69.4812 28.4458 69.4354 28.3321 69.3951C28.2184 69.3547 28.0773 69.3346 27.9086 69.3346C27.6996 69.3346 27.5181 69.3731 27.3641 69.4501C27.2138 69.5271 27.0891 69.6371 26.9901 69.7801C26.8911 69.9231 26.8178 70.0991 26.7701 70.3081C26.7224 70.5134 26.6986 70.7462 26.6986 71.0066C26.6986 71.5529 26.8031 71.9727 27.0121 72.2661C27.2248 72.5594 27.5163 72.7061 27.8866 72.7061C28.0846 72.7061 28.2404 72.6822 28.3541 72.6346C28.4714 72.5832 28.5704 72.5282 28.6511 72.4696C28.7318 72.4072 28.8051 72.3504 28.8711 72.2991C28.9408 72.2477 29.0269 72.2221 29.1296 72.2221C29.2653 72.2221 29.3679 72.2716 29.4376 72.3706L29.9326 72.9811C29.7566 73.1827 29.5714 73.3477 29.3771 73.4761C29.1828 73.6007 28.9829 73.6997 28.7776 73.7731C28.5759 73.8427 28.3724 73.8904 28.1671 73.9161C27.9618 73.9454 27.7619 73.9601 27.5676 73.9601C27.2193 73.9601 26.8856 73.8941 26.5666 73.7621C26.2513 73.6301 25.9726 73.4394 25.7306 73.1901C25.4923 72.9371 25.3016 72.6272 25.1586 72.2606C25.0193 71.8939 24.9496 71.4759 24.9496 71.0066C24.9496 70.5959 25.0101 70.2127 25.1311 69.8571C25.2558 69.4977 25.4373 69.1879 25.6756 68.9276C25.9176 68.6636 26.2146 68.4564 26.5666 68.3061C26.9223 68.1557 27.3329 68.0806 27.7986 68.0806C28.2459 68.0806 28.6383 68.1521 28.9756 68.2951C29.3129 68.4381 29.6173 68.6471 29.8886 68.9221L29.4376 69.5216ZM34.2207 69.4171C34.1767 69.4867 34.1291 69.5362 34.0777 69.5656C34.0301 69.5949 33.9677 69.6096 33.8907 69.6096C33.8101 69.6096 33.7294 69.5931 33.6487 69.5601C33.5681 69.5234 33.4801 69.4849 33.3847 69.4446C33.2931 69.4042 33.1886 69.3676 33.0712 69.3346C32.9539 69.2979 32.8201 69.2796 32.6697 69.2796C32.4534 69.2796 32.2866 69.3217 32.1692 69.4061C32.0556 69.4867 31.9987 69.6004 31.9987 69.7471C31.9987 69.8534 32.0354 69.9414 32.1087 70.0111C32.1857 70.0807 32.2866 70.1431 32.4112 70.1981C32.5359 70.2494 32.6771 70.2989 32.8347 70.3466C32.9924 70.3942 33.1537 70.4474 33.3187 70.5061C33.4837 70.5647 33.6451 70.6344 33.8027 70.7151C33.9604 70.7921 34.1016 70.8892 34.2262 71.0066C34.3509 71.1202 34.4499 71.2596 34.5232 71.4246C34.6002 71.5896 34.6387 71.7876 34.6387 72.0186C34.6387 72.3009 34.5874 72.5612 34.4847 72.7996C34.3821 73.0379 34.2281 73.2432 34.0227 73.4156C33.8211 73.5879 33.5699 73.7217 33.2692 73.8171C32.9722 73.9124 32.6294 73.9601 32.2407 73.9601C32.0464 73.9601 31.8521 73.9417 31.6577 73.9051C31.4634 73.8684 31.2746 73.8189 31.0912 73.7566C30.9116 73.6942 30.7447 73.6209 30.5907 73.5366C30.4367 73.4486 30.3047 73.3551 30.1947 73.2561L30.5907 72.6291C30.6347 72.5557 30.6897 72.4989 30.7557 72.4586C30.8254 72.4146 30.9134 72.3926 31.0197 72.3926C31.1187 72.3926 31.2067 72.4146 31.2837 72.4586C31.3644 72.5026 31.4506 72.5502 31.5422 72.6016C31.6339 72.6529 31.7402 72.7006 31.8612 72.7446C31.9859 72.7886 32.1417 72.8106 32.3287 72.8106C32.4607 72.8106 32.5726 72.7977 32.6642 72.7721C32.7559 72.7427 32.8292 72.7042 32.8842 72.6566C32.9392 72.6089 32.9796 72.5557 33.0052 72.4971C33.0309 72.4384 33.0437 72.3779 33.0437 72.3156C33.0437 72.2019 33.0052 72.1084 32.9282 72.0351C32.8512 71.9617 32.7504 71.8994 32.6257 71.8481C32.5011 71.7931 32.3581 71.7436 32.1967 71.6996C32.0391 71.6519 31.8777 71.5987 31.7127 71.5401C31.5477 71.4814 31.3846 71.4117 31.2232 71.3311C31.0656 71.2467 30.9244 71.1422 30.7997 71.0176C30.6751 70.8892 30.5742 70.7334 30.4972 70.5501C30.4202 70.3667 30.3817 70.1449 30.3817 69.8846C30.3817 69.6426 30.4276 69.4134 30.5192 69.1971C30.6146 68.9771 30.7557 68.7846 30.9427 68.6196C31.1297 68.4546 31.3644 68.3244 31.6467 68.2291C31.9291 68.1301 32.2591 68.0806 32.6367 68.0806C32.8421 68.0806 33.0401 68.0989 33.2307 68.1356C33.4251 68.1722 33.6066 68.2236 33.7752 68.2896C33.9439 68.3556 34.0979 68.4344 34.2372 68.5261C34.3766 68.6141 34.4994 68.7112 34.6057 68.8176L34.2207 69.4171ZM40.7607 68.1686L38.5497 73.8721H36.9987L34.7877 68.1686H36.2067C36.3277 68.1686 36.4286 68.1979 36.5092 68.2566C36.5936 68.3116 36.6504 68.3812 36.6797 68.4656L37.4717 71.0231C37.5414 71.2321 37.6019 71.4356 37.6532 71.6336C37.7082 71.8316 37.7559 72.0296 37.7962 72.2276C37.8769 71.8316 37.9887 71.4301 38.1317 71.0231L38.9567 68.4656C38.9861 68.3812 39.0411 68.3116 39.1217 68.2566C39.2024 68.1979 39.2977 68.1686 39.4077 68.1686H40.7607Z" fill="#231F20"/>
<path d="M162.695 236.617L100.436 233.248C100.355 233.243 100.279 233.207 100.225 233.147C100.171 233.086 100.144 233.007 100.148 232.926L104.487 152.768C104.487 152.768 104.487 152.768 104.487 152.768C104.492 152.687 104.528 152.611 104.588 152.557C104.648 152.503 104.727 152.475 104.808 152.479C104.808 152.479 104.808 152.479 104.808 152.48L167.067 155.849C167.067 155.849 167.067 155.849 167.067 155.849C167.107 155.851 167.147 155.861 167.183 155.878C167.219 155.895 167.251 155.92 167.278 155.949C167.305 155.979 167.325 156.014 167.339 156.052C167.352 156.09 167.358 156.13 167.356 156.17L163.016 236.328C163.012 236.409 162.975 236.485 162.915 236.539C162.855 236.593 162.776 236.621 162.696 236.617C162.695 236.617 162.695 236.617 162.695 236.617Z" fill="#1B1C21" stroke="#B3C9B6" stroke-width="2.5"/>
<path d="M118.44 169.661L109.076 169.154L107.956 189.835L117.32 190.342L118.44 169.661Z" fill="#34C759"/>
<path d="M129.553 180.635L120.189 180.128L119.629 190.469L128.993 190.976L129.553 180.635Z" fill="#34C759"/>
<path d="M141.44 177.301L132.076 176.794L131.302 191.1L140.665 191.607L141.44 177.301Z" fill="#34C759"/>
<path d="M146.813 174.792C147.216 174.575 147.367 174.073 147.15 173.67C146.933 173.268 146.431 173.117 146.029 173.333C145.626 173.55 145.475 174.052 145.691 174.455C145.908 174.858 146.41 175.009 146.813 174.792Z" fill="#34C759"/>
<path d="M160.942 175.676L149.27 175.044C149.051 175.032 148.845 174.933 148.699 174.77C148.552 174.606 148.476 174.391 148.488 174.172C148.5 173.953 148.599 173.748 148.762 173.601C148.926 173.454 149.14 173.379 149.36 173.39L161.032 174.022C161.252 174.034 161.457 174.133 161.604 174.296C161.75 174.46 161.826 174.674 161.815 174.894C161.802 175.113 161.703 175.318 161.54 175.465C161.377 175.612 161.162 175.687 160.942 175.676Z" fill="#B3C9B6"/>
<path d="M160.781 178.668L146.214 177.879C145.995 177.867 145.789 177.768 145.643 177.605C145.496 177.441 145.42 177.226 145.432 177.007C145.444 176.788 145.543 176.583 145.706 176.436C145.87 176.289 146.085 176.214 146.304 176.225L160.871 177.013C161.09 177.026 161.295 177.124 161.442 177.288C161.588 177.451 161.664 177.666 161.653 177.885C161.64 178.105 161.542 178.31 161.378 178.457C161.215 178.603 161 178.679 160.781 178.668Z" fill="#B3C9B6"/>
<path d="M146.597 181.67C146.936 181.364 146.964 180.84 146.658 180.5C146.352 180.161 145.828 180.133 145.488 180.439C145.148 180.745 145.121 181.269 145.427 181.609C145.733 181.948 146.257 181.976 146.597 181.67Z" fill="#34C759"/>
<path d="M160.564 182.669L148.891 182.037C148.672 182.025 148.467 181.926 148.32 181.763C148.174 181.6 148.098 181.385 148.109 181.165C148.122 180.946 148.22 180.741 148.384 180.594C148.547 180.448 148.762 180.372 148.981 180.383L160.654 181.015C160.873 181.027 161.079 181.126 161.225 181.289C161.372 181.453 161.448 181.668 161.436 181.887C161.424 182.106 161.325 182.311 161.162 182.458C160.998 182.605 160.783 182.681 160.564 182.669Z" fill="#B3C9B6"/>
<path d="M160.402 185.66L145.835 184.871C145.616 184.859 145.411 184.76 145.265 184.597C145.118 184.433 145.042 184.219 145.054 183.999C145.066 183.78 145.165 183.575 145.328 183.428C145.492 183.282 145.707 183.206 145.926 183.217L160.492 184.006C160.711 184.018 160.917 184.117 161.063 184.28C161.21 184.443 161.286 184.658 161.274 184.878C161.262 185.097 161.163 185.302 161 185.449C160.836 185.595 160.621 185.671 160.402 185.66Z" fill="#B3C9B6"/>
<path d="M146.491 188.128C146.535 187.673 146.201 187.268 145.746 187.225C145.291 187.181 144.886 187.514 144.842 187.97C144.799 188.425 145.132 188.829 145.587 188.873C146.043 188.917 146.447 188.583 146.491 188.128Z" fill="#34C759"/>
<path d="M160.186 189.661L148.513 189.03C148.294 189.017 148.088 188.919 147.942 188.755C147.795 188.592 147.719 188.377 147.731 188.158C147.743 187.938 147.842 187.733 148.005 187.586C148.169 187.44 148.384 187.364 148.603 187.375L160.275 188.008C160.495 188.02 160.7 188.119 160.847 188.282C160.993 188.445 161.069 188.66 161.058 188.88C161.045 189.099 160.946 189.304 160.783 189.45C160.619 189.597 160.405 189.673 160.186 189.661Z" fill="#B3C9B6"/>
<path d="M160.024 192.652L145.458 191.863C145.239 191.85 145.034 191.751 144.888 191.588C144.742 191.424 144.666 191.21 144.678 190.991C144.69 190.772 144.789 190.567 144.952 190.42C145.116 190.274 145.331 190.198 145.55 190.209L160.116 190.997C160.335 191.01 160.541 191.108 160.687 191.272C160.834 191.435 160.91 191.65 160.898 191.869C160.892 191.978 160.865 192.085 160.818 192.183C160.77 192.281 160.704 192.369 160.623 192.442C160.542 192.515 160.447 192.571 160.344 192.607C160.242 192.643 160.133 192.658 160.024 192.652Z" fill="#B3C9B6"/>
<path d="M120.936 198.823L108.678 198.16C108.369 198.142 108.079 198.003 107.872 197.772C107.665 197.542 107.558 197.238 107.574 196.929C107.592 196.62 107.731 196.33 107.962 196.123C108.192 195.916 108.495 195.809 108.804 195.825L121.062 196.489C121.371 196.506 121.661 196.646 121.868 196.876C122.075 197.106 122.182 197.409 122.166 197.719C122.148 198.028 122.009 198.318 121.779 198.525C121.548 198.731 121.245 198.839 120.936 198.823Z" fill="#34C759"/>
<path d="M158.92 206.731L108.362 203.995C108.053 203.977 107.763 203.838 107.556 203.607C107.35 203.376 107.242 203.073 107.258 202.764C107.276 202.455 107.415 202.165 107.646 201.958C107.876 201.751 108.179 201.644 108.489 201.66L159.047 204.396C159.356 204.414 159.646 204.553 159.853 204.783C160.059 205.014 160.167 205.317 160.151 205.626C160.133 205.936 159.994 206.225 159.763 206.432C159.533 206.639 159.23 206.746 158.92 206.731Z" fill="#B3C9B6"/>
<path d="M158.605 212.566L108.048 209.83C107.738 209.813 107.449 209.673 107.242 209.443C107.035 209.212 106.928 208.909 106.944 208.6C106.961 208.291 107.101 208.001 107.331 207.794C107.562 207.587 107.865 207.48 108.174 207.496L158.732 210.232C159.042 210.249 159.331 210.389 159.538 210.619C159.745 210.85 159.852 211.153 159.836 211.462C159.819 211.772 159.679 212.062 159.448 212.269C159.218 212.475 158.914 212.583 158.605 212.566Z" fill="#B3C9B6"/>
<path d="M158.289 218.404L107.731 215.668C107.421 215.651 107.132 215.511 106.925 215.281C106.718 215.05 106.611 214.747 106.627 214.438C106.644 214.129 106.783 213.839 107.014 213.632C107.244 213.425 107.547 213.318 107.857 213.334L158.415 216.07C158.724 216.087 159.014 216.227 159.22 216.457C159.427 216.688 159.535 216.991 159.519 217.3C159.501 217.609 159.362 217.899 159.131 218.106C158.901 218.313 158.598 218.42 158.289 218.404Z" fill="#B3C9B6"/>
<path d="M152.015 223.917L107.415 221.504C107.105 221.486 106.816 221.347 106.609 221.116C106.402 220.886 106.295 220.583 106.311 220.274C106.328 219.964 106.467 219.675 106.698 219.468C106.929 219.261 107.232 219.154 107.541 219.17L152.141 221.583C152.451 221.601 152.74 221.74 152.947 221.97C153.154 222.201 153.261 222.504 153.245 222.813C153.228 223.123 153.089 223.412 152.858 223.619C152.628 223.826 152.325 223.933 152.015 223.917Z" fill="#B3C9B6"/>
<path d="M123.891 160.887L110.734 160.175C110.424 160.157 110.135 160.018 109.928 159.788C109.721 159.557 109.614 159.254 109.63 158.945C109.647 158.635 109.787 158.346 110.017 158.139C110.248 157.932 110.551 157.825 110.86 157.841L124.017 158.553C124.326 158.57 124.616 158.709 124.823 158.94C125.03 159.17 125.138 159.473 125.122 159.783C125.104 160.092 124.965 160.382 124.734 160.589C124.504 160.796 124.201 160.903 123.891 160.887Z" fill="#34C759"/>
<path d="M161.015 168.018L114.834 165.518C114.525 165.501 114.235 165.362 114.029 165.131C113.822 164.901 113.714 164.598 113.73 164.288C113.748 163.979 113.887 163.689 114.118 163.482C114.348 163.276 114.651 163.168 114.961 163.184L161.142 165.683C161.451 165.701 161.74 165.84 161.947 166.071C162.154 166.301 162.261 166.604 162.246 166.914C162.228 167.223 162.089 167.513 161.858 167.719C161.628 167.926 161.324 168.034 161.015 168.018Z" fill="#B3C9B6"/>
<path d="M144.832 234.5L77.3012 237.924C76.8546 237.947 76.4175 237.791 76.0858 237.491C75.7542 237.191 75.5552 236.772 75.5326 236.325L71.1263 149.381C71.1037 148.935 71.2592 148.498 71.5586 148.166C71.8581 147.834 72.277 147.635 72.7233 147.612L140.254 144.188C140.475 144.177 140.696 144.209 140.905 144.283C141.114 144.358 141.306 144.472 141.47 144.621C141.634 144.769 141.768 144.949 141.863 145.149C141.958 145.349 142.012 145.566 142.024 145.787L146.43 232.73C146.452 233.177 146.297 233.614 145.997 233.946C145.698 234.278 145.278 234.477 144.832 234.5Z" fill="#34C759"/>
<path d="M89.4435 165.951L79.287 166.466L80.4234 188.897L90.5798 188.383L89.4435 165.951Z" fill="#231F20"/>
<path d="M102.672 176.526L92.5159 177.04L93.0841 188.256L103.241 187.742L102.672 176.526Z" fill="#231F20"/>
<path d="M115.115 171.584L104.959 172.099L105.745 187.615L115.901 187.101L115.115 171.584Z" fill="#231F20"/>
<path d="M120.625 168.269C121.035 167.989 121.141 167.431 120.862 167.021C120.582 166.611 120.024 166.505 119.614 166.784C119.204 167.064 119.098 167.622 119.378 168.032C119.657 168.442 120.215 168.548 120.625 168.269Z" fill="#231F20"/>
<path d="M135.964 167.621L123.304 168.263C123.066 168.274 122.833 168.191 122.657 168.031C122.48 167.872 122.374 167.649 122.361 167.411C122.35 167.173 122.433 166.94 122.593 166.764C122.752 166.587 122.975 166.481 123.213 166.469L135.874 165.827C136.112 165.815 136.344 165.898 136.521 166.058C136.698 166.217 136.804 166.441 136.816 166.678C136.828 166.916 136.745 167.149 136.585 167.326C136.425 167.502 136.202 167.608 135.964 167.621Z" fill="#231F20"/>
<path d="M136.129 170.864L120.329 171.665C120.091 171.677 119.859 171.593 119.682 171.434C119.506 171.274 119.399 171.051 119.387 170.813C119.375 170.575 119.459 170.343 119.618 170.166C119.778 169.989 120.001 169.883 120.239 169.871L136.038 169.07C136.276 169.058 136.509 169.142 136.686 169.301C136.862 169.461 136.968 169.684 136.981 169.922C136.992 170.16 136.909 170.392 136.749 170.569C136.59 170.745 136.367 170.852 136.129 170.864Z" fill="#231F20"/>
<path d="M121.172 175.711C121.503 175.343 121.474 174.775 121.105 174.443C120.737 174.111 120.169 174.141 119.837 174.509C119.505 174.878 119.535 175.446 119.903 175.778C120.272 176.109 120.84 176.08 121.172 175.711Z" fill="#231F20"/>
<path d="M136.349 175.205L123.688 175.847C123.45 175.858 123.218 175.775 123.041 175.615C122.864 175.456 122.758 175.233 122.746 174.995C122.734 174.757 122.817 174.524 122.977 174.348C123.137 174.171 123.36 174.065 123.598 174.053L136.258 173.411C136.496 173.399 136.729 173.482 136.906 173.642C137.082 173.801 137.188 174.025 137.201 174.262C137.212 174.5 137.129 174.733 136.969 174.909C136.81 175.086 136.587 175.192 136.349 175.205Z" fill="#231F20"/>
<path d="M136.513 178.449L120.714 179.25C120.476 179.261 120.243 179.178 120.067 179.019C119.89 178.859 119.784 178.636 119.772 178.398C119.76 178.16 119.843 177.928 120.003 177.751C120.163 177.574 120.386 177.468 120.624 177.456L136.423 176.655C136.661 176.643 136.893 176.726 137.07 176.886C137.247 177.046 137.353 177.269 137.365 177.507C137.377 177.745 137.294 177.977 137.134 178.154C136.974 178.33 136.751 178.437 136.513 178.449Z" fill="#231F20"/>
<path d="M121.79 182.689C121.785 182.193 121.38 181.794 120.884 181.799C120.388 181.803 119.989 182.209 119.994 182.705C119.998 183.201 120.404 183.599 120.9 183.595C121.396 183.59 121.794 183.185 121.79 182.689Z" fill="#231F20"/>
<path d="M136.733 182.791L124.073 183.433C123.835 183.444 123.602 183.361 123.425 183.201C123.249 183.042 123.143 182.819 123.13 182.581C123.119 182.343 123.202 182.11 123.362 181.934C123.521 181.757 123.744 181.651 123.982 181.638L136.643 180.997C136.881 180.985 137.113 181.069 137.29 181.228C137.467 181.388 137.573 181.611 137.585 181.849C137.597 182.087 137.513 182.319 137.354 182.496C137.194 182.672 136.971 182.778 136.733 182.791Z" fill="#231F20"/>
<path d="M136.898 186.034L121.099 186.834C120.861 186.845 120.629 186.761 120.453 186.601C120.277 186.442 120.171 186.219 120.159 185.982C120.147 185.744 120.231 185.511 120.39 185.335C120.55 185.158 120.773 185.052 121.011 185.04L136.81 184.238C137.048 184.227 137.28 184.31 137.457 184.47C137.634 184.629 137.74 184.852 137.752 185.09C137.758 185.208 137.741 185.326 137.701 185.438C137.661 185.549 137.6 185.651 137.52 185.739C137.441 185.826 137.345 185.898 137.238 185.948C137.132 185.999 137.016 186.028 136.898 186.034Z" fill="#231F20"/>
<path d="M95.4403 197.12L82.1455 197.794C81.8099 197.81 81.4816 197.693 81.2323 197.467C80.983 197.242 80.8331 196.927 80.8152 196.592C80.7992 196.256 80.9166 195.928 81.1417 195.679C81.3668 195.43 81.6814 195.28 82.0167 195.262L95.3122 194.588C95.6476 194.572 95.9758 194.689 96.225 194.914C96.4742 195.14 96.6243 195.454 96.6424 195.789C96.6584 196.125 96.5409 196.453 96.3157 196.702C96.0905 196.952 95.7758 197.102 95.4403 197.12Z" fill="#231F20"/>
<path d="M137.304 201.345L82.4662 204.125C82.1307 204.141 81.8024 204.024 81.5532 203.798C81.304 203.573 81.154 203.258 81.136 202.923C81.12 202.587 81.2374 202.259 81.4627 202.01C81.6879 201.761 82.0026 201.611 82.338 201.593L137.175 198.812C137.511 198.796 137.839 198.914 138.088 199.139C138.338 199.364 138.488 199.679 138.506 200.014C138.522 200.35 138.404 200.678 138.179 200.927C137.954 201.177 137.639 201.327 137.304 201.345Z" fill="#231F20"/>
<path d="M137.625 207.673L82.7885 210.453C82.453 210.469 82.1248 210.351 81.8756 210.126C81.6264 209.901 81.4764 209.586 81.4583 209.251C81.4424 208.916 81.5599 208.587 81.7851 208.338C82.0103 208.089 82.3249 207.939 82.6603 207.921L137.498 205.141C137.833 205.124 138.162 205.242 138.411 205.467C138.66 205.692 138.81 206.007 138.828 206.343C138.844 206.678 138.726 207.007 138.501 207.256C138.276 207.505 137.961 207.655 137.625 207.673Z" fill="#231F20"/>
<path d="M137.946 214.003L83.1083 216.783C82.7728 216.799 82.4445 216.682 82.1953 216.457C81.946 216.231 81.7961 215.917 81.7781 215.581C81.7618 215.246 81.8791 214.917 82.1043 214.668C82.3294 214.419 82.6442 214.269 82.9796 214.251L137.817 211.471C138.153 211.455 138.481 211.572 138.73 211.797C138.979 212.022 139.129 212.337 139.147 212.672C139.163 213.008 139.046 213.336 138.821 213.585C138.596 213.835 138.281 213.985 137.946 214.003Z" fill="#231F20"/>
<path d="M131.805 220.662L83.429 223.115C83.0935 223.131 82.7653 223.013 82.5161 222.788C82.2669 222.563 82.1169 222.249 82.0988 221.913C82.0826 221.578 82.2 221.249 82.4253 221C82.6505 220.751 82.9653 220.601 83.3008 220.583L131.676 218.13C132.012 218.114 132.34 218.231 132.589 218.457C132.838 218.682 132.988 218.996 133.006 219.332C133.022 219.667 132.905 219.996 132.68 220.245C132.455 220.494 132.14 220.644 131.805 220.662Z" fill="#231F20"/>
<path d="M94.3275 155.87L80.0564 156.594C79.7209 156.61 79.3927 156.492 79.1435 156.267C78.8943 156.042 78.7443 155.727 78.7262 155.392C78.7102 155.056 78.8276 154.728 79.0528 154.479C79.2781 154.229 79.5928 154.079 79.9282 154.061L94.1988 153.338C94.5344 153.322 94.8629 153.439 95.1123 153.664C95.3617 153.889 95.5117 154.204 95.5295 154.54C95.5458 154.875 95.4285 155.204 95.2032 155.453C94.9779 155.702 94.6631 155.852 94.3275 155.87Z" fill="#231F20"/>
<path d="M135.175 159.353L85.0851 161.892C84.7496 161.908 84.4213 161.791 84.172 161.566C83.9227 161.341 83.7728 161.026 83.7549 160.691C83.7387 160.355 83.8559 160.027 84.0811 159.777C84.3063 159.528 84.621 159.378 84.9564 159.36L135.046 156.82C135.382 156.804 135.71 156.922 135.959 157.147C136.209 157.372 136.359 157.687 136.377 158.022C136.393 158.358 136.275 158.686 136.05 158.935C135.825 159.185 135.51 159.335 135.175 159.353Z" fill="#231F20"/>
</g>
<defs>
<clipPath id="clip0_6212_22346">
<rect width="240" height="240" fill="white"/>
</clipPath>
</defs>
</svg>
