<svg width="600" height="400" xmlns="http://www.w3.org/2000/svg" xmlns:xlink="http://www.w3.org/1999/xlink" version="1.1" baseProfile="full" viewBox="0 0 600 400">
<rect width="600" height="400" x="0" y="0" fill="none"></rect>
<polyline points="159.5 227.6 145.4 222.3 130.4 222.3" fill="transparent" stroke="#5470c6" class="zr0-cls-0"></polyline>
<polyline points="278.7 131.5 276.5 116.7 261.5 116.7" fill="transparent" stroke="#91cc75" class="zr0-cls-0"></polyline>
<polyline points="431.7 208.1 444.8 200.9 459.8 200.9" fill="transparent" stroke="#fac858" class="zr0-cls-0"></polyline>
<path d="M400 240A100 100 0 0 1 394.3883 273.0279L366.0718 263.1195A70 70 0 0 0 370 240Z" fill="#5470c6" class="zr0-cls-1"></path>
<path d="M394.3883 273.0279A100 100 0 0 1 300 340L300 310A70 70 0 0 0 366.0718 263.1195Z" fill="#91cc75" class="zr0-cls-2"></path>
<path d="M300 340A100 100 0 0 1 200 240L230 240A70 70 0 0 0 300 310Z" fill="#fac858" class="zr0-cls-3"></path>
<path d="M150 280A150 150 0 0 1 186.6376 181.7709L201.7526 194.8681A130 130 0 0 0 170 280Z" fill="#5470c6" class="zr0-cls-1"></path>
<path d="M186.6376 181.7709A150 150 0 0 1 381.0961 153.812L370.2833 170.637A130 130 0 0 0 201.7526 194.8681Z" fill="#91cc75" class="zr0-cls-2"></path>
<path d="M381.0961 153.812A150 150 0 0 1 450 280L430 280A130 130 0 0 0 370.2833 170.637Z" fill="rgb(250,200,88)" class="zr0-cls-3"></path>
<text dominant-baseline="central" text-anchor="middle" style="font-size:12px;font-family:sans-serif;" transform="translate(386.7566 254.7405)" fill="#eee" stroke="#5470c6" stroke-width="2" paint-order="stroke" stroke-miterlimit="2">A</text>
<text dominant-baseline="central" text-anchor="middle" style="font-size:12px;font-family:sans-serif;" transform="translate(350.9231 311.7694)" fill="#333">B</text>
<text dominant-baseline="central" text-anchor="middle" style="font-size:12px;font-family:sans-serif;" transform="translate(237.7746 302.2254)" fill="#333">C</text>
<text dominant-baseline="central" text-anchor="end" style="font-size:12px;font-family:sans-serif;" transform="translate(125.4033 222.3384)" fill="#333" stroke="rgb(255,255,255)" stroke-width="2" paint-order="stroke" stroke-miterlimit="2">A</text>
<text dominant-baseline="central" text-anchor="end" style="font-size:12px;font-family:sans-serif;" transform="translate(256.5181 116.6795)" fill="#333" stroke="rgb(255,255,255)" stroke-width="2" paint-order="stroke" stroke-miterlimit="2">B</text>
<text dominant-baseline="central" text-anchor="start" style="font-size:12px;font-family:sans-serif;" transform="translate(464.817 200.9239)" fill="#333" stroke="rgb(255,255,255)" stroke-width="2" paint-order="stroke" stroke-miterlimit="2">C</text>
<path d="M-5 -5l144.6667 0l0 24l-144.6667 0Z" transform="translate(232.6667 5)" fill="rgb(0,0,0)" fill-opacity="0" stroke="#ccc" stroke-width="0" class="zr0-cls-4"></path>
<path d="M3.5 0L21.5 0A3.5 3.5 0 0 1 25 3.5L25 10.5A3.5 3.5 0 0 1 21.5 14L3.5 14A3.5 3.5 0 0 1 0 10.5L0 3.5A3.5 3.5 0 0 1 3.5 0" transform="translate(232.6667 5)" fill="#5470c6" class="zr0-cls-4"></path>
<text dominant-baseline="central" text-anchor="start" style="font-size:12px;font-family:sans-serif;" x="30" y="7" transform="translate(232.6667 5)" fill="#333">A</text>
<path d="M0 0l38 0l0 14l-38 0Z" transform="translate(232.6667 5)" fill="transparent" class="zr0-cls-5"></path>
<path d="M3.5 0L21.5 0A3.5 3.5 0 0 1 25 3.5L25 10.5A3.5 3.5 0 0 1 21.5 14L3.5 14A3.5 3.5 0 0 1 0 10.5L0 3.5A3.5 3.5 0 0 1 3.5 0" transform="translate(280.6667 5)" fill="#91cc75" class="zr0-cls-4"></path>
<text dominant-baseline="central" text-anchor="start" style="font-size:12px;font-family:sans-serif;" x="30" y="7" transform="translate(280.6667 5)" fill="#333">B</text>
<path d="M0 0l38 0l0 14l-38 0Z" transform="translate(280.6667 5)" fill="transparent" class="zr0-cls-5"></path>
<path d="M3.5 0L21.5 0A3.5 3.5 0 0 1 25 3.5L25 10.5A3.5 3.5 0 0 1 21.5 14L3.5 14A3.5 3.5 0 0 1 0 10.5L0 3.5A3.5 3.5 0 0 1 3.5 0" transform="translate(328.6667 5)" fill="#fac858" class="zr0-cls-4"></path>
<text dominant-baseline="central" text-anchor="start" style="font-size:12px;font-family:sans-serif;" x="30" y="7" transform="translate(328.6667 5)" fill="#333">C</text>
<path d="M0 0l38.6667 0l0 14l-38.6667 0Z" transform="translate(328.6667 5)" fill="transparent" class="zr0-cls-5"></path>
<style ><![CDATA[
.zr0-cls-0:hover {
cursor:pointer;
}
.zr0-cls-1:hover {
cursor:pointer;
fill:rgba(92,123,217,1);
}
.zr0-cls-2:hover {
cursor:pointer;
fill:rgba(159,224,128,1);
}
.zr0-cls-3:hover {
cursor:pointer;
fill:rgba(255,220,96,1);
}
.zr0-cls-4:hover {
pointer-events:none;
}
.zr0-cls-5:hover {
cursor:pointer;
fill:rgba(0,0,0,0);
}

]]>

</style>
</svg>