<svg width="600" height="400" xmlns="http://www.w3.org/2000/svg" xmlns:xlink="http://www.w3.org/1999/xlink" version="1.1" baseProfile="full" viewBox="0 0 600 400">
<rect width="600" height="400" x="0" y="0" fill="none"></rect>
<polyline points="468.6 189.3 549.6 142.5 564.6 142.5" fill="transparent" stroke="#5470c6" class="zr0-cls-0"></polyline>
<polyline points="450 278.6 450 315 465 315" fill="transparent" stroke="#91cc75" class="zr0-cls-0"></polyline>
<polyline points="363.4 150 350.4 142.5 335.4 142.5" fill="transparent" stroke="#fac858" class="zr0-cls-0"></polyline>
<polyline points="193.3 175 249.6 142.5 264.6 142.5" fill="transparent" stroke="#5470c6" class="zr0-cls-0"></polyline>
<polyline points="150 300 150 315 165 315" fill="transparent" stroke="#91cc75" class="zr0-cls-0"></polyline>
<polyline points="89.4 165 50.4 142.5 35.4 142.5" fill="transparent" stroke="#fac858" class="zr0-cls-0"></polyline>
<path d="M450 178.5714A21.4286 21.4286 0 0 1 468.5577 210.7143L450 200Z" fill="#5470c6" class="zr0-cls-1"></path>
<path d="M518.0449 239.2857A78.5714 78.5714 0 0 1 381.9551 239.2857L450 200Z" fill="#91cc75" class="zr0-cls-2"></path>
<path d="M363.3975 250A100 100 0 0 1 450 100L450 200Z" fill="rgb(250,200,88)" class="zr0-cls-3"></path>
<path d="M150 150A50 50 0 0 1 193.3013 225L150 200Z" fill="#5470c6" class="zr0-cls-1"></path>
<path d="M236.6025 250A100 100 0 0 1 63.3975 250L150 200Z" fill="#91cc75" class="zr0-cls-2"></path>
<path d="M89.3782 235A70 70 0 0 1 150 130L150 200Z" fill="#fac858" class="zr0-cls-3"></path>
<text dominant-baseline="central" text-anchor="start" style="font-size:12px;font-family:sans-serif;" transform="translate(569.5929 142.5)" fill="#333" stroke="rgb(255,255,255)" stroke-width="2" paint-order="stroke" stroke-miterlimit="2">bl...</text>
<text dominant-baseline="central" text-anchor="start" style="font-size:12px;font-family:sans-serif;" transform="translate(470 315)" fill="#333" stroke="rgb(255,255,255)" stroke-width="2" paint-order="stroke" stroke-miterlimit="2">green</text>
<text dominant-baseline="central" text-anchor="end" style="font-size:12px;font-family:sans-serif;" transform="translate(330.4071 142.5)" fill="#333" stroke="rgb(255,255,255)" stroke-width="2" paint-order="stroke" stroke-miterlimit="2">yellow</text>
<text dominant-baseline="central" text-anchor="start" style="font-size:12px;font-family:sans-serif;" transform="translate(269.5929 142.5)" fill="#333" stroke="rgb(255,255,255)" stroke-width="2" paint-order="stroke" stroke-miterlimit="2">blue</text>
<text dominant-baseline="central" text-anchor="start" style="font-size:12px;font-family:sans-serif;" transform="translate(170 315)" fill="#333" stroke="rgb(255,255,255)" stroke-width="2" paint-order="stroke" stroke-miterlimit="2">green</text>
<text dominant-baseline="central" text-anchor="end" style="font-size:12px;font-family:sans-serif;" transform="translate(30.4071 142.5)" fill="#333" stroke="rgb(255,255,255)" stroke-width="2" paint-order="stroke" stroke-miterlimit="2">y...</text>
<path d="M-5 -5l206.6667 0l0 24l-206.6667 0Z" transform="translate(201.6667 5)" fill="rgb(0,0,0)" fill-opacity="0" stroke="#ccc" stroke-width="0" class="zr0-cls-4"></path>
<path d="M3.5 0L21.5 0A3.5 3.5 0 0 1 25 3.5L25 10.5A3.5 3.5 0 0 1 21.5 14L3.5 14A3.5 3.5 0 0 1 0 10.5L0 3.5A3.5 3.5 0 0 1 3.5 0" transform="translate(201.6667 5)" fill="#5470c6" class="zr0-cls-4"></path>
<text dominant-baseline="central" text-anchor="start" style="font-size:12px;font-family:sans-serif;" x="30" y="7" transform="translate(201.6667 5)" fill="#333">blue</text>
<path d="M0 0l52.6667 0l0 14l-52.6667 0Z" transform="translate(201.6667 5)" fill="transparent" class="zr0-cls-5"></path>
<path d="M3.5 0L21.5 0A3.5 3.5 0 0 1 25 3.5L25 10.5A3.5 3.5 0 0 1 21.5 14L3.5 14A3.5 3.5 0 0 1 0 10.5L0 3.5A3.5 3.5 0 0 1 3.5 0" transform="translate(264.3333 5)" fill="#91cc75" class="zr0-cls-4"></path>
<text dominant-baseline="central" text-anchor="start" style="font-size:12px;font-family:sans-serif;" x="30" y="7" transform="translate(264.3333 5)" fill="#333">green</text>
<path d="M0 0l60.6667 0l0 14l-60.6667 0Z" transform="translate(264.3333 5)" fill="transparent" class="zr0-cls-5"></path>
<path d="M3.5 0L21.5 0A3.5 3.5 0 0 1 25 3.5L25 10.5A3.5 3.5 0 0 1 21.5 14L3.5 14A3.5 3.5 0 0 1 0 10.5L0 3.5A3.5 3.5 0 0 1 3.5 0" transform="translate(335 5)" fill="#fac858" class="zr0-cls-4"></path>
<text dominant-baseline="central" text-anchor="start" style="font-size:12px;font-family:sans-serif;" x="30" y="7" transform="translate(335 5)" fill="#333">yellow</text>
<path d="M0 0l63.3333 0l0 14l-63.3333 0Z" transform="translate(335 5)" fill="transparent" class="zr0-cls-5"></path>
<style ><![CDATA[
.zr0-cls-0:hover {
cursor:pointer;
}
.zr0-cls-1:hover {
cursor:pointer;
fill:rgba(92,123,217,1);
}
.zr0-cls-2:hover {
cursor:pointer;
fill:rgba(159,224,128,1);
}
.zr0-cls-3:hover {
cursor:pointer;
fill:rgba(255,220,96,1);
}
.zr0-cls-4:hover {
pointer-events:none;
}
.zr0-cls-5:hover {
cursor:pointer;
fill:rgba(0,0,0,0);
}

]]>

</style>
</svg>