<svg width="380" height="250" xmlns="http://www.w3.org/2000/svg" xmlns:xlink="http://www.w3.org/1999/xlink" version="1.1" baseProfile="full" viewBox="0 0 380 250">
<rect width="380" height="250" x="0" y="0" fill="none"></rect>
<polyline points="296.6 118.3 352.1 86.2 367.1 86.2" fill="transparent" stroke="#5470c6" class="zr0-cls-0"></polyline>
<polyline points="285 174.1 285 202.5 300 202.5" fill="transparent" stroke="#91cc75" class="zr0-cls-0"></polyline>
<polyline points="230.9 93.8 217.9 86.3 202.9 86.3" fill="transparent" stroke="#fac858" class="zr0-cls-0"></polyline>
<polyline points="95 187.5 95 202.5 110 202.5" fill="transparent" stroke="#91cc75" class="zr0-cls-0"></polyline>
<polyline points="57.1 103.1 27.9 86.3 12.9 86.3" fill="transparent" stroke="#fac858" class="zr0-cls-0"></polyline>
<path d="M285 111.6071A13.3929 13.3929 0 0 1 296.5986 131.6964L285 125Z" fill="rgb(84,112,198)" class="zr0-cls-1"></path>
<path d="M327.528 149.5536A49.1071 49.1071 0 0 1 242.472 149.5536L285 125Z" fill="#91cc75" class="zr0-cls-2"></path>
<path d="M230.8734 156.25A62.5 62.5 0 0 1 285 62.5L285 125Z" fill="rgb(250,200,88)" class="zr0-cls-3"></path>
<path d="M95 93.75A31.25 31.25 0 0 1 122.0633 140.625L95 125Z" fill="rgb(84,112,198)" class="zr0-cls-1"></path>
<path d="M149.1266 156.25A62.5 62.5 0 0 1 40.8734 156.25L95 125Z" fill="#91cc75" class="zr0-cls-2"></path>
<path d="M57.1114 146.875A43.75 43.75 0 0 1 95 81.25L95 125Z" fill="#fac858" class="zr0-cls-3"></path>
<text dominant-baseline="central" text-anchor="start" style="font-size:12px;font-family:sans-serif;" transform="translate(305 202.5)" fill="#333" stroke="rgb(255,255,255)" stroke-width="2" paint-order="stroke" stroke-miterlimit="2">green</text>
<text dominant-baseline="central" text-anchor="end" style="font-size:12px;font-family:sans-serif;" transform="translate(197.883 86.25)" fill="#333" stroke="rgb(255,255,255)" stroke-width="2" paint-order="stroke" stroke-miterlimit="2">yellow</text>
<text dominant-baseline="central" text-anchor="start" style="font-size:12px;font-family:sans-serif;" transform="translate(115 202.5)" fill="#333" stroke="rgb(255,255,255)" stroke-width="2" paint-order="stroke" stroke-miterlimit="2">green</text>
<path d="M-5 -5l206.6667 0l0 24l-206.6667 0Z" transform="translate(91.6667 5)" fill="rgb(0,0,0)" fill-opacity="0" stroke="#ccc" stroke-width="0" class="zr0-cls-4"></path>
<path d="M3.5 0L21.5 0A3.5 3.5 0 0 1 25 3.5L25 10.5A3.5 3.5 0 0 1 21.5 14L3.5 14A3.5 3.5 0 0 1 0 10.5L0 3.5A3.5 3.5 0 0 1 3.5 0" transform="translate(91.6667 5)" fill="#5470c6" class="zr0-cls-4"></path>
<text dominant-baseline="central" text-anchor="start" style="font-size:12px;font-family:sans-serif;" x="30" y="7" transform="translate(91.6667 5)" fill="#333">blue</text>
<path d="M0 0l52.6667 0l0 14l-52.6667 0Z" transform="translate(91.6667 5)" fill="transparent" class="zr0-cls-5"></path>
<path d="M3.5 0L21.5 0A3.5 3.5 0 0 1 25 3.5L25 10.5A3.5 3.5 0 0 1 21.5 14L3.5 14A3.5 3.5 0 0 1 0 10.5L0 3.5A3.5 3.5 0 0 1 3.5 0" transform="translate(154.3333 5)" fill="#91cc75" class="zr0-cls-4"></path>
<text dominant-baseline="central" text-anchor="start" style="font-size:12px;font-family:sans-serif;" x="30" y="7" transform="translate(154.3333 5)" fill="#333">green</text>
<path d="M0 0l60.6667 0l0 14l-60.6667 0Z" transform="translate(154.3333 5)" fill="transparent" class="zr0-cls-5"></path>
<path d="M3.5 0L21.5 0A3.5 3.5 0 0 1 25 3.5L25 10.5A3.5 3.5 0 0 1 21.5 14L3.5 14A3.5 3.5 0 0 1 0 10.5L0 3.5A3.5 3.5 0 0 1 3.5 0" transform="translate(225 5)" fill="#fac858" class="zr0-cls-4"></path>
<text dominant-baseline="central" text-anchor="start" style="font-size:12px;font-family:sans-serif;" x="30" y="7" transform="translate(225 5)" fill="#333">yellow</text>
<path d="M0 0l63.3333 0l0 14l-63.3333 0Z" transform="translate(225 5)" fill="transparent" class="zr0-cls-5"></path>
<style ><![CDATA[
.zr0-cls-0:hover {
cursor:pointer;
}
.zr0-cls-1:hover {
cursor:pointer;
fill:rgba(92,123,217,1);
}
.zr0-cls-2:hover {
cursor:pointer;
fill:rgba(159,224,128,1);
}
.zr0-cls-3:hover {
cursor:pointer;
fill:rgba(255,220,96,1);
}
.zr0-cls-4:hover {
pointer-events:none;
}
.zr0-cls-5:hover {
cursor:pointer;
fill:rgba(0,0,0,0);
}

]]>

</style>
</svg>