<svg width="900" height="400" xmlns="http://www.w3.org/2000/svg" xmlns:xlink="http://www.w3.org/1999/xlink" version="1.1" baseProfile="full" viewBox="0 0 900 400">
<rect width="900" height="400" x="0" y="0" fill="none"></rect>
<path d="M135 320.5L810 320.5" fill="none" stroke="#dbdee4" class="zr5-cls-0"></path>
<path d="M135 277.5L810 277.5" fill="none" stroke="#dbdee4" class="zr5-cls-0"></path>
<path d="M135 235.5L810 235.5" fill="none" stroke="#dbdee4" class="zr5-cls-0"></path>
<path d="M135 192.5L810 192.5" fill="none" stroke="#dbdee4" class="zr5-cls-0"></path>
<path d="M135 150.5L810 150.5" fill="none" stroke="#dbdee4" class="zr5-cls-0"></path>
<path d="M135 107.5L810 107.5" fill="none" stroke="#dbdee4" class="zr5-cls-0"></path>
<path d="M135 65.5L810 65.5" fill="none" stroke="#dbdee4" class="zr5-cls-0"></path>
<path d="M135 320.5L810 320.5" fill="none" stroke="#dbdee4" class="zr5-cls-0"></path>
<path d="M135 277.5L810 277.5" fill="none" stroke="#dbdee4" class="zr5-cls-0"></path>
<path d="M135 235.5L810 235.5" fill="none" stroke="#dbdee4" class="zr5-cls-0"></path>
<path d="M135 192.5L810 192.5" fill="none" stroke="#dbdee4" class="zr5-cls-0"></path>
<path d="M135 150.5L810 150.5" fill="none" stroke="#dbdee4" class="zr5-cls-0"></path>
<path d="M135 107.5L810 107.5" fill="none" stroke="#dbdee4" class="zr5-cls-0"></path>
<path d="M135 65.5L810 65.5" fill="none" stroke="#dbdee4" class="zr5-cls-0"></path>
<path d="M135 320.5L810 320.5" fill="none" stroke="#54555a" stroke-linecap="round" class="zr5-cls-0"></path>
<text dominant-baseline="central" text-anchor="end" style="font-size:12px;font-family:sans-serif;" transform="translate(119 320)" fill="#54555a">0</text>
<text dominant-baseline="central" text-anchor="end" style="font-size:12px;font-family:sans-serif;" transform="translate(119 277.5)" fill="#54555a">20</text>
<text dominant-baseline="central" text-anchor="end" style="font-size:12px;font-family:sans-serif;" transform="translate(119 235)" fill="#54555a">40</text>
<text dominant-baseline="central" text-anchor="end" style="font-size:12px;font-family:sans-serif;" transform="translate(119 192.5)" fill="#54555a">60</text>
<text dominant-baseline="central" text-anchor="end" style="font-size:12px;font-family:sans-serif;" transform="translate(119 150)" fill="#54555a">80</text>
<text dominant-baseline="central" text-anchor="end" style="font-size:12px;font-family:sans-serif;" transform="translate(119 107.5)" fill="#54555a">100</text>
<text dominant-baseline="central" text-anchor="end" style="font-size:12px;font-family:sans-serif;" transform="translate(119 65)" fill="#54555a">120</text>
<text dominant-baseline="central" text-anchor="start" style="font-size:12px;font-family:sans-serif;" transform="translate(826 320)" fill="#54555a">0</text>
<text dominant-baseline="central" text-anchor="start" style="font-size:12px;font-family:sans-serif;" transform="translate(826 277.5)" fill="#54555a">10,000,000</text>
<text dominant-baseline="central" text-anchor="start" style="font-size:12px;font-family:sans-serif;" transform="translate(826 235)" fill="#54555a">20,000,000</text>
<text dominant-baseline="central" text-anchor="start" style="font-size:12px;font-family:sans-serif;" transform="translate(826 192.5)" fill="#54555a">30,000,000</text>
<text dominant-baseline="central" text-anchor="start" style="font-size:12px;font-family:sans-serif;" transform="translate(826 150)" fill="#54555a">40,000,000</text>
<text dominant-baseline="central" text-anchor="start" style="font-size:12px;font-family:sans-serif;" transform="translate(826 107.5)" fill="#54555a">50,000,000</text>
<text dominant-baseline="central" text-anchor="start" style="font-size:12px;font-family:sans-serif;" transform="translate(826 65)" fill="#54555a">60,000,000</text>
<text dominant-baseline="central" text-anchor="middle" style="font-size:12px;font-family:sans-serif;" y="6" transform="translate(136.3664 328)" fill="#54555a">2025-01-02</text>
<text dominant-baseline="central" text-anchor="middle" style="font-size:12px;font-family:sans-serif;" y="6" transform="translate(218.3502 328)" fill="#54555a">2025-02-18</text>
<text dominant-baseline="central" text-anchor="middle" style="font-size:12px;font-family:sans-serif;" y="6" transform="translate(300.334 328)" fill="#54555a">2025-04-01</text>
<text dominant-baseline="central" text-anchor="middle" style="font-size:12px;font-family:sans-serif;" y="6" transform="translate(382.3178 328)" fill="#54555a">2025-05-14</text>
<text dominant-baseline="central" text-anchor="middle" style="font-size:12px;font-family:sans-serif;" y="6" transform="translate(464.3016 328)" fill="#54555a">2025-06-27</text>
<text dominant-baseline="central" text-anchor="middle" style="font-size:12px;font-family:sans-serif;" y="6" transform="translate(546.2854 328)" fill="#54555a">2025-08-11</text>
<text dominant-baseline="central" text-anchor="middle" style="font-size:12px;font-family:sans-serif;" y="6" transform="translate(628.2692 328)" fill="#54555a">2025-09-23</text>
<text dominant-baseline="central" text-anchor="middle" style="font-size:12px;font-family:sans-serif;" y="6" transform="translate(710.253 328)" fill="#54555a">2025-11-04</text>
<text dominant-baseline="central" text-anchor="middle" style="font-size:12px;font-family:sans-serif;" y="6" transform="translate(792.2368 328)" fill="#54555a">2025-12-17</text>
<path d="M135.4236 320l1.8856 0l0 -36.7316l-1.8856 0Z" fill="#E2E2E2" class="zr5-cls-1"></path>
<path d="M138.1564 320l1.8856 0l0 -21.1095l-1.8856 0Z" fill="#E2E2E2" class="zr5-cls-1"></path>
<path d="M140.8892 320l1.8856 0l0 -37.2642l-1.8856 0Z" fill="#E2E2E2" class="zr5-cls-1"></path>
<path d="M143.622 320l1.8856 0l0 -28.2126l-1.8856 0Z" fill="#E2E2E2" class="zr5-cls-1"></path>
<path d="M146.3548 320l1.8856 0l0 -26.5359l-1.8856 0Z" fill="#E2E2E2" class="zr5-cls-1"></path>
<path d="M149.0876 320l1.8856 0l0 -27.8389l-1.8856 0Z" fill="#E2E2E2" class="zr5-cls-1"></path>
<path d="M151.8203 320l1.8856 0l0 -29.3766l-1.8856 0Z" fill="#E2E2E2" class="zr5-cls-1"></path>
<path d="M154.5531 320l1.8856 0l0 -27.2265l-1.8856 0Z" fill="#E2E2E2" class="zr5-cls-1"></path>
<path d="M157.2859 320l1.8856 0l0 -19.3577l-1.8856 0Z" fill="#E2E2E2" class="zr5-cls-1"></path>
<path d="M160.0187 320l1.8856 0l0 -27.8298l-1.8856 0Z" fill="#E2E2E2" class="zr5-cls-1"></path>
<path d="M162.7515 320l1.8856 0l0 -35.5391l-1.8856 0Z" fill="#E2E2E2" class="zr5-cls-1"></path>
<path d="M165.4843 320l1.8856 0l0 -37.4133l-1.8856 0Z" fill="#E2E2E2" class="zr5-cls-1"></path>
<path d="M168.2171 320l1.8856 0l0 -32.6353l-1.8856 0Z" fill="#E2E2E2" class="zr5-cls-1"></path>
<path d="M170.9499 320l1.8856 0l0 -33.5825l-1.8856 0Z" fill="#E2E2E2" class="zr5-cls-1"></path>
<path d="M173.6827 320l1.8856 0l0 -29.5679l-1.8856 0Z" fill="#E2E2E2" class="zr5-cls-1"></path>
<path d="M176.4155 320l1.8856 0l0 -41.0333l-1.8856 0Z" fill="#E2E2E2" class="zr5-cls-1"></path>
<path d="M179.1483 320l1.8856 0l0 -62.6301l-1.8856 0Z" fill="#E2E2E2" class="zr5-cls-1"></path>
<path d="M181.8811 320l1.8856 0l0 -173.2696l-1.8856 0Z" fill="#E2E2E2" class="zr5-cls-1"></path>
<path d="M184.6139 320l1.8856 0l0 -63.8479l-1.8856 0Z" fill="#E2E2E2" class="zr5-cls-1"></path>
<path d="M187.3467 320l1.8856 0l0 -81.3555l-1.8856 0Z" fill="#E2E2E2" class="zr5-cls-1"></path>
<path d="M190.0795 320l1.8856 0l0 -37.7999l-1.8856 0Z" fill="#E2E2E2" class="zr5-cls-1"></path>
<path d="M192.8122 320l1.8856 0l0 -47.2759l-1.8856 0Z" fill="#E2E2E2" class="zr5-cls-1"></path>
<path d="M195.545 320l1.8856 0l0 -54.5317l-1.8856 0Z" fill="#E2E2E2" class="zr5-cls-1"></path>
<path d="M198.2778 320l1.8856 0l0 -50.8611l-1.8856 0Z" fill="#E2E2E2" class="zr5-cls-1"></path>
<path d="M201.0106 320l1.8856 0l0 -48.8852l-1.8856 0Z" fill="#E2E2E2" class="zr5-cls-1"></path>
<path d="M203.7434 320l1.8856 0l0 -35.4805l-1.8856 0Z" fill="#E2E2E2" class="zr5-cls-1"></path>
<path d="M206.4762 320l1.8856 0l0 -19.905l-1.8856 0Z" fill="#E2E2E2" class="zr5-cls-1"></path>
<path d="M209.209 320l1.8856 0l0 -30.8949l-1.8856 0Z" fill="#E2E2E2" class="zr5-cls-1"></path>
<path d="M211.9418 320l1.8856 0l0 -42.6966l-1.8856 0Z" fill="#E2E2E2" class="zr5-cls-1"></path>
<path d="M214.6746 320l1.8856 0l0 -38.7388l-1.8856 0Z" fill="#E2E2E2" class="zr5-cls-1"></path>
<path d="M217.4074 320l1.8856 0l0 -32.1898l-1.8856 0Z" fill="#E2E2E2" class="zr5-cls-1"></path>
<path d="M220.1402 320l1.8856 0l0 -35.1428l-1.8856 0Z" fill="#E2E2E2" class="zr5-cls-1"></path>
<path d="M222.873 320l1.8856 0l0 -26.9612l-1.8856 0Z" fill="#E2E2E2" class="zr5-cls-1"></path>
<path d="M225.6058 320l1.8856 0l0 -41.0751l-1.8856 0Z" fill="#E2E2E2" class="zr5-cls-1"></path>
<path d="M228.3386 320l1.8856 0l0 -55.762l-1.8856 0Z" fill="#E2E2E2" class="zr5-cls-1"></path>
<path d="M231.0714 320l1.8856 0l0 -46.7576l-1.8856 0Z" fill="#E2E2E2" class="zr5-cls-1"></path>
<path d="M233.8041 320l1.8856 0l0 -31.7337l-1.8856 0Z" fill="#E2E2E2" class="zr5-cls-1"></path>
<path d="M236.5369 320l1.8856 0l0 -38.3083l-1.8856 0Z" fill="#E2E2E2" class="zr5-cls-1"></path>
<path d="M239.2697 320l1.8856 0l0 -48.7306l-1.8856 0Z" fill="#E2E2E2" class="zr5-cls-1"></path>
<path d="M242.0025 320l1.8856 0l0 -39.2086l-1.8856 0Z" fill="#E2E2E2" class="zr5-cls-1"></path>
<path d="M244.7353 320l1.8856 0l0 -53.05l-1.8856 0Z" fill="#E2E2E2" class="zr5-cls-1"></path>
<path d="M247.4681 320l1.8856 0l0 -50.689l-1.8856 0Z" fill="#E2E2E2" class="zr5-cls-1"></path>
<path d="M250.2009 320l1.8856 0l0 -69.3674l-1.8856 0Z" fill="#E2E2E2" class="zr5-cls-1"></path>
<path d="M252.9337 320l1.8856 0l0 -49.4589l-1.8856 0Z" fill="#E2E2E2" class="zr5-cls-1"></path>
<path d="M255.6665 320l1.8856 0l0 -67.2491l-1.8856 0Z" fill="#E2E2E2" class="zr5-cls-1"></path>
<path d="M258.3993 320l1.8856 0l0 -45.32l-1.8856 0Z" fill="#E2E2E2" class="zr5-cls-1"></path>
<path d="M261.1321 320l1.8856 0l0 -40.2099l-1.8856 0Z" fill="#E2E2E2" class="zr5-cls-1"></path>
<path d="M263.8649 320l1.8856 0l0 -39.416l-1.8856 0Z" fill="#E2E2E2" class="zr5-cls-1"></path>
<path d="M266.5977 320l1.8856 0l0 -35.0239l-1.8856 0Z" fill="#E2E2E2" class="zr5-cls-1"></path>
<path d="M269.3305 320l1.8856 0l0 -43.0615l-1.8856 0Z" fill="#E2E2E2" class="zr5-cls-1"></path>
<path d="M272.0633 320l1.8856 0l0 -31.5493l-1.8856 0Z" fill="#E2E2E2" class="zr5-cls-1"></path>
<path d="M274.7961 320l1.8856 0l0 -21.1764l-1.8856 0Z" fill="#E2E2E2" class="zr5-cls-1"></path>
<path d="M277.5288 320l1.8856 0l0 -25.2992l-1.8856 0Z" fill="#E2E2E2" class="zr5-cls-1"></path>
<path d="M280.2616 320l1.8856 0l0 -48.3056l-1.8856 0Z" fill="#E2E2E2" class="zr5-cls-1"></path>
<path d="M282.9944 320l1.8856 0l0 -35.1261l-1.8856 0Z" fill="#E2E2E2" class="zr5-cls-1"></path>
<path d="M285.7272 320l1.8856 0l0 -29.6855l-1.8856 0Z" fill="#E2E2E2" class="zr5-cls-1"></path>
<path d="M288.46 320l1.8856 0l0 -40.6607l-1.8856 0Z" fill="#E2E2E2" class="zr5-cls-1"></path>
<path d="M291.1928 320l1.8856 0l0 -38.8491l-1.8856 0Z" fill="#E2E2E2" class="zr5-cls-1"></path>
<path d="M293.9256 320l1.8856 0l0 -34.2832l-1.8856 0Z" fill="#E2E2E2" class="zr5-cls-1"></path>
<path d="M296.6584 320l1.8856 0l0 -48.0371l-1.8856 0Z" fill="#E2E2E2" class="zr5-cls-1"></path>
<path d="M299.3912 320l1.8856 0l0 -24.9408l-1.8856 0Z" fill="#E2E2E2" class="zr5-cls-1"></path>
<path d="M302.124 320l1.8856 0l0 -25.684l-1.8856 0Z" fill="#E2E2E2" class="zr5-cls-1"></path>
<path d="M304.8568 320l1.8856 0l0 -87.0828l-1.8856 0Z" fill="#E2E2E2" class="zr5-cls-1"></path>
<path d="M307.5896 320l1.8856 0l0 -83.7256l-1.8856 0Z" fill="#E2E2E2" class="zr5-cls-1"></path>
<path d="M310.3224 320l1.8856 0l0 -110.9222l-1.8856 0Z" fill="#E2E2E2" class="zr5-cls-1"></path>
<path d="M313.0552 320l1.8856 0l0 -87.272l-1.8856 0Z" fill="#E2E2E2" class="zr5-cls-1"></path>
<path d="M315.788 320l1.8856 0l0 -113.3394l-1.8856 0Z" fill="#E2E2E2" class="zr5-cls-1"></path>
<path d="M318.5207 320l1.8856 0l0 -68.8893l-1.8856 0Z" fill="#E2E2E2" class="zr5-cls-1"></path>
<path d="M321.2535 320l1.8856 0l0 -42.7539l-1.8856 0Z" fill="#E2E2E2" class="zr5-cls-1"></path>
<path d="M323.9863 320l1.8856 0l0 -37.7421l-1.8856 0Z" fill="#E2E2E2" class="zr5-cls-1"></path>
<path d="M326.7191 320l1.8856 0l0 -30.1265l-1.8856 0Z" fill="#E2E2E2" class="zr5-cls-1"></path>
<path d="M329.4519 320l1.8856 0l0 -55.5936l-1.8856 0Z" fill="#E2E2E2" class="zr5-cls-1"></path>
<path d="M332.1847 320l1.8856 0l0 -41.5969l-1.8856 0Z" fill="#E2E2E2" class="zr5-cls-1"></path>
<path d="M334.9175 320l1.8856 0l0 -45.0314l-1.8856 0Z" fill="#E2E2E2" class="zr5-cls-1"></path>
<path d="M337.6503 320l1.8856 0l0 -44.2365l-1.8856 0Z" fill="#E2E2E2" class="zr5-cls-1"></path>
<path d="M340.3831 320l1.8856 0l0 -38.7363l-1.8856 0Z" fill="#E2E2E2" class="zr5-cls-1"></path>
<path d="M343.1159 320l1.8856 0l0 -28.8919l-1.8856 0Z" fill="#E2E2E2" class="zr5-cls-1"></path>
<path d="M345.8487 320l1.8856 0l0 -24.6476l-1.8856 0Z" fill="#E2E2E2" class="zr5-cls-1"></path>
<path d="M348.5815 320l1.8856 0l0 -30.1383l-1.8856 0Z" fill="#E2E2E2" class="zr5-cls-1"></path>
<path d="M351.3143 320l1.8856 0l0 -69.517l-1.8856 0Z" fill="#E2E2E2" class="zr5-cls-1"></path>
<path d="M354.0471 320l1.8856 0l0 -175.5124l-1.8856 0Z" fill="#E2E2E2" class="zr5-cls-1"></path>
<path d="M356.7799 320l1.8856 0l0 -77.8886l-1.8856 0Z" fill="#E2E2E2" class="zr5-cls-1"></path>
<path d="M359.5127 320l1.8856 0l0 -57.43l-1.8856 0Z" fill="#E2E2E2" class="zr5-cls-1"></path>
<path d="M362.2454 320l1.8856 0l0 -56.7879l-1.8856 0Z" fill="#E2E2E2" class="zr5-cls-1"></path>
<path d="M364.9782 320l1.8856 0l0 -45.5155l-1.8856 0Z" fill="#E2E2E2" class="zr5-cls-1"></path>
<path d="M367.711 320l1.8856 0l0 -34.9658l-1.8856 0Z" fill="#E2E2E2" class="zr5-cls-1"></path>
<path d="M370.4438 320l1.8856 0l0 -37.2292l-1.8856 0Z" fill="#E2E2E2" class="zr5-cls-1"></path>
<path d="M373.1766 320l1.8856 0l0 -34.8955l-1.8856 0Z" fill="#E2E2E2" class="zr5-cls-1"></path>
<path d="M375.9094 320l1.8856 0l0 -73.2766l-1.8856 0Z" fill="#E2E2E2" class="zr5-cls-1"></path>
<path d="M378.6422 320l1.8856 0l0 -49.0182l-1.8856 0Z" fill="#E2E2E2" class="zr5-cls-1"></path>
<path d="M381.375 320l1.8856 0l0 -54.1516l-1.8856 0Z" fill="#E2E2E2" class="zr5-cls-1"></path>
<path d="M384.1078 320l1.8856 0l0 -58.318l-1.8856 0Z" fill="#E2E2E2" class="zr5-cls-1"></path>
<path d="M386.8406 320l1.8856 0l0 -55.7153l-1.8856 0Z" fill="#E2E2E2" class="zr5-cls-1"></path>
<path d="M389.5734 320l1.8856 0l0 -40.6643l-1.8856 0Z" fill="#E2E2E2" class="zr5-cls-1"></path>
<path d="M392.3062 320l1.8856 0l0 -39.57l-1.8856 0Z" fill="#E2E2E2" class="zr5-cls-1"></path>
<path d="M395.039 320l1.8856 0l0 -46.2206l-1.8856 0Z" fill="#E2E2E2" class="zr5-cls-1"></path>
<path d="M397.7718 320l1.8856 0l0 -35.8717l-1.8856 0Z" fill="#E2E2E2" class="zr5-cls-1"></path>
<path d="M400.5046 320l1.8856 0l0 -30.125l-1.8856 0Z" fill="#E2E2E2" class="zr5-cls-1"></path>
<path d="M403.2373 320l1.8856 0l0 -46.4198l-1.8856 0Z" fill="#E2E2E2" class="zr5-cls-1"></path>
<path d="M405.9701 320l1.8856 0l0 -52.3962l-1.8856 0Z" fill="#E2E2E2" class="zr5-cls-1"></path>
<path d="M408.7029 320l1.8856 0l0 -43.8283l-1.8856 0Z" fill="#E2E2E2" class="zr5-cls-1"></path>
<path d="M411.4357 320l1.8856 0l0 -31.4249l-1.8856 0Z" fill="#E2E2E2" class="zr5-cls-1"></path>
<path d="M414.1685 320l1.8856 0l0 -35.1002l-1.8856 0Z" fill="#E2E2E2" class="zr5-cls-1"></path>
<path d="M416.9013 320l1.8856 0l0 -35.2225l-1.8856 0Z" fill="#E2E2E2" class="zr5-cls-1"></path>
<path d="M419.6341 320l1.8856 0l0 -37.1488l-1.8856 0Z" fill="#E2E2E2" class="zr5-cls-1"></path>
<path d="M422.3669 320l1.8856 0l0 -36.0373l-1.8856 0Z" fill="#E2E2E2" class="zr5-cls-1"></path>
<path d="M425.0997 320l1.8856 0l0 -37.2847l-1.8856 0Z" fill="#E2E2E2" class="zr5-cls-1"></path>
<path d="M427.8325 320l1.8856 0l0 -34.4133l-1.8856 0Z" fill="#E2E2E2" class="zr5-cls-1"></path>
<path d="M430.5653 320l1.8856 0l0 -29.3722l-1.8856 0Z" fill="#E2E2E2" class="zr5-cls-1"></path>
<path d="M433.2981 320l1.8856 0l0 -63.0508l-1.8856 0Z" fill="#E2E2E2" class="zr5-cls-1"></path>
<path d="M436.0309 320l1.8856 0l0 -30.529l-1.8856 0Z" fill="#E2E2E2" class="zr5-cls-1"></path>
<path d="M438.7637 320l1.8856 0l0 -30.2597l-1.8856 0Z" fill="#E2E2E2" class="zr5-cls-1"></path>
<path d="M441.4965 320l1.8856 0l0 -24.952l-1.8856 0Z" fill="#E2E2E2" class="zr5-cls-1"></path>
<path d="M444.2293 320l1.8856 0l0 -26.2778l-1.8856 0Z" fill="#E2E2E2" class="zr5-cls-1"></path>
<path d="M446.962 320l1.8856 0l0 -31.1068l-1.8856 0Z" fill="#E2E2E2" class="zr5-cls-1"></path>
<path d="M449.6948 320l1.8856 0l0 -39.0874l-1.8856 0Z" fill="#E2E2E2" class="zr5-cls-1"></path>
<path d="M452.4276 320l1.8856 0l0 -32.0152l-1.8856 0Z" fill="#E2E2E2" class="zr5-cls-1"></path>
<path d="M455.1604 320l1.8856 0l0 -48.3389l-1.8856 0Z" fill="#E2E2E2" class="zr5-cls-1"></path>
<path d="M457.8932 320l1.8856 0l0 -29.451l-1.8856 0Z" fill="#E2E2E2" class="zr5-cls-1"></path>
<path d="M460.626 320l1.8856 0l0 -27.9295l-1.8856 0Z" fill="#E2E2E2" class="zr5-cls-1"></path>
<path d="M463.3588 320l1.8856 0l0 -91.3395l-1.8856 0Z" fill="#E2E2E2" class="zr5-cls-1"></path>
<path d="M466.0916 320l1.8856 0l0 -42.8539l-1.8856 0Z" fill="#E2E2E2" class="zr5-cls-1"></path>
<path d="M468.8244 320l1.8856 0l0 -41.7707l-1.8856 0Z" fill="#E2E2E2" class="zr5-cls-1"></path>
<path d="M471.5572 320l1.8856 0l0 -33.7547l-1.8856 0Z" fill="#E2E2E2" class="zr5-cls-1"></path>
<path d="M474.29 320l1.8856 0l0 -15.1184l-1.8856 0Z" fill="#E2E2E2" class="zr5-cls-1"></path>
<path d="M477.0228 320l1.8856 0l0 -22.5725l-1.8856 0Z" fill="#E2E2E2" class="zr5-cls-1"></path>
<path d="M479.7556 320l1.8856 0l0 -29.6891l-1.8856 0Z" fill="#E2E2E2" class="zr5-cls-1"></path>
<path d="M482.4884 320l1.8856 0l0 -35.3703l-1.8856 0Z" fill="#E2E2E2" class="zr5-cls-1"></path>
<path d="M485.2212 320l1.8856 0l0 -29.394l-1.8856 0Z" fill="#E2E2E2" class="zr5-cls-1"></path>
<path d="M487.9539 320l1.8856 0l0 -26.944l-1.8856 0Z" fill="#E2E2E2" class="zr5-cls-1"></path>
<path d="M490.6867 320l1.8856 0l0 -25.7052l-1.8856 0Z" fill="#E2E2E2" class="zr5-cls-1"></path>
<path d="M493.4195 320l1.8856 0l0 -36.4135l-1.8856 0Z" fill="#E2E2E2" class="zr5-cls-1"></path>
<path d="M496.1523 320l1.8856 0l0 -30.3318l-1.8856 0Z" fill="#E2E2E2" class="zr5-cls-1"></path>
<path d="M498.8851 320l1.8856 0l0 -36.5032l-1.8856 0Z" fill="#E2E2E2" class="zr5-cls-1"></path>
<path d="M501.6179 320l1.8856 0l0 -21.9857l-1.8856 0Z" fill="#E2E2E2" class="zr5-cls-1"></path>
<path d="M504.3507 320l1.8856 0l0 -30.6737l-1.8856 0Z" fill="#E2E2E2" class="zr5-cls-1"></path>
<path d="M507.0835 320l1.8856 0l0 -42.4676l-1.8856 0Z" fill="#E2E2E2" class="zr5-cls-1"></path>
<path d="M509.8163 320l1.8856 0l0 -47.9199l-1.8856 0Z" fill="#E2E2E2" class="zr5-cls-1"></path>
<path d="M512.5491 320l1.8856 0l0 -33.5648l-1.8856 0Z" fill="#E2E2E2" class="zr5-cls-1"></path>
<path d="M515.2819 320l1.8856 0l0 -30.7024l-1.8856 0Z" fill="#E2E2E2" class="zr5-cls-1"></path>
<path d="M518.0147 320l1.8856 0l0 -43.9178l-1.8856 0Z" fill="#E2E2E2" class="zr5-cls-1"></path>
<path d="M520.7475 320l1.8856 0l0 -88.9251l-1.8856 0Z" fill="#E2E2E2" class="zr5-cls-1"></path>
<path d="M523.4803 320l1.8856 0l0 -190.3776l-1.8856 0Z" fill="#E2E2E2" class="zr5-cls-1"></path>
<path d="M526.2131 320l1.8856 0l0 -70.403l-1.8856 0Z" fill="#E2E2E2" class="zr5-cls-1"></path>
<path d="M528.9459 320l1.8856 0l0 -68.9406l-1.8856 0Z" fill="#E2E2E2" class="zr5-cls-1"></path>
<path d="M531.6786 320l1.8856 0l0 -53.1268l-1.8856 0Z" fill="#E2E2E2" class="zr5-cls-1"></path>
<path d="M534.4114 320l1.8856 0l0 -29.7263l-1.8856 0Z" fill="#E2E2E2" class="zr5-cls-1"></path>
<path d="M537.1442 320l1.8856 0l0 -33.4439l-1.8856 0Z" fill="#E2E2E2" class="zr5-cls-1"></path>
<path d="M539.877 320l1.8856 0l0 -42.0403l-1.8856 0Z" fill="#E2E2E2" class="zr5-cls-1"></path>
<path d="M542.6098 320l1.8856 0l0 -34.1499l-1.8856 0Z" fill="#E2E2E2" class="zr5-cls-1"></path>
<path d="M545.3426 320l1.8856 0l0 -40.3938l-1.8856 0Z" fill="#E2E2E2" class="zr5-cls-1"></path>
<path d="M548.0754 320l1.8856 0l0 -41.1168l-1.8856 0Z" fill="#E2E2E2" class="zr5-cls-1"></path>
<path d="M550.8082 320l1.8856 0l0 -27.597l-1.8856 0Z" fill="#E2E2E2" class="zr5-cls-1"></path>
<path d="M553.541 320l1.8856 0l0 -41.6649l-1.8856 0Z" fill="#E2E2E2" class="zr5-cls-1"></path>
<path d="M556.2738 320l1.8856 0l0 -34.2539l-1.8856 0Z" fill="#E2E2E2" class="zr5-cls-1"></path>
<path d="M559.0066 320l1.8856 0l0 -31.3487l-1.8856 0Z" fill="#E2E2E2" class="zr5-cls-1"></path>
<path d="M561.7394 320l1.8856 0l0 -28.9673l-1.8856 0Z" fill="#E2E2E2" class="zr5-cls-1"></path>
<path d="M564.4722 320l1.8856 0l0 -24.7095l-1.8856 0Z" fill="#E2E2E2" class="zr5-cls-1"></path>
<path d="M567.205 320l1.8856 0l0 -24.0941l-1.8856 0Z" fill="#E2E2E2" class="zr5-cls-1"></path>
<path d="M569.9378 320l1.8856 0l0 -32.4084l-1.8856 0Z" fill="#E2E2E2" class="zr5-cls-1"></path>
<path d="M572.6705 320l1.8856 0l0 -46.8072l-1.8856 0Z" fill="#E2E2E2" class="zr5-cls-1"></path>
<path d="M575.4033 320l1.8856 0l0 -39.5898l-1.8856 0Z" fill="#E2E2E2" class="zr5-cls-1"></path>
<path d="M578.1361 320l1.8856 0l0 -32.6312l-1.8856 0Z" fill="#E2E2E2" class="zr5-cls-1"></path>
<path d="M580.8689 320l1.8856 0l0 -33.5988l-1.8856 0Z" fill="#E2E2E2" class="zr5-cls-1"></path>
<path d="M583.6017 320l1.8856 0l0 -26.8398l-1.8856 0Z" fill="#E2E2E2" class="zr5-cls-1"></path>
<path d="M586.3345 320l1.8856 0l0 -44.4813l-1.8856 0Z" fill="#E2E2E2" class="zr5-cls-1"></path>
<path d="M589.0673 320l1.8856 0l0 -43.3544l-1.8856 0Z" fill="#E2E2E2" class="zr5-cls-1"></path>
<path d="M591.8001 320l1.8856 0l0 -28.8966l-1.8856 0Z" fill="#E2E2E2" class="zr5-cls-1"></path>
<path d="M594.5329 320l1.8856 0l0 -38.4507l-1.8856 0Z" fill="#E2E2E2" class="zr5-cls-1"></path>
<path d="M597.2657 320l1.8856 0l0 -39.1582l-1.8856 0Z" fill="#E2E2E2" class="zr5-cls-1"></path>
<path d="M599.9985 320l1.8856 0l0 -36.702l-1.8856 0Z" fill="#E2E2E2" class="zr5-cls-1"></path>
<path d="M602.7313 320l1.8856 0l0 -34.4592l-1.8856 0Z" fill="#E2E2E2" class="zr5-cls-1"></path>
<path d="M605.4641 320l1.8856 0l0 -51.198l-1.8856 0Z" fill="#E2E2E2" class="zr5-cls-1"></path>
<path d="M608.1969 320l1.8856 0l0 -42.4837l-1.8856 0Z" fill="#E2E2E2" class="zr5-cls-1"></path>
<path d="M610.9297 320l1.8856 0l0 -41.1651l-1.8856 0Z" fill="#E2E2E2" class="zr5-cls-1"></path>
<path d="M613.6624 320l1.8856 0l0 -43.5381l-1.8856 0Z" fill="#E2E2E2" class="zr5-cls-1"></path>
<path d="M616.3952 320l1.8856 0l0 -28.187l-1.8856 0Z" fill="#E2E2E2" class="zr5-cls-1"></path>
<path d="M619.128 320l1.8856 0l0 -30.4459l-1.8856 0Z" fill="#E2E2E2" class="zr5-cls-1"></path>
<path d="M621.8608 320l1.8856 0l0 -65.0926l-1.8856 0Z" fill="#E2E2E2" class="zr5-cls-1"></path>
<path d="M624.5936 320l1.8856 0l0 -33.4973l-1.8856 0Z" fill="#E2E2E2" class="zr5-cls-1"></path>
<path d="M627.3264 320l1.8856 0l0 -37.2534l-1.8856 0Z" fill="#E2E2E2" class="zr5-cls-1"></path>
<path d="M630.0592 320l1.8856 0l0 -41.072l-1.8856 0Z" fill="#E2E2E2" class="zr5-cls-1"></path>
<path d="M632.792 320l1.8856 0l0 -36.8497l-1.8856 0Z" fill="#E2E2E2" class="zr5-cls-1"></path>
<path d="M635.5248 320l1.8856 0l0 -29.5611l-1.8856 0Z" fill="#E2E2E2" class="zr5-cls-1"></path>
<path d="M638.2576 320l1.8856 0l0 -47.6967l-1.8856 0Z" fill="#E2E2E2" class="zr5-cls-1"></path>
<path d="M640.9904 320l1.8856 0l0 -32.1905l-1.8856 0Z" fill="#E2E2E2" class="zr5-cls-1"></path>
<path d="M643.7232 320l1.8856 0l0 -34.6596l-1.8856 0Z" fill="#E2E2E2" class="zr5-cls-1"></path>
<path d="M646.456 320l1.8856 0l0 -40.2115l-1.8856 0Z" fill="#E2E2E2" class="zr5-cls-1"></path>
<path d="M649.1888 320l1.8856 0l0 -32.4466l-1.8856 0Z" fill="#E2E2E2" class="zr5-cls-1"></path>
<path d="M651.9216 320l1.8856 0l0 -63.736l-1.8856 0Z" fill="#E2E2E2" class="zr5-cls-1"></path>
<path d="M654.6544 320l1.8856 0l0 -42.7978l-1.8856 0Z" fill="#E2E2E2" class="zr5-cls-1"></path>
<path d="M657.3871 320l1.8856 0l0 -52.6903l-1.8856 0Z" fill="#E2E2E2" class="zr5-cls-1"></path>
<path d="M660.1199 320l1.8856 0l0 -38.5715l-1.8856 0Z" fill="#E2E2E2" class="zr5-cls-1"></path>
<path d="M662.8527 320l1.8856 0l0 -47.3016l-1.8856 0Z" fill="#E2E2E2" class="zr5-cls-1"></path>
<path d="M665.5855 320l1.8856 0l0 -34.2212l-1.8856 0Z" fill="#E2E2E2" class="zr5-cls-1"></path>
<path d="M668.3183 320l1.8856 0l0 -31.9186l-1.8856 0Z" fill="#E2E2E2" class="zr5-cls-1"></path>
<path d="M671.0511 320l1.8856 0l0 -47.1507l-1.8856 0Z" fill="#E2E2E2" class="zr5-cls-1"></path>
<path d="M673.7839 320l1.8856 0l0 -49.0964l-1.8856 0Z" fill="#E2E2E2" class="zr5-cls-1"></path>
<path d="M676.5167 320l1.8856 0l0 -36.2425l-1.8856 0Z" fill="#E2E2E2" class="zr5-cls-1"></path>
<path d="M679.2495 320l1.8856 0l0 -32.6386l-1.8856 0Z" fill="#E2E2E2" class="zr5-cls-1"></path>
<path d="M681.9823 320l1.8856 0l0 -35.1156l-1.8856 0Z" fill="#E2E2E2" class="zr5-cls-1"></path>
<path d="M684.7151 320l1.8856 0l0 -22.4666l-1.8856 0Z" fill="#E2E2E2" class="zr5-cls-1"></path>
<path d="M687.4479 320l1.8856 0l0 -19.4034l-1.8856 0Z" fill="#E2E2E2" class="zr5-cls-1"></path>
<path d="M690.1807 320l1.8856 0l0 -24.8395l-1.8856 0Z" fill="#E2E2E2" class="zr5-cls-1"></path>
<path d="M692.9135 320l1.8856 0l0 -30.4495l-1.8856 0Z" fill="#E2E2E2" class="zr5-cls-1"></path>
<path d="M695.6463 320l1.8856 0l0 -49.0688l-1.8856 0Z" fill="#E2E2E2" class="zr5-cls-1"></path>
<path d="M698.379 320l1.8856 0l0 -58.9971l-1.8856 0Z" fill="#E2E2E2" class="zr5-cls-1"></path>
<path d="M701.1118 320l1.8856 0l0 -77.9345l-1.8856 0Z" fill="#E2E2E2" class="zr5-cls-1"></path>
<path d="M703.8446 320l1.8856 0l0 -57.7917l-1.8856 0Z" fill="#E2E2E2" class="zr5-cls-1"></path>
<path d="M706.5774 320l1.8856 0l0 -40.4816l-1.8856 0Z" fill="#E2E2E2" class="zr5-cls-1"></path>
<path d="M709.3102 320l1.8856 0l0 -75.5422l-1.8856 0Z" fill="#E2E2E2" class="zr5-cls-1"></path>
<path d="M712.043 320l1.8856 0l0 -76.484l-1.8856 0Z" fill="#E2E2E2" class="zr5-cls-1"></path>
<path d="M714.7758 320l1.8856 0l0 -44.1269l-1.8856 0Z" fill="#E2E2E2" class="zr5-cls-1"></path>
<path d="M717.5086 320l1.8856 0l0 -63.7922l-1.8856 0Z" fill="#E2E2E2" class="zr5-cls-1"></path>
<path d="M720.2414 320l1.8856 0l0 -44.6571l-1.8856 0Z" fill="#E2E2E2" class="zr5-cls-1"></path>
<path d="M722.9742 320l1.8856 0l0 -40.6972l-1.8856 0Z" fill="#E2E2E2" class="zr5-cls-1"></path>
<path d="M725.707 320l1.8856 0l0 -50.8972l-1.8856 0Z" fill="#E2E2E2" class="zr5-cls-1"></path>
<path d="M728.4398 320l1.8856 0l0 -44.6576l-1.8856 0Z" fill="#E2E2E2" class="zr5-cls-1"></path>
<path d="M731.1726 320l1.8856 0l0 -57.0971l-1.8856 0Z" fill="#E2E2E2" class="zr5-cls-1"></path>
<path d="M733.9054 320l1.8856 0l0 -36.3258l-1.8856 0Z" fill="#E2E2E2" class="zr5-cls-1"></path>
<path d="M736.6382 320l1.8856 0l0 -30.5549l-1.8856 0Z" fill="#E2E2E2" class="zr5-cls-1"></path>
<path d="M739.371 320l1.8856 0l0 -26.3294l-1.8856 0Z" fill="#E2E2E2" class="zr5-cls-1"></path>
<path d="M742.1037 320l1.8856 0l0 -38.1069l-1.8856 0Z" fill="#E2E2E2" class="zr5-cls-1"></path>
<path d="M744.8365 320l1.8856 0l0 -43.4676l-1.8856 0Z" fill="#E2E2E2" class="zr5-cls-1"></path>
<path d="M747.5693 320l1.8856 0l0 -45.9248l-1.8856 0Z" fill="#E2E2E2" class="zr5-cls-1"></path>
<path d="M750.3021 320l1.8856 0l0 -39.3775l-1.8856 0Z" fill="#E2E2E2" class="zr5-cls-1"></path>
<path d="M753.0349 320l1.8856 0l0 -32.311l-1.8856 0Z" fill="#E2E2E2" class="zr5-cls-1"></path>
<path d="M755.7677 320l1.8856 0l0 -15.63l-1.8856 0Z" fill="#E2E2E2" class="zr5-cls-1"></path>
<path d="M758.5005 320l1.8856 0l0 -37.1966l-1.8856 0Z" fill="#E2E2E2" class="zr5-cls-1"></path>
<path d="M761.2333 320l1.8856 0l0 -38.2581l-1.8856 0Z" fill="#E2E2E2" class="zr5-cls-1"></path>
<path d="M763.9661 320l1.8856 0l0 -39.5417l-1.8856 0Z" fill="#E2E2E2" class="zr5-cls-1"></path>
<path d="M766.6989 320l1.8856 0l0 -44.8592l-1.8856 0Z" fill="#E2E2E2" class="zr5-cls-1"></path>
<path d="M769.4317 320l1.8856 0l0 -39.9624l-1.8856 0Z" fill="#E2E2E2" class="zr5-cls-1"></path>
<path d="M772.1645 320l1.8856 0l0 -43.6798l-1.8856 0Z" fill="#E2E2E2" class="zr5-cls-1"></path>
<path d="M774.8973 320l1.8856 0l0 -43.8722l-1.8856 0Z" fill="#E2E2E2" class="zr5-cls-1"></path>
<path d="M777.6301 320l1.8856 0l0 -44.7933l-1.8856 0Z" fill="#E2E2E2" class="zr5-cls-1"></path>
<path d="M780.3629 320l1.8856 0l0 -29.2994l-1.8856 0Z" fill="#E2E2E2" class="zr5-cls-1"></path>
<path d="M783.0956 320l1.8856 0l0 -38.5539l-1.8856 0Z" fill="#E2E2E2" class="zr5-cls-1"></path>
<path d="M785.8284 320l1.8856 0l0 -49.804l-1.8856 0Z" fill="#E2E2E2" class="zr5-cls-1"></path>
<path d="M788.5612 320l1.8856 0l0 -31.7959l-1.8856 0Z" fill="#E2E2E2" class="zr5-cls-1"></path>
<path d="M791.294 320l1.8856 0l0 -33.7749l-1.8856 0Z" fill="#E2E2E2" class="zr5-cls-1"></path>
<path d="M794.0268 320l1.8856 0l0 -69.9809l-1.8856 0Z" fill="#E2E2E2" class="zr5-cls-1"></path>
<path d="M796.7596 320l1.8856 0l0 -72.1933l-1.8856 0Z" fill="#E2E2E2" class="zr5-cls-1"></path>
<path d="M799.4924 320l1.8856 0l0 -30.4369l-1.8856 0Z" fill="#E2E2E2" class="zr5-cls-1"></path>
<path d="M802.2252 320l1.8856 0l0 -40.4231l-1.8856 0Z" fill="#E2E2E2" class="zr5-cls-1"></path>
<path d="M804.958 320l1.8856 0l0 -14.7167l-1.8856 0Z" fill="#E2E2E2" class="zr5-cls-1"></path>
<path d="M807.6908 320l1.8856 0l0 -21.4464l-1.8856 0Z" fill="#E2E2E2" class="zr5-cls-1"></path>
<path d="M135.5 124.1387L136.5 124.1387L136.5 125.4562L135.5 125.4562ZM136.5 123.0975L136.5 124.1387M136.5 125.7538L136.5 125.4562" fill="#47b262" stroke="#47b262" class="zr5-cls-2"></path>
<path d="M138.5 123.2675L139.5 123.2675L139.5 123.65L138.5 123.65ZM138.5 122.12L138.5 123.2675M138.5 124.925L138.5 123.65" fill="#47b262" stroke="#47b262" class="zr5-cls-2"></path>
<path d="M141.5 122.0988L142.5 122.0988L142.5 124.415L141.5 124.415ZM141.5 119.1875L141.5 122.0988M141.5 124.6275L141.5 124.415" fill="#47b262" stroke="#47b262" class="zr5-cls-2"></path>
<path d="M144.5 122.715L144.5 122.8425ZM144.5 120.9937L144.5 122.715M144.5 124.7975L144.5 122.8425" fill="#47b262" stroke="#47b262" class="zr5-cls-2"></path>
<path d="M146.5 122.4388L147.5 122.4388L147.5 123.225L146.5 123.225ZM147.5 122.3538L147.5 122.4388M147.5 124.4788L147.5 123.225" fill="#eb5454" stroke="#eb5454" class="zr5-cls-3"></path>
<path d="M149.5 123.9688L150.5 123.9688L150.5 124.0963L149.5 124.0963ZM149.5 122.8212L149.5 123.9688M149.5 124.6488L149.5 124.0963" fill="#47b262" stroke="#47b262" class="zr5-cls-2"></path>
<path d="M152.5 121.2913L153.5 121.2913L153.5 123.9263L152.5 123.9263ZM152.5 121.1213L152.5 121.2913M152.5 125.8175L152.5 123.9263" fill="#47b262" stroke="#47b262" class="zr5-cls-2"></path>
<path d="M155.5 120.2287L155.5 122.2263ZM155.5 118.3588L155.5 120.2287M155.5 123.395L155.5 122.2263" fill="#eb5454" stroke="#eb5454" class="zr5-cls-3"></path>
<path d="M157.5 120.0375L158.5 120.0375L158.5 122.205L157.5 122.205ZM157.5 119.2513L157.5 120.0375M157.5 122.4813L157.5 122.205" fill="#eb5454" stroke="#eb5454" class="zr5-cls-3"></path>
<path d="M160.5 119.3362L161.5 119.3362L161.5 122.6513L160.5 122.6513ZM160.5 118.6138L160.5 119.3362M160.5 122.6513" fill="#47b262" stroke="#47b262" class="zr5-cls-2"></path>
<path d="M163.5 116.8925L164.5 116.8925L164.5 117.8488L163.5 117.8488ZM163.5 116.2975L163.5 116.8925M163.5 117.9125L163.5 117.8488" fill="#eb5454" stroke="#eb5454" class="zr5-cls-3"></path>
<path d="M165.5 111.7925L166.5 111.7925L166.5 117.2538L165.5 117.2538ZM166.5 110.5175L166.5 111.7925M166.5 117.2538" fill="#47b262" stroke="#47b262" class="zr5-cls-2"></path>
<path d="M168.5 111.7925L169.5 111.7925L169.5 112.3238L168.5 112.3238ZM168.5 110.6025L168.5 111.7925M168.5 112.8975L168.5 112.3238" fill="#eb5454" stroke="#eb5454" class="zr5-cls-3"></path>
<path d="M171.5 111.75L172.5 111.75L172.5 111.7713L171.5 111.7713ZM171.5 111.6863L171.5 111.75M171.5 113.8325L171.5 111.7713" fill="#eb5454" stroke="#eb5454" class="zr5-cls-3"></path>
<path d="M174.5 110.0288L175.5 110.0288L175.5 112.1963L174.5 112.1963ZM174.5 109.6038L174.5 110.0288M174.5 112.5575L174.5 112.1963" fill="#47b262" stroke="#47b262" class="zr5-cls-2"></path>
<path d="M176.5 107.4575L177.5 107.4575L177.5 110.645L176.5 110.645ZM177.5 106.7988L177.5 107.4575M177.5 111.5375L177.5 110.645" fill="#47b262" stroke="#47b262" class="zr5-cls-2"></path>
<path d="M179.5 106.6288L180.5 106.6288L180.5 109.7525L179.5 109.7525ZM179.5 106.055L179.5 106.6288M179.5 110.4963L179.5 109.7525" fill="#47b262" stroke="#47b262" class="zr5-cls-2"></path>
<path d="M182.5 89.2675L183.5 89.2675L183.5 101.7625L182.5 101.7625ZM182.5 86.08L182.5 89.2675M182.5 101.805L182.5 101.7625" fill="#47b262" stroke="#47b262" class="zr5-cls-2"></path>
<path d="M185.5 88.375ZM185.5 85.5275L185.5 88.375M185.5 90.4363L185.5 88.375" fill="#eb5454" stroke="red" class="zr5-cls-3"></path>
<path d="M187.5 88.375L188.5 88.375L188.5 91.18L187.5 91.18ZM188.5 87.61L188.5 88.375M188.5 91.5625L188.5 91.18" fill="#eb5454" stroke="#eb5454" class="zr5-cls-3"></path>
<path d="M190.5 90.16L191.5 90.16L191.5 95.345L190.5 95.345ZM190.5 89.565L190.5 90.16M190.5 95.77L190.5 95.345" fill="#47b262" stroke="#47b262" class="zr5-cls-2"></path>
<path d="M193.5 84.975L194.5 84.975L194.5 89.0763L193.5 89.0763ZM193.5 83.9762L193.5 84.975M193.5 90.2238L193.5 89.0763" fill="#47b262" stroke="#47b262" class="zr5-cls-2"></path>
<path d="M196.5 81.4688L196.5 85.8675ZM196.5 81.1075L196.5 81.4688M196.5 86.5475L196.5 85.8675" fill="#47b262" stroke="#47b262" class="zr5-cls-2"></path>
<path d="M198.5 81.8938L199.5 81.8938L199.5 82.6375L198.5 82.6375ZM198.5 81.3412L198.5 81.8938M198.5 84.0188L198.5 82.6375" fill="#eb5454" stroke="#eb5454" class="zr5-cls-3"></path>
<path d="M201.5 81.575L202.5 81.575L202.5 83.2112L201.5 83.2112ZM201.5 80.6825L201.5 81.575M201.5 86.1225L201.5 83.2112" fill="#47b262" stroke="#47b262" class="zr5-cls-2"></path>
<path d="M204.5 80.7675L205.5 80.7675L205.5 83.1687L204.5 83.1687ZM204.5 80.7675M204.5 84.125L204.5 83.1687" fill="#eb5454" stroke="#eb5454" class="zr5-cls-3"></path>
<path d="M206.5 84.0613L207.5 84.0613L207.5 84.38L206.5 84.38ZM207.5 81.83L207.5 84.0613M207.5 84.9538L207.5 84.38" fill="#47b262" stroke="#47b262" class="zr5-cls-2"></path>
<path d="M209.5 79.79L210.5 79.79L210.5 85.06L209.5 85.06ZM209.5 79.4713L209.5 79.79M209.5 85.4L209.5 85.06" fill="#47b262" stroke="#47b262" class="zr5-cls-2"></path>
<path d="M212.5 79.62L213.5 79.62L213.5 79.875L212.5 79.875ZM212.5 79.025L212.5 79.62M212.5 82.9988L212.5 79.875" fill="#eb5454" stroke="#eb5454" class="zr5-cls-3"></path>
<path d="M215.5 80.2575L216.5 80.2575L216.5 80.8313L215.5 80.8313ZM215.5 78.8763L215.5 80.2575M215.5 81.9363L215.5 80.8313" fill="#eb5454" stroke="#eb5454" class="zr5-cls-3"></path>
<path d="M217.5 79.8113L218.5 79.8113L218.5 82.425L217.5 82.425ZM218.5 79.11L218.5 79.8113M218.5 82.8075L218.5 82.425" fill="#47b262" stroke="#47b262" class="zr5-cls-2"></path>
<path d="M220.5 80.9588L221.5 80.9588L221.5 81.065L220.5 81.065ZM220.5 79.1525L220.5 80.9588M220.5 81.2775L220.5 81.065" fill="#47b262" stroke="#47b262" class="zr5-cls-2"></path>
<path d="M223.5 79.1525L224.5 79.1525L224.5 81.6388L223.5 81.6388ZM223.5 78.8125L223.5 79.1525M223.5 82.085L223.5 81.6388" fill="#47b262" stroke="#47b262" class="zr5-cls-2"></path>
<path d="M226.5 79.1737L226.5 82.5313ZM226.5 76.305L226.5 79.1737M226.5 82.7863L226.5 82.5313" fill="#eb5454" stroke="#eb5454" class="zr5-cls-3"></path>
<path d="M228.5 79.4713L229.5 79.4713L229.5 81.2775L228.5 81.2775ZM229.5 77.9413L229.5 79.4713M229.5 82.2337L229.5 81.2775" fill="#47b262" stroke="#47b262" class="zr5-cls-2"></path>
<path d="M231.5 76.4962L232.5 76.4962L232.5 79.705L231.5 79.705ZM231.5 75.115L231.5 76.4962M231.5 80.5762L231.5 79.705" fill="#47b262" stroke="#47b262" class="zr5-cls-2"></path>
<path d="M234.5 76.4538L235.5 76.4538L235.5 79.875L234.5 79.875ZM234.5 76.0712L234.5 76.4538M234.5 81.4475L234.5 79.875" fill="#eb5454" stroke="#eb5454" class="zr5-cls-3"></path>
<path d="M237.5 76.7088L237.5 79.875ZM237.5 74.1375L237.5 76.7088M237.5 80.3L237.5 79.875" fill="#47b262" stroke="#47b262" class="zr5-cls-2"></path>
<path d="M239.5 73.9037L240.5 73.9037L240.5 75.4975L239.5 75.4975ZM239.5 73.3088L239.5 73.9037M239.5 77.1763L239.5 75.4975" fill="#47b262" stroke="#47b262" class="zr5-cls-2"></path>
<path d="M242.5 73.415L243.5 73.415L243.5 74.7538L242.5 74.7538ZM242.5 70.3975L242.5 73.415M242.5 77.5375L242.5 74.7538" fill="#eb5454" stroke="#eb5454" class="zr5-cls-3"></path>
<path d="M245.5 75.6463L246.5 75.6463L246.5 81.8725L245.5 81.8725ZM245.5 75.0513L245.5 75.6463M245.5 82L245.5 81.8725" fill="#eb5454" stroke="#eb5454" class="zr5-cls-3"></path>
<path d="M247.5 82.6588L248.5 82.6588L248.5 82.9138L247.5 82.9138ZM248.5 80.895L248.5 82.6588M248.5 85.8038L248.5 82.9138" fill="#47b262" stroke="#47b262" class="zr5-cls-2"></path>
<path d="M250.5 86.2287L251.5 86.2287L251.5 95.8763L250.5 95.8763ZM250.5 85.3363L250.5 86.2287M250.5 97.0663L250.5 95.8763" fill="#eb5454" stroke="#eb5454" class="zr5-cls-3"></path>
<path d="M253.5 93.73L254.5 93.73L254.5 97.4487L253.5 97.4487ZM253.5 92.9225L253.5 93.73M253.5 100.19L253.5 97.4487" fill="#47b262" stroke="#47b262" class="zr5-cls-2"></path>
<path d="M256.5 95.3237L257.5 95.3237L257.5 105.0988L256.5 105.0988ZM256.5 94.75L256.5 95.3237M256.5 107.925L256.5 105.0988" fill="#eb5454" stroke="#eb5454" class="zr5-cls-3"></path>
<path d="M258.5 103.4838L259.5 103.4838L259.5 108.3925L258.5 108.3925ZM259.5 101.125L259.5 103.4838M259.5 109.625L259.5 108.3925" fill="#eb5454" stroke="#eb5454" class="zr5-cls-3"></path>
<path d="M261.5 106.8625L262.5 106.8625L262.5 110.2838L261.5 110.2838ZM261.5 106.8625M261.5 113.9388L261.5 110.2838" fill="#eb5454" stroke="#eb5454" class="zr5-cls-3"></path>
<path d="M264.5 110.2413L265.5 110.2413L265.5 115.915L264.5 115.915ZM264.5 109.9012L264.5 110.2413M264.5 116.1487L264.5 115.915" fill="#eb5454" stroke="#eb5454" class="zr5-cls-3"></path>
<path d="M267.5 111.5163L267.5 114.895ZM267.5 111.2188L267.5 111.5163M267.5 115.66L267.5 114.895" fill="#47b262" stroke="#47b262" class="zr5-cls-2"></path>
<path d="M269.5 109.455L270.5 109.455L270.5 112.3663L269.5 112.3663ZM270.5 108.6688L270.5 109.455M270.5 113.875L270.5 112.3663" fill="#47b262" stroke="#47b262" class="zr5-cls-2"></path>
<path d="M272.5 109.1363L273.5 109.1363L273.5 111.155L272.5 111.155ZM272.5 108.8387L272.5 109.1363M272.5 112.43L272.5 111.155" fill="#eb5454" stroke="#eb5454" class="zr5-cls-3"></path>
<path d="M275.5 109.2213L276.5 109.2213L276.5 111.1763L275.5 111.1763ZM275.5 108.4988L275.5 109.2213M275.5 111.8563L275.5 111.1763" fill="#47b262" stroke="#47b262" class="zr5-cls-2"></path>
<path d="M278.5 109.03L278.5 109.9438ZM278.5 108.1588L278.5 109.03M278.5 110.3262L278.5 109.9438" fill="#47b262" stroke="#47b262" class="zr5-cls-2"></path>
<path d="M280.5 111.8775L281.5 111.8775L281.5 113.7263L280.5 113.7263ZM280.5 111.7288L280.5 111.8775M280.5 115.3838L280.5 113.7263" fill="#eb5454" stroke="#eb5454" class="zr5-cls-3"></path>
<path d="M283.5 111.6863L284.5 111.6863L284.5 116.595L283.5 116.595ZM283.5 111.325L283.5 111.6863M283.5 116.7863L283.5 116.595" fill="#eb5454" stroke="#eb5454" class="zr5-cls-3"></path>
<path d="M286.5 115.5963L287.5 115.5963L287.5 116.255L286.5 116.255ZM286.5 113.9388L286.5 115.5963M286.5 118.6138L286.5 116.255" fill="#eb5454" stroke="#eb5454" class="zr5-cls-3"></path>
<path d="M288.5 111.8138L289.5 111.8138L289.5 116L288.5 116ZM289.5 110.9213L289.5 111.8138M289.5 116" fill="#47b262" stroke="#47b262" class="zr5-cls-2"></path>
<path d="M291.5 109.9438L292.5 109.9438L292.5 111.9625L291.5 111.9625ZM291.5 107.67L291.5 109.9438M291.5 112.7275L291.5 111.9625" fill="#47b262" stroke="#47b262" class="zr5-cls-2"></path>
<path d="M294.5 111.75L295.5 111.75L295.5 112.3238L294.5 112.3238ZM294.5 110.7088L294.5 111.75M294.5 113.7475L294.5 112.3238" fill="#eb5454" stroke="#eb5454" class="zr5-cls-3"></path>
<path d="M297.5 111.5588L298.5 111.5588L298.5 114.6825L297.5 114.6825ZM297.5 110.0075L297.5 111.5588M297.5 119.0175L297.5 114.6825" fill="#47b262" stroke="#47b262" class="zr5-cls-2"></path>
<path d="M299.5 111.2613L300.5 111.2613L300.5 112.0688L299.5 112.0688ZM300.5 109.8375L300.5 111.2613M300.5 113.5988L300.5 112.0688" fill="#47b262" stroke="#47b262" class="zr5-cls-2"></path>
<path d="M302.5 108.7538L303.5 108.7538L303.5 113.0038L302.5 113.0038ZM302.5 108.0313L302.5 108.7538M302.5 113.0038" fill="#47b262" stroke="#47b262" class="zr5-cls-2"></path>
<path d="M305.5 121.6313L306.5 121.6313L306.5 132.4475L305.5 132.4475ZM305.5 121.5463L305.5 121.6313M305.5 133.7437L305.5 132.4475" fill="#eb5454" stroke="#eb5454" class="zr5-cls-3"></path>
<path d="M308.5 140.0975L308.5 145.5375ZM308.5 138.4612L308.5 140.0975M308.5 147.2375L308.5 145.5375" fill="#eb5454" stroke="#eb5454" class="zr5-cls-3"></path>
<path d="M310.5 150L311.5 150L311.5 152.9113L310.5 152.9113ZM311.5 143.0513L311.5 150M311.5 158.1812L311.5 152.9113" fill="#47b262" stroke="#47b262" class="zr5-cls-2"></path>
<path d="M313.5 143.4763L314.5 143.4763L314.5 150.6588L313.5 150.6588ZM313.5 142.605L313.5 143.4763M313.5 152.7838L313.5 150.6588" fill="#eb5454" stroke="#eb5454" class="zr5-cls-3"></path>
<path d="M316.5 131.555L317.5 131.555L317.5 151.6363L316.5 151.6363ZM316.5 130.5988L316.5 131.555M316.5 154.3987L316.5 151.6363" fill="#47b262" stroke="#47b262" class="zr5-cls-2"></path>
<path d="M319.5 137.0162L319.5 140.225ZM319.5 136.0175L319.5 137.0162M319.5 146.4513L319.5 140.225" fill="#eb5454" stroke="#eb5454" class="zr5-cls-3"></path>
<path d="M321.5 138.4612L322.5 138.4612L322.5 140.5863L321.5 140.5863ZM321.5 137.6325L321.5 138.4612M321.5 145.58L321.5 140.5863" fill="#47b262" stroke="#47b262" class="zr5-cls-2"></path>
<path d="M324.5 136.57L325.5 136.57L325.5 138.3338L324.5 138.3338ZM324.5 135.6138L324.5 136.57M324.5 142.775L324.5 138.3338" fill="#eb5454" stroke="#eb5454" class="zr5-cls-3"></path>
<path d="M327.5 138.3125L328.5 138.3125L328.5 142.1163L327.5 142.1163ZM327.5 137.1225L327.5 138.3125M327.5 142.6475L327.5 142.1163" fill="#eb5454" stroke="#eb5454" class="zr5-cls-3"></path>
<path d="M329.5 142.9875L330.5 142.9875L330.5 148.385L329.5 148.385ZM330.5 142.52L330.5 142.9875M330.5 150.2338L330.5 148.385" fill="#eb5454" stroke="#eb5454" class="zr5-cls-3"></path>
<path d="M332.5 146.8125L333.5 146.8125L333.5 147.3438L332.5 147.3438ZM332.5 144.5813L332.5 146.8125M332.5 147.45L332.5 147.3438" fill="#47b262" stroke="#47b262" class="zr5-cls-2"></path>
<path d="M335.5 148.555L336.5 148.555L336.5 149.235L335.5 149.235ZM335.5 148.2575L335.5 148.555M335.5 153.9738L335.5 149.235" fill="#47b262" stroke="#47b262" class="zr5-cls-2"></path>
<path d="M338.5 145.9413L339.5 145.9413L339.5 146.2813L338.5 146.2813ZM338.5 142.5838L338.5 145.9413M338.5 146.5575L338.5 146.2813" fill="#eb5454" stroke="#eb5454" class="zr5-cls-3"></path>
<path d="M340.5 141.5L341.5 141.5L341.5 144.0287L340.5 144.0287ZM341.5 137.8025L341.5 141.5M341.5 144.3687L341.5 144.0287" fill="#eb5454" stroke="#eb5454" class="zr5-cls-3"></path>
<path d="M343.5 141.7975L344.5 141.7975L344.5 144.9213L343.5 144.9213ZM343.5 141.2025L343.5 141.7975M343.5 146.6425L343.5 144.9213" fill="#47b262" stroke="#47b262" class="zr5-cls-2"></path>
<path d="M346.5 141.9038L347.5 141.9038L347.5 142.2863L346.5 142.2863ZM346.5 141.5213L346.5 141.9038M346.5 144.7725L346.5 142.2863" fill="#47b262" stroke="#47b262" class="zr5-cls-2"></path>
<path d="M349.5 140.7988L349.5 141.7125ZM349.5 139.2475L349.5 140.7988M349.5 143.0513L349.5 141.7125" fill="#eb5454" stroke="#eb5454" class="zr5-cls-3"></path>
<path d="M351.5 139.6938L352.5 139.6938L352.5 142.265L351.5 142.265ZM352.5 139.2263L352.5 139.6938M352.5 143.2L352.5 142.265" fill="#47b262" stroke="#47b262" class="zr5-cls-2"></path>
<path d="M354.5 149.8937L355.5 149.8937L355.5 157.7137L354.5 157.7137ZM354.5 149.405L354.5 149.8937M354.5 159.5625L354.5 157.7137" fill="#47b262" stroke="#47b262" class="zr5-cls-2"></path>
<path d="M357.5 145.7288L358.5 145.7288L358.5 148.4913L357.5 148.4913ZM357.5 144.2413L357.5 145.7288M357.5 149.4263L357.5 148.4913" fill="#47b262" stroke="#47b262" class="zr5-cls-2"></path>
<path d="M360.5 140.0338L360.5 144.4963ZM360.5 139.7363L360.5 140.0338M360.5 145.6438L360.5 144.4963" fill="#47b262" stroke="#47b262" class="zr5-cls-2"></path>
<path d="M362.5 141.5L363.5 141.5L363.5 146.4725L362.5 146.4725ZM362.5 141.33L362.5 141.5M362.5 146.6212L362.5 146.4725" fill="#eb5454" stroke="#eb5454" class="zr5-cls-3"></path>
<path d="M365.5 144.0925L366.5 144.0925L366.5 147.875L365.5 147.875ZM365.5 142.8387L365.5 144.0925M365.5 148.7038L365.5 147.875" fill="#47b262" stroke="#47b262" class="zr5-cls-2"></path>
<path d="M368.5 143.6888L369.5 143.6888L369.5 144.2413L368.5 144.2413ZM368.5 143.1363L368.5 143.6888M368.5 145.4525L368.5 144.2413" fill="#eb5454" stroke="#eb5454" class="zr5-cls-3"></path>
<path d="M370.5 142.9025L371.5 142.9025L371.5 145.3463L370.5 145.3463ZM371.5 142.35L371.5 142.9025M371.5 146.4088L371.5 145.3463" fill="#eb5454" stroke="#eb5454" class="zr5-cls-3"></path>
<path d="M373.5 144.8788L374.5 144.8788L374.5 149.3625L373.5 149.3625ZM373.5 144.3262L373.5 144.8788M373.5 149.575L373.5 149.3625" fill="#eb5454" stroke="#eb5454" class="zr5-cls-3"></path>
<path d="M376.5 137.9513L377.5 137.9513L377.5 142.2437L376.5 142.2437ZM376.5 136.1025L376.5 137.9513M376.5 142.265L376.5 142.2437" fill="#47b262" stroke="#47b262" class="zr5-cls-2"></path>
<path d="M379.5 135.38L380.5 135.38L380.5 137.5263L379.5 137.5263ZM379.5 134.8275L379.5 135.38M379.5 139.1625L379.5 137.5263" fill="#47b262" stroke="#47b262" class="zr5-cls-2"></path>
<path d="M381.5 135.7413L382.5 135.7413L382.5 136.1025L381.5 136.1025ZM382.5 133.7863L382.5 135.7413M382.5 137.8025L382.5 136.1025" fill="#eb5454" stroke="#eb5454" class="zr5-cls-3"></path>
<path d="M384.5 134.5725L385.5 134.5725L385.5 136.1025L384.5 136.1025ZM384.5 133.4675L384.5 134.5725M384.5 137.6325L384.5 136.1025" fill="#47b262" stroke="#47b262" class="zr5-cls-2"></path>
<path d="M387.5 135.9325L388.5 135.9325L388.5 138.1638L387.5 138.1638ZM387.5 135.3163L387.5 135.9325M387.5 140.905L387.5 138.1638" fill="#eb5454" stroke="#eb5454" class="zr5-cls-3"></path>
<path d="M390.5 140.2038L390.5 140.5438ZM390.5 139.0775L390.5 140.2038M390.5 141.2663L390.5 140.5438" fill="#47b262" stroke="#47b262" class="zr5-cls-2"></path>
<path d="M392.5 138.1212L393.5 138.1212L393.5 140.395L392.5 140.395ZM392.5 136.9312L392.5 138.1212M392.5 140.5438L392.5 140.395" fill="#47b262" stroke="#47b262" class="zr5-cls-2"></path>
<path d="M395.5 140.6288L396.5 140.6288L396.5 143.6675L395.5 143.6675ZM395.5 138.2913L395.5 140.6288M395.5 144.6663L395.5 143.6675" fill="#eb5454" stroke="#eb5454" class="zr5-cls-3"></path>
<path d="M398.5 141.5638L399.5 141.5638L399.5 143.1575L398.5 143.1575ZM398.5 140.48L398.5 141.5638M398.5 144.22L398.5 143.1575" fill="#47b262" stroke="#47b262" class="zr5-cls-2"></path>
<path d="M401.5 140.65L401.5 144.5175ZM401.5 139.7363L401.5 140.65M401.5 144.5388L401.5 144.5175" fill="#47b262" stroke="#47b262" class="zr5-cls-2"></path>
<path d="M403.5 135.1038L404.5 135.1038L404.5 138.4612L403.5 138.4612ZM403.5 134.9338L403.5 135.1038M403.5 138.9075L403.5 138.4612" fill="#47b262" stroke="#47b262" class="zr5-cls-2"></path>
<path d="M406.5 134.2113L407.5 134.2113L407.5 137.25L406.5 137.25ZM406.5 133.85L406.5 134.2113M406.5 140.3525L406.5 137.25" fill="#eb5454" stroke="#eb5454" class="zr5-cls-3"></path>
<path d="M409.5 139.5875L410.5 139.5875L410.5 141.3937L409.5 141.3937ZM409.5 137.8875L409.5 139.5875M409.5 142.1375L409.5 141.3937" fill="#eb5454" stroke="#eb5454" class="zr5-cls-3"></path>
<path d="M411.5 141.6063L412.5 141.6063L412.5 141.6275L411.5 141.6275ZM412.5 140.9263L412.5 141.6063M412.5 143.2213L412.5 141.6275" fill="#47b262" stroke="#47b262" class="zr5-cls-2"></path>
<path d="M414.5 138.9713L415.5 138.9713L415.5 143.03L414.5 143.03ZM414.5 138.7375L414.5 138.9713M414.5 143.2213L414.5 143.03" fill="#47b262" stroke="#47b262" class="zr5-cls-2"></path>
<path d="M417.5 135.975L418.5 135.975L418.5 139.2263L417.5 139.2263ZM417.5 134.0838L417.5 135.975M417.5 140.65L417.5 139.2263" fill="#47b262" stroke="#47b262" class="zr5-cls-2"></path>
<path d="M420.5 132.7663L421.5 132.7663L421.5 135.9113L420.5 135.9113ZM420.5 131.8525L420.5 132.7663M420.5 137.2075L420.5 135.9113" fill="#47b262" stroke="#47b262" class="zr5-cls-2"></path>
<path d="M422.5 132.6175L423.5 132.6175L423.5 135.1463L422.5 135.1463ZM423.5 132.1288L423.5 132.6175M423.5 135.4225L423.5 135.1463" fill="#eb5454" stroke="#eb5454" class="zr5-cls-3"></path>
<path d="M425.5 129.515L426.5 129.515L426.5 132.15L425.5 132.15ZM425.5 128.9838L425.5 129.515M425.5 132.49L425.5 132.15" fill="#47b262" stroke="#47b262" class="zr5-cls-2"></path>
<path d="M428.5 127.3262L429.5 127.3262L429.5 130.705L428.5 130.705ZM428.5 126.3275L428.5 127.3262M428.5 130.705" fill="#47b262" stroke="#47b262" class="zr5-cls-2"></path>
<path d="M431.5 125.7113L431.5 128.9625ZM431.5 124.7337L431.5 125.7113M431.5 129.7488L431.5 128.9625" fill="#47b262" stroke="#47b262" class="zr5-cls-2"></path>
<path d="M433.5 117.2962L434.5 117.2962L434.5 124.2663L433.5 124.2663ZM433.5 116.1913L433.5 117.2962M433.5 124.5L433.5 124.2663" fill="#47b262" stroke="#47b262" class="zr5-cls-2"></path>
<path d="M436.5 118.805L437.5 118.805L437.5 119.57L436.5 119.57ZM436.5 117.9763L436.5 118.805M436.5 120.3138L436.5 119.57" fill="#eb5454" stroke="#eb5454" class="zr5-cls-3"></path>
<path d="M439.5 121.3125L440.5 121.3125L440.5 121.8225L439.5 121.8225ZM439.5 118.9538L439.5 121.3125M439.5 122.035L439.5 121.8225" fill="#eb5454" stroke="#eb5454" class="zr5-cls-3"></path>
<path d="M442.5 120.2925L442.5 121.355ZM442.5 119.3362L442.5 120.2925M442.5 122.5025L442.5 121.355" fill="#eb5454" stroke="#eb5454" class="zr5-cls-3"></path>
<path d="M444.5 122.035L445.5 122.035L445.5 125.3713L444.5 125.3713ZM444.5 121.9288L444.5 122.035M444.5 127.0713L444.5 125.3713" fill="#eb5454" stroke="#eb5454" class="zr5-cls-3"></path>
<path d="M447.5 123.905L448.5 123.905L448.5 124.755L447.5 124.755ZM447.5 123.2675L447.5 123.905M447.5 126.1363L447.5 124.755" fill="#47b262" stroke="#47b262" class="zr5-cls-2"></path>
<path d="M450.5 122.12L451.5 122.12L451.5 122.205L450.5 122.205ZM450.5 120.675L450.5 122.12M450.5 123.65L450.5 122.205" fill="#47b262" stroke="#47b262" class="zr5-cls-2"></path>
<path d="M452.5 121.95L453.5 121.95L453.5 123.7775L452.5 123.7775ZM453.5 121.9288L453.5 121.95M453.5 127.1775L453.5 123.7775" fill="#eb5454" stroke="#eb5454" class="zr5-cls-3"></path>
<path d="M455.5 122.5663L456.5 122.5663L456.5 125.5625L455.5 125.5625ZM455.5 120.59L455.5 122.5663M455.5 128.0912L455.5 125.5625" fill="#eb5454" stroke="#eb5454" class="zr5-cls-3"></path>
<path d="M458.5 125.01L459.5 125.01L459.5 126.4125L458.5 126.4125ZM458.5 124.5L458.5 125.01M458.5 127.4325L458.5 126.4125" fill="#eb5454" stroke="#eb5454" class="zr5-cls-3"></path>
<path d="M461.5 124.2875L462.5 124.2875L462.5 124.84L461.5 124.84ZM461.5 124.075L461.5 124.2875M461.5 127.8575L461.5 124.84" fill="#eb5454" stroke="#eb5454" class="zr5-cls-3"></path>
<path d="M463.5 124.2663L464.5 124.2663L464.5 124.9888L463.5 124.9888ZM464.5 122.97L464.5 124.2663M464.5 128.0487L464.5 124.9888" fill="#47b262" stroke="#47b262" class="zr5-cls-2"></path>
<path d="M466.5 123.6075L467.5 123.6075L467.5 125.2863L466.5 125.2863ZM466.5 119.91L466.5 123.6075M466.5 126.455L466.5 125.2863" fill="#eb5454" stroke="#eb5454" class="zr5-cls-3"></path>
<path d="M469.5 118.295L470.5 118.295L470.5 125.4775L469.5 125.4775ZM469.5 116.2975L469.5 118.295M469.5 125.4775" fill="#47b262" stroke="#47b262" class="zr5-cls-2"></path>
<path d="M472.5 117.53L472.5 119.8675ZM472.5 117.4875L472.5 117.53M472.5 121.6313L472.5 119.8675" fill="#eb5454" stroke="#eb5454" class="zr5-cls-3"></path>
<path d="M474.5 119.315L475.5 119.315L475.5 119.825L474.5 119.825ZM474.5 118.8687L474.5 119.315M474.5 120.76L474.5 119.825" fill="#47b262" stroke="#47b262" class="zr5-cls-2"></path>
<path d="M477.5 119.91L478.5 119.91L478.5 121.015L477.5 121.015ZM477.5 118.2313L477.5 119.91M477.5 122.4388L477.5 121.015" fill="#eb5454" stroke="#eb5454" class="zr5-cls-3"></path>
<path d="M480.5 118.2525L481.5 118.2525L481.5 120.1225L480.5 120.1225ZM480.5 116.5313L480.5 118.2525M480.5 120.7175L480.5 120.1225" fill="#47b262" stroke="#47b262" class="zr5-cls-2"></path>
<path d="M482.5 112.7063L483.5 112.7063L483.5 117.5938L482.5 117.5938ZM483.5 111.9838L483.5 112.7063M483.5 118.8475L483.5 117.5938" fill="#eb5454" stroke="#eb5454" class="zr5-cls-3"></path>
<path d="M485.5 117.8062L486.5 117.8062L486.5 118.38L485.5 118.38ZM485.5 116.5525L485.5 117.8062M485.5 121.2063L485.5 118.38" fill="#47b262" stroke="#47b262" class="zr5-cls-2"></path>
<path d="M488.5 118.2525L489.5 118.2525L489.5 119.4638L488.5 119.4638ZM488.5 117.445L488.5 118.2525M488.5 119.9525L488.5 119.4638" fill="#47b262" stroke="#47b262" class="zr5-cls-2"></path>
<path d="M491.5 120.93L492.5 120.93L492.5 121.4825L491.5 121.4825ZM491.5 120.335L491.5 120.93M491.5 123.9263L491.5 121.4825" fill="#eb5454" stroke="#eb5454" class="zr5-cls-3"></path>
<path d="M493.5 121.0575L494.5 121.0575L494.5 123.48L493.5 123.48ZM494.5 119.6125L494.5 121.0575M494.5 124.1813L494.5 123.48" fill="#eb5454" stroke="#eb5454" class="zr5-cls-3"></path>
<path d="M496.5 123.0975L497.5 123.0975L497.5 123.4163L496.5 123.4163ZM496.5 121.78L496.5 123.0975M496.5 125.435L496.5 123.4163" fill="#eb5454" stroke="#eb5454" class="zr5-cls-3"></path>
<path d="M499.5 121.9713L500.5 121.9713L500.5 127.1988L499.5 127.1988ZM499.5 121.7587L499.5 121.9713M499.5 127.5388L499.5 127.1988" fill="#47b262" stroke="#47b262" class="zr5-cls-2"></path>
<path d="M502.5 120.165L502.5 120.675ZM502.5 119.2725L502.5 120.165M502.5 121.8438L502.5 120.675" fill="#eb5454" stroke="#eb5454" class="zr5-cls-3"></path>
<path d="M504.5 119.6125L505.5 119.6125L505.5 123.0975L504.5 123.0975ZM505.5 117.5088L505.5 119.6125M505.5 123.2037L505.5 123.0975" fill="#eb5454" stroke="#eb5454" class="zr5-cls-3"></path>
<path d="M507.5 114.0025L508.5 114.0025L508.5 122.4813L507.5 122.4813ZM507.5 113.535L507.5 114.0025M507.5 122.6938L507.5 122.4813" fill="#47b262" stroke="#47b262" class="zr5-cls-2"></path>
<path d="M510.5 113.1313L511.5 113.1313L511.5 116.17L510.5 116.17ZM510.5 111.3675L510.5 113.1313M510.5 116.9775L510.5 116.17" fill="#eb5454" stroke="#eb5454" class="zr5-cls-3"></path>
<path d="M513.5 117.0625L513.5 120.8875ZM513.5 116.8925L513.5 117.0625M513.5 121.4825L513.5 120.8875" fill="#eb5454" stroke="#eb5454" class="zr5-cls-3"></path>
<path d="M515.5 119.3575L516.5 119.3575L516.5 121.525L515.5 121.525ZM515.5 119.23L515.5 119.3575M515.5 123.8413L515.5 121.525" fill="#47b262" stroke="#47b262" class="zr5-cls-2"></path>
<path d="M518.5 118.2738L519.5 118.2738L519.5 120.9513L518.5 120.9513ZM518.5 116.5525L518.5 118.2738M518.5 121.3975L518.5 120.9513" fill="#eb5454" stroke="#eb5454" class="zr5-cls-3"></path>
<path d="M521.5 121.8438L522.5 121.8438L522.5 122.46L521.5 122.46ZM521.5 119.4213L521.5 121.8438M521.5 124.9675L521.5 122.46" fill="#eb5454" stroke="#eb5454" class="zr5-cls-3"></path>
<path d="M523.5 112.1112L524.5 112.1112L524.5 122.885L523.5 122.885ZM524.5 109.8587L524.5 112.1112M524.5 128.6013L524.5 122.885" fill="#eb5454" stroke="#eb5454" class="zr5-cls-3"></path>
<path d="M526.5 125.35L527.5 125.35L527.5 130.535L526.5 130.535ZM526.5 122.2263L526.5 125.35M526.5 132.0862L526.5 130.535" fill="#eb5454" stroke="#eb5454" class="zr5-cls-3"></path>
<path d="M529.5 132.1712L530.5 132.1712L530.5 135.4225L529.5 135.4225ZM529.5 131.9375L529.5 132.1712M529.5 138.3338L529.5 135.4225" fill="#eb5454" stroke="#eb5454" class="zr5-cls-3"></path>
<path d="M532.5 129.2175L533.5 129.2175L533.5 134.955L532.5 134.955ZM532.5 128.5162L532.5 129.2175M532.5 135.2525L532.5 134.955" fill="#47b262" stroke="#47b262" class="zr5-cls-2"></path>
<path d="M534.5 128.325L535.5 128.325L535.5 129.4937L534.5 129.4937ZM535.5 127.56L535.5 128.325M535.5 130.2163L535.5 129.4937" fill="#47b262" stroke="#47b262" class="zr5-cls-2"></path>
<path d="M537.5 128.3038L538.5 128.3038L538.5 130.8963L537.5 130.8963ZM537.5 127.985L537.5 128.3038M537.5 131.2575L537.5 130.8963" fill="#eb5454" stroke="#eb5454" class="zr5-cls-3"></path>
<path d="M540.5 126.5825L541.5 126.5825L541.5 129.3238L540.5 129.3238ZM540.5 125.86L540.5 126.5825M540.5 129.8338L540.5 129.3238" fill="#47b262" stroke="#47b262" class="zr5-cls-2"></path>
<path d="M543.5 124.245L543.5 127.1138ZM543.5 124.0538L543.5 124.245M543.5 127.1563L543.5 127.1138" fill="#47b262" stroke="#47b262" class="zr5-cls-2"></path>
<path d="M545.5 124.415L546.5 124.415L546.5 125.0525L545.5 125.0525ZM546.5 123.565L546.5 124.415M546.5 127.7088L546.5 125.0525" fill="#eb5454" stroke="#eb5454" class="zr5-cls-3"></path>
<path d="M548.5 121.44L549.5 121.44L549.5 121.5888L548.5 121.5888ZM548.5 118.4438L548.5 121.44M548.5 122.205L548.5 121.5888" fill="#eb5454" stroke="#eb5454" class="zr5-cls-3"></path>
<path d="M551.5 119.8675L552.5 119.8675L552.5 121.9925L551.5 121.9925ZM551.5 118.7838L551.5 119.8675M551.5 122.9275L551.5 121.9925" fill="#47b262" stroke="#47b262" class="zr5-cls-2"></path>
<path d="M554.5 121.0787L554.5 122.2475ZM554.5 121.0787M554.5 124.33L554.5 122.2475" fill="#eb5454" stroke="#eb5454" class="zr5-cls-3"></path>
<path d="M556.5 123.3313L557.5 123.3313L557.5 127.475L556.5 127.475ZM556.5 122.9488L556.5 123.3313M556.5 127.9638L556.5 127.475" fill="#eb5454" stroke="#eb5454" class="zr5-cls-3"></path>
<path d="M559.5 123.3525L560.5 123.3525L560.5 128.0912L559.5 128.0912ZM559.5 121.1425L559.5 123.3525M559.5 128.9625L559.5 128.0912" fill="#47b262" stroke="#47b262" class="zr5-cls-2"></path>
<path d="M562.5 123.3525L563.5 123.3525L563.5 126.7737L562.5 126.7737ZM562.5 122.4388L562.5 123.3525M562.5 127.1988L562.5 126.7737" fill="#eb5454" stroke="#eb5454" class="zr5-cls-3"></path>
<path d="M564.5 126.71L565.5 126.71L565.5 129.7913L564.5 129.7913ZM565.5 125.945L565.5 126.71M565.5 129.9188L565.5 129.7913" fill="#eb5454" stroke="#eb5454" class="zr5-cls-3"></path>
<path d="M567.5 130.8113L568.5 130.8113L568.5 131.81L567.5 131.81ZM567.5 130.4713L567.5 130.8113M567.5 132.7663L567.5 131.81" fill="#eb5454" stroke="#eb5454" class="zr5-cls-3"></path>
<path d="M570.5 130.5988L571.5 130.5988L571.5 132.1925L570.5 132.1925ZM570.5 129.0688L570.5 130.5988M570.5 132.3413L570.5 132.1925" fill="#eb5454" stroke="#eb5454" class="zr5-cls-3"></path>
<path d="M573.5 132.5325L574.5 132.5325L574.5 137.6537L573.5 137.6537ZM573.5 132.32L573.5 132.5325M573.5 137.8663L573.5 137.6537" fill="#eb5454" stroke="#eb5454" class="zr5-cls-3"></path>
<path d="M575.5 135.9113L576.5 135.9113L576.5 137.4838L575.5 137.4838ZM576.5 134.7L576.5 135.9113M576.5 138.1638L576.5 137.4838" fill="#47b262" stroke="#47b262" class="zr5-cls-2"></path>
<path d="M578.5 133.7225L579.5 133.7225L579.5 135.9113L578.5 135.9113ZM578.5 132.3413L578.5 133.7225M578.5 136.1875L578.5 135.9113" fill="#47b262" stroke="#47b262" class="zr5-cls-2"></path>
<path d="M581.5 132.5325L582.5 132.5325L582.5 132.9575L581.5 132.9575ZM581.5 132.0225L581.5 132.5325M581.5 133.85L581.5 132.9575" fill="#eb5454" stroke="#eb5454" class="zr5-cls-3"></path>
<path d="M584.5 132.5963L584.5 133ZM584.5 131.7888L584.5 132.5963M584.5 134.275L584.5 133" fill="#47b262" stroke="#47b262" class="zr5-cls-2"></path>
<path d="M586.5 129.2175L587.5 129.2175L587.5 133.34L586.5 133.34ZM587.5 128.7713L587.5 129.2175M587.5 134.7425L587.5 133.34" fill="#47b262" stroke="#47b262" class="zr5-cls-2"></path>
<path d="M589.5 130.025L590.5 130.025L590.5 134.5938L589.5 134.5938ZM589.5 129.855L589.5 130.025M589.5 136.6338L589.5 134.5938" fill="#eb5454" stroke="#eb5454" class="zr5-cls-3"></path>
<path d="M592.5 134.7637L593.5 134.7637L593.5 135.1038L592.5 135.1038ZM592.5 133.4888L592.5 134.7637M592.5 136.4213L592.5 135.1038" fill="#eb5454" stroke="#eb5454" class="zr5-cls-3"></path>
<path d="M595.5 135.4225L595.5 138.4612ZM595.5 134.3813L595.5 135.4225M595.5 139.2475L595.5 138.4612" fill="#eb5454" stroke="#eb5454" class="zr5-cls-3"></path>
<path d="M597.5 138.3125L598.5 138.3125L598.5 141.1387L597.5 141.1387ZM597.5 138.3125M597.5 142.18L597.5 141.1387" fill="#eb5454" stroke="#eb5454" class="zr5-cls-3"></path>
<path d="M600.5 141.075L601.5 141.075L601.5 141.9038L600.5 141.9038ZM600.5 140.055L600.5 141.075M600.5 143.0513L600.5 141.9038" fill="#eb5454" stroke="#eb5454" class="zr5-cls-3"></path>
<path d="M603.5 141.7762L604.5 141.7762L604.5 143.88L603.5 143.88ZM603.5 141.5L603.5 141.7762M603.5 144.1138L603.5 143.88" fill="#eb5454" stroke="#eb5454" class="zr5-cls-3"></path>
<path d="M605.5 143.0088L606.5 143.0088L606.5 144.985L605.5 144.985ZM606.5 141.6488L606.5 143.0088M606.5 145.4738L606.5 144.985" fill="#eb5454" stroke="#eb5454" class="zr5-cls-3"></path>
<path d="M608.5 144.9638L609.5 144.9638L609.5 145.9625L608.5 145.9625ZM608.5 144.6025L608.5 144.9638M608.5 147.45L608.5 145.9625" fill="#eb5454" stroke="#eb5454" class="zr5-cls-3"></path>
<path d="M611.5 144.305L612.5 144.305L612.5 145.58L611.5 145.58ZM611.5 141.7762L611.5 144.305M611.5 145.7925L611.5 145.58" fill="#47b262" stroke="#47b262" class="zr5-cls-2"></path>
<path d="M614.5 140.7137L615.5 140.7137L615.5 143.5613L614.5 143.5613ZM614.5 139.9488L614.5 140.7137M614.5 143.625L614.5 143.5613" fill="#47b262" stroke="#47b262" class="zr5-cls-2"></path>
<path d="M616.5 140.48L617.5 140.48L617.5 143.1575L616.5 143.1575ZM617.5 139.6725L617.5 140.48M617.5 143.71L617.5 143.1575" fill="#eb5454" stroke="#eb5454" class="zr5-cls-3"></path>
<path d="M619.5 142.7325L620.5 142.7325L620.5 143.3275L619.5 143.3275ZM619.5 142.35L619.5 142.7325M619.5 144.4113L619.5 143.3275" fill="#47b262" stroke="#47b262" class="zr5-cls-2"></path>
<path d="M622.5 140.31L623.5 140.31L623.5 141.2238L622.5 141.2238ZM622.5 138.9075L622.5 140.31M622.5 142.8175L622.5 141.2238" fill="#47b262" stroke="#47b262" class="zr5-cls-2"></path>
<path d="M625.5 138.7587L625.5 141.0113ZM625.5 138.525L625.5 138.7587M625.5 142.1588L625.5 141.0113" fill="#47b262" stroke="#47b262" class="zr5-cls-2"></path>
<path d="M627.5 137.9088L628.5 137.9088L628.5 139.0563L627.5 139.0563ZM628.5 136.8675L628.5 137.9088M628.5 139.6938L628.5 139.0563" fill="#47b262" stroke="#47b262" class="zr5-cls-2"></path>
<path d="M630.5 138.1425L631.5 138.1425L631.5 140.9263L630.5 140.9263ZM630.5 137.9938L630.5 138.1425M630.5 141.2238L630.5 140.9263" fill="#eb5454" stroke="#eb5454" class="zr5-cls-3"></path>
<path d="M633.5 140.3525L634.5 140.3525L634.5 141.8613L633.5 141.8613ZM633.5 140.0762L633.5 140.3525M633.5 143.8588L633.5 141.8613" fill="#eb5454" stroke="#eb5454" class="zr5-cls-3"></path>
<path d="M636.5 141.8188L636.5 142.7963ZM636.5 140.1825L636.5 141.8188M636.5 143.8375L636.5 142.7963" fill="#eb5454" stroke="#eb5454" class="zr5-cls-3"></path>
<path d="M638.5 138.015L639.5 138.015L639.5 142.2437L638.5 142.2437ZM638.5 137.59L638.5 138.015M638.5 142.4563L638.5 142.2437" fill="#47b262" stroke="#47b262" class="zr5-cls-2"></path>
<path d="M641.5 138.8863L642.5 138.8863L642.5 140.225L641.5 140.225ZM641.5 138.8438L641.5 138.8863M641.5 141.1175L641.5 140.225" fill="#eb5454" stroke="#eb5454" class="zr5-cls-3"></path>
<path d="M644.5 140.5225L645.5 140.5225L645.5 140.65L644.5 140.65ZM644.5 139.0775L644.5 140.5225M644.5 141.585L644.5 140.65" fill="#eb5454" stroke="#eb5454" class="zr5-cls-3"></path>
<path d="M646.5 135.72L647.5 135.72L647.5 140.9688L646.5 140.9688ZM647.5 134.5725L647.5 135.72M647.5 141.4363L647.5 140.9688" fill="#47b262" stroke="#47b262" class="zr5-cls-2"></path>
<path d="M649.5 136.1875L650.5 136.1875L650.5 136.3575L649.5 136.3575ZM649.5 135.3375L649.5 136.1875M649.5 137.335L649.5 136.3575" fill="#eb5454" stroke="#eb5454" class="zr5-cls-3"></path>
<path d="M652.5 136.6338L653.5 136.6338L653.5 145.5162L652.5 145.5162ZM652.5 136.6338M652.5 145.6225L652.5 145.5162" fill="#eb5454" stroke="#eb5454" class="zr5-cls-3"></path>
<path d="M655.5 145.41L656.5 145.41L656.5 147.2588L655.5 147.2588ZM655.5 144.7725L655.5 145.41M655.5 148.3213L655.5 147.2588" fill="#eb5454" stroke="#eb5454" class="zr5-cls-3"></path>
<path d="M657.5 147.5988L658.5 147.5988L658.5 149.915L657.5 149.915ZM658.5 147.5988M658.5 150.1488L658.5 149.915" fill="#eb5454" stroke="#eb5454" class="zr5-cls-3"></path>
<path d="M660.5 149.745L661.5 149.745L661.5 150.4675L660.5 150.4675ZM660.5 149.0225L660.5 149.745M660.5 151.2112L660.5 150.4675" fill="#eb5454" stroke="#eb5454" class="zr5-cls-3"></path>
<path d="M663.5 150.7225L664.5 150.7225L664.5 153.2725L663.5 153.2725ZM663.5 147.4288L663.5 150.7225M663.5 153.3788L663.5 153.2725" fill="#eb5454" stroke="#eb5454" class="zr5-cls-3"></path>
<path d="M666.5 149.9363L666.5 152.4438ZM666.5 149.065L666.5 149.9363M666.5 153.1663L666.5 152.4438" fill="#47b262" stroke="#47b262" class="zr5-cls-2"></path>
<path d="M668.5 147.5563L669.5 147.5563L669.5 151.5938L668.5 151.5938ZM669.5 146.855L669.5 147.5563M669.5 152.0613L669.5 151.5938" fill="#47b262" stroke="#47b262" class="zr5-cls-2"></path>
<path d="M671.5 143.9225L672.5 143.9225L672.5 146.3875L671.5 146.3875ZM671.5 142.945L671.5 143.9225M671.5 146.6638L671.5 146.3875" fill="#47b262" stroke="#47b262" class="zr5-cls-2"></path>
<path d="M674.5 140.7775L675.5 140.7775L675.5 143.2L674.5 143.2ZM674.5 139.6087L674.5 140.7775M674.5 143.54L674.5 143.2" fill="#47b262" stroke="#47b262" class="zr5-cls-2"></path>
<path d="M677.5 138.61L677.5 140.9688ZM677.5 137.3775L677.5 138.61M677.5 141.4575L677.5 140.9688" fill="#47b262" stroke="#47b262" class="zr5-cls-2"></path>
<path d="M679.5 137.9088L680.5 137.9088L680.5 140.3738L679.5 140.3738ZM679.5 136.5275L679.5 137.9088M679.5 140.5863L679.5 140.3738" fill="#eb5454" stroke="#eb5454" class="zr5-cls-3"></path>
<path d="M682.5 137.4625L683.5 137.4625L683.5 141.2025L682.5 141.2025ZM682.5 136.1662L682.5 137.4625M682.5 142.2437L682.5 141.2025" fill="#47b262" stroke="#47b262" class="zr5-cls-2"></path>
<path d="M685.5 137.76L686.5 137.76L686.5 138.3125L685.5 138.3125ZM685.5 137.25L685.5 137.76M685.5 139.5875L685.5 138.3125" fill="#eb5454" stroke="#eb5454" class="zr5-cls-3"></path>
<path d="M687.5 138.355L688.5 138.355L688.5 138.44L687.5 138.44ZM688.5 137.4625L688.5 138.355M688.5 139.4175L688.5 138.44" fill="#eb5454" stroke="#eb5454" class="zr5-cls-3"></path>
<path d="M690.5 137.0375L691.5 137.0375L691.5 137.0588L690.5 137.0588ZM690.5 135.465L690.5 137.0375M690.5 137.5475L690.5 137.0588" fill="#eb5454" stroke="#eb5454" class="zr5-cls-3"></path>
<path d="M693.5 134.6575L694.5 134.6575L694.5 136.655L693.5 136.655ZM693.5 134.19L693.5 134.6575M693.5 137.0162L693.5 136.655" fill="#47b262" stroke="#47b262" class="zr5-cls-2"></path>
<path d="M696.5 135.3375L697.5 135.3375L697.5 138.4612L696.5 138.4612ZM696.5 133.9775L696.5 135.3375M696.5 138.7163L696.5 138.4612" fill="#eb5454" stroke="#eb5454" class="zr5-cls-3"></path>
<path d="M698.5 141.1387L699.5 141.1387L699.5 141.2025L698.5 141.2025ZM699.5 139.6087L699.5 141.1387M699.5 143.03L699.5 141.2025" fill="#47b262" stroke="#47b262" class="zr5-cls-2"></path>
<path d="M701.5 143.3062L702.5 143.3062L702.5 145.2613L701.5 145.2613ZM701.5 137.1438L701.5 143.3062M701.5 147.3438L701.5 145.2613" fill="#47b262" stroke="#47b262" class="zr5-cls-2"></path>
<path d="M704.5 144.1138L705.5 144.1138L705.5 148.1512L704.5 148.1512ZM704.5 144.0925L704.5 144.1138M704.5 149.5325L704.5 148.1512" fill="#eb5454" stroke="#eb5454" class="zr5-cls-3"></path>
<path d="M707.5 147.96L707.5 148.0237ZM707.5 145.92L707.5 147.96M707.5 148.725L707.5 148.0237" fill="#47b262" stroke="#47b262" class="zr5-cls-2"></path>
<path d="M709.5 147.4925L710.5 147.4925L710.5 150.85L709.5 150.85ZM710.5 147.45L710.5 147.4925M710.5 154.2713L710.5 150.85" fill="#eb5454" stroke="#eb5454" class="zr5-cls-3"></path>
<path d="M712.5 143.88L713.5 143.88L713.5 150.85L712.5 150.85ZM712.5 143.3913L712.5 143.88M712.5 152.04L712.5 150.85" fill="#47b262" stroke="#47b262" class="zr5-cls-2"></path>
<path d="M715.5 144.5388L716.5 144.5388L716.5 145.2825L715.5 145.2825ZM715.5 141.8188L715.5 144.5388M715.5 146.0475L715.5 145.2825" fill="#eb5454" stroke="#eb5454" class="zr5-cls-3"></path>
<path d="M718.5 138.1638L718.5 145.0275ZM718.5 137.3563L718.5 138.1638M718.5 146.26L718.5 145.0275" fill="#47b262" stroke="#47b262" class="zr5-cls-2"></path>
<path d="M720.5 137.1225L721.5 137.1225L721.5 140.225L720.5 140.225ZM720.5 136.9312L720.5 137.1225M720.5 141.4363L720.5 140.225" fill="#eb5454" stroke="#eb5454" class="zr5-cls-3"></path>
<path d="M723.5 136.3575L724.5 136.3575L724.5 139.4175L723.5 139.4175ZM723.5 135.04L723.5 136.3575M723.5 139.5875L723.5 139.4175" fill="#47b262" stroke="#47b262" class="zr5-cls-2"></path>
<path d="M726.5 133.7863L727.5 133.7863L727.5 134.5725L726.5 134.5725ZM726.5 130.7475L726.5 133.7863M726.5 134.8488L726.5 134.5725" fill="#eb5454" stroke="#eb5454" class="zr5-cls-3"></path>
<path d="M728.5 135.635L729.5 135.635L729.5 136.315L728.5 136.315ZM729.5 134.5088L729.5 135.635M729.5 136.8463L729.5 136.315" fill="#eb5454" stroke="#eb5454" class="zr5-cls-3"></path>
<path d="M731.5 138.0787L732.5 138.0787L732.5 139.8425L731.5 139.8425ZM731.5 136.1875L731.5 138.0787M731.5 141.5L731.5 139.8425" fill="#eb5454" stroke="#eb5454" class="zr5-cls-3"></path>
<path d="M734.5 138.9713L735.5 138.9713L735.5 142.1588L734.5 142.1588ZM734.5 135.4438L734.5 138.9713M734.5 142.6688L734.5 142.1588" fill="#eb5454" stroke="#eb5454" class="zr5-cls-3"></path>
<path d="M737.5 142.3288L738.5 142.3288L738.5 142.9237L737.5 142.9237ZM737.5 141.84L737.5 142.3288M737.5 145.0275L737.5 142.9237" fill="#eb5454" stroke="#eb5454" class="zr5-cls-3"></path>
<path d="M739.5 142.18L740.5 142.18L740.5 143.0725L739.5 143.0725ZM740.5 140.6712L740.5 142.18M740.5 143.5613L740.5 143.0725" fill="#47b262" stroke="#47b262" class="zr5-cls-2"></path>
<path d="M742.5 141.4363L743.5 141.4363L743.5 144.4325L742.5 144.4325ZM742.5 138.8863L742.5 141.4363M742.5 144.6025L742.5 144.4325" fill="#eb5454" stroke="#eb5454" class="zr5-cls-3"></path>
<path d="M745.5 138.6313L746.5 138.6313L746.5 144.645L745.5 144.645ZM745.5 136.0175L745.5 138.6313M745.5 144.645" fill="#47b262" stroke="#47b262" class="zr5-cls-2"></path>
<path d="M748.5 138.8225L748.5 142.9025ZM748.5 138.1212L748.5 138.8225M748.5 143.9862L748.5 142.9025" fill="#eb5454" stroke="#eb5454" class="zr5-cls-3"></path>
<path d="M750.5 137.4413L751.5 137.4413L751.5 143.9862L750.5 143.9862ZM750.5 137.2075L750.5 137.4413M750.5 144.0075L750.5 143.9862" fill="#47b262" stroke="#47b262" class="zr5-cls-2"></path>
<path d="M753.5 135.7625L754.5 135.7625L754.5 138.3125L753.5 138.3125ZM753.5 134.5088L753.5 135.7625M753.5 138.3125" fill="#47b262" stroke="#47b262" class="zr5-cls-2"></path>
<path d="M756.5 134.8913L757.5 134.8913L757.5 135.0612L756.5 135.0612ZM756.5 134.53L756.5 134.8913M756.5 136.4L756.5 135.0612" fill="#47b262" stroke="#47b262" class="zr5-cls-2"></path>
<path d="M759.5 136.8038L759.5 139.5663ZM759.5 136.1875L759.5 136.8038M759.5 139.8638L759.5 139.5663" fill="#eb5454" stroke="#eb5454" class="zr5-cls-3"></path>
<path d="M761.5 138.95L762.5 138.95L762.5 139.3113L761.5 139.3113ZM761.5 137.25L761.5 138.95M761.5 141.0325L761.5 139.3113" fill="#47b262" stroke="#47b262" class="zr5-cls-2"></path>
<path d="M764.5 134.8913L765.5 134.8913L765.5 139.3113L764.5 139.3113ZM764.5 134.0625L764.5 134.8913M764.5 139.4388L764.5 139.3113" fill="#47b262" stroke="#47b262" class="zr5-cls-2"></path>
<path d="M767.5 134.4875L768.5 134.4875L768.5 139.375L767.5 139.375ZM767.5 133.2762L767.5 134.4875M767.5 139.9063L767.5 139.375" fill="#eb5454" stroke="#eb5454" class="zr5-cls-3"></path>
<path d="M769.5 139.12L770.5 139.12L770.5 139.5663L769.5 139.5663ZM770.5 136.1662L770.5 139.12M770.5 139.8L770.5 139.5663" fill="#47b262" stroke="#47b262" class="zr5-cls-2"></path>
<path d="M772.5 139.0988L773.5 139.0988L773.5 142.7538L772.5 142.7538ZM772.5 138.3125L772.5 139.0988M772.5 143.3275L772.5 142.7538" fill="#eb5454" stroke="#eb5454" class="zr5-cls-3"></path>
<path d="M775.5 142.945L776.5 142.945L776.5 145.155L775.5 145.155ZM775.5 142.9237L775.5 142.945M775.5 145.7075L775.5 145.155" fill="#eb5454" stroke="#eb5454" class="zr5-cls-3"></path>
<path d="M778.5 141.8188L779.5 141.8188L779.5 145.3038L778.5 145.3038ZM778.5 141.5L778.5 141.8188M778.5 145.8138L778.5 145.3038" fill="#47b262" stroke="#47b262" class="zr5-cls-2"></path>
<path d="M780.5 139.9275L781.5 139.9275L781.5 141.0325L780.5 141.0325ZM781.5 139.375L781.5 139.9275M781.5 142.0525L781.5 141.0325" fill="#47b262" stroke="#47b262" class="zr5-cls-2"></path>
<path d="M783.5 138.6313L784.5 138.6313L784.5 139.1412L783.5 139.1412ZM783.5 137.3987L783.5 138.6313M783.5 139.6725L783.5 139.1412" fill="#47b262" stroke="#47b262" class="zr5-cls-2"></path>
<path d="M786.5 137.25L787.5 137.25L787.5 138.525L786.5 138.525ZM786.5 133.935L786.5 137.25M786.5 140.0975L786.5 138.525" fill="#eb5454" stroke="#eb5454" class="zr5-cls-3"></path>
<path d="M789.5 138.015L789.5 139.205ZM789.5 136.1025L789.5 138.015M789.5 139.97L789.5 139.205" fill="#eb5454" stroke="#eb5454" class="zr5-cls-3"></path>
<path d="M791.5 138.9288L792.5 138.9288L792.5 140.2888L791.5 140.2888ZM791.5 137.6113L791.5 138.9288M791.5 140.4375L791.5 140.2888" fill="#47b262" stroke="#47b262" class="zr5-cls-2"></path>
<path d="M794.5 129.9825L795.5 129.9825L795.5 133.6588L794.5 133.6588ZM794.5 127.5175L794.5 129.9825M794.5 134.4875L794.5 133.6588" fill="#47b262" stroke="#47b262" class="zr5-cls-2"></path>
<path d="M797.5 130.4075L798.5 130.4075L798.5 132.2988L797.5 132.2988ZM797.5 130.3225L797.5 130.4075M797.5 132.4688L797.5 132.2988" fill="#eb5454" stroke="#eb5454" class="zr5-cls-3"></path>
<path d="M800.5 132.66L800.5 136.8888ZM800.5 131.6825L800.5 132.66M800.5 137.165L800.5 136.8888" fill="#eb5454" stroke="#eb5454" class="zr5-cls-3"></path>
<path d="M802.5 137.2075L803.5 137.2075L803.5 141.7975L802.5 141.7975ZM802.5 136.9525L802.5 137.2075M802.5 142.8175L802.5 141.7975" fill="#eb5454" stroke="#eb5454" class="zr5-cls-3"></path>
<path d="M805.5 140.2888L806.5 140.2888L806.5 141.84L805.5 141.84ZM805.5 140.1825L805.5 140.2888M805.5 142.6263L805.5 141.84" fill="#47b262" stroke="#47b262" class="zr5-cls-2"></path>
<path d="M808.5 139.205L809.5 139.205L809.5 140.2675L808.5 140.2675ZM808.5 139.035L808.5 139.205M808.5 140.6075L808.5 140.2675" fill="#47b262" stroke="#47b262" class="zr5-cls-2"></path>
<style ><![CDATA[
.zr5-cls-0:hover {
pointer-events:none;
}
.zr5-cls-1:hover {
cursor:pointer;
fill:rgba(248,248,248,1);
}
.zr5-cls-2:hover {
cursor:pointer;
fill:rgba(78,195,107,1);
stroke-width:2;
}
.zr5-cls-3:hover {
cursor:pointer;
fill:rgba(255,92,92,1);
stroke-width:2;
}

]]>

</style>
</svg>