<svg width="380" height="250" xmlns="http://www.w3.org/2000/svg" xmlns:xlink="http://www.w3.org/1999/xlink" version="1.1" baseProfile="full" viewBox="0 0 380 250">
<rect width="380" height="250" x="0" y="0" fill="none"></rect>
<path d="M38 180.5L342 180.5" fill="transparent" stroke="#E0E6F1" class="zr0-cls-0"></path>
<path d="M38 150.5L342 150.5" fill="transparent" stroke="#E0E6F1" class="zr0-cls-0"></path>
<path d="M38 120.5L342 120.5" fill="transparent" stroke="#E0E6F1" class="zr0-cls-0"></path>
<path d="M38 90.5L342 90.5" fill="transparent" stroke="#E0E6F1" class="zr0-cls-0"></path>
<path d="M38 60.5L342 60.5" fill="transparent" stroke="#E0E6F1" class="zr0-cls-0"></path>
<path d="M38 180.5L342 180.5" fill="transparent" stroke="#6E7079" stroke-linecap="round" class="zr0-cls-0"></path>
<path d="M38.5 180L38.5 185" fill="transparent" stroke="#6E7079" class="zr0-cls-0"></path>
<path d="M80.5 180L80.5 185" fill="transparent" stroke="#6E7079" class="zr0-cls-0"></path>
<path d="M123.5 180L123.5 185" fill="transparent" stroke="#6E7079" class="zr0-cls-0"></path>
<path d="M165.5 180L165.5 185" fill="transparent" stroke="#6E7079" class="zr0-cls-0"></path>
<path d="M208.5 180L208.5 185" fill="transparent" stroke="#6E7079" class="zr0-cls-0"></path>
<path d="M226.5 180L226.5 185" fill="transparent" stroke="#6E7079" class="zr0-cls-0"></path>
<path d="M269.5 180L269.5 185" fill="transparent" stroke="#6E7079" class="zr0-cls-0"></path>
<path d="M311.5 180L311.5 185" fill="transparent" stroke="#6E7079" class="zr0-cls-0"></path>
<text dominant-baseline="central" text-anchor="end" style="font-size:12px;font-family:sans-serif;" xml:space="preserve" transform="translate(30 180)" fill="#6E7079">0 °C</text>
<text dominant-baseline="central" text-anchor="end" style="font-size:12px;font-family:sans-serif;" xml:space="preserve" transform="translate(30 150)" fill="#6E7079">5 °C</text>
<text dominant-baseline="central" text-anchor="end" style="font-size:12px;font-family:sans-serif;" xml:space="preserve" transform="translate(30 120)" fill="#6E7079">10 °C</text>
<text dominant-baseline="central" text-anchor="end" style="font-size:12px;font-family:sans-serif;" xml:space="preserve" transform="translate(30 90)" fill="#6E7079">15 °C</text>
<text dominant-baseline="central" text-anchor="end" style="font-size:12px;font-family:sans-serif;" xml:space="preserve" transform="translate(30 60)" fill="#6E7079">20 °C</text>
<text dominant-baseline="central" text-anchor="middle" style="font: normal normal 12px sans-serif" y="6" transform="translate(80.56 188)" fill="#6E7079">8</text>
<text dominant-baseline="central" text-anchor="middle" style="font: normal normal 12px sans-serif" y="6" transform="translate(123.12 188)" fill="#6E7079">15</text>
<text dominant-baseline="central" text-anchor="middle" style="font: normal normal 12px sans-serif" y="6" transform="translate(165.68 188)" fill="#6E7079">22</text>
<text dominant-baseline="central" text-anchor="middle" style="font: normal normal 12px sans-serif" y="6" transform="translate(208.24 188)" fill="#6E7079">29</text>
<text dominant-baseline="central" text-anchor="middle" style="font: normal normal 12px sans-serif" y="6" transform="translate(269.04 188)" fill="#6E7079">8</text>
<text dominant-baseline="central" text-anchor="middle" style="font: normal normal 12px sans-serif" y="6" transform="translate(311.6 188)" fill="#6E7079">15</text>
<text dominant-baseline="central" text-anchor="middle" style="font-size:12px;font-family:sans-serif;font-weight:bold;" y="6" transform="translate(38 188)" fill="#6E7079">2024</text>
<text dominant-baseline="central" text-anchor="middle" style="font-size:12px;font-family:sans-serif;font-weight:bold;" y="6" transform="translate(226.48 188)" fill="#6E7079">Feb</text>
<g clip-path="url(#zr0-c0)">
<path d="M38 162C38 162 38 150 44.08 150C132.3898 150 141.9599 168 238.64 168C260.5199 168 261.4647 156 281.2 156C288.8247 156 286.5807 168 293.36 168C298.7407 168 299.9247 165.6811 305.52 162C309.0448 159.6811 310.4967 159.5122 311.6 156C312.3815 153.5122 311.6 152.4743 312.3815 150C318.7069 129.9743 342 111 342 111L342 180L312.3815 180L311.6 180L305.52 180L293.36 180L281.2 180L238.64 180L44.08 180L38 180Z" fill="rgb(84,112,198)" fill-opacity="0.7" class="zr0-cls-2"></path>
</g>
<g clip-path="url(#zr0-c1)">
<path d="M38 60C38 60 38 144 44.08 144C58.2917 144 141.1556 114 238.64 114C259.7156 114 264.437 114 281.2 114C291.7969 114 285.2748 90 293.36 90C297.4348 90 299.9247 92.3189 305.52 96C309.0448 98.3189 310.4967 98.4878 311.6 102C312.3815 104.4878 311.6 105.2634 312.3815 108C321.0241 138.2634 342 168 342 168L342 180L312.3815 180L311.6 180L305.52 180L293.36 180L281.2 180L238.64 180L44.08 180L38 180Z" fill="#91cc75" fill-opacity="0.7" class="zr0-cls-3"></path>
</g>
<g clip-path="url(#zr0-c0)">
<path d="M38 162C38 162 38 150 44.08 150C132.3898 150 141.9599 168 238.64 168C260.5199 168 261.4647 156 281.2 156C288.8247 156 286.5807 168 293.36 168C298.7407 168 299.9247 165.6811 305.52 162C309.0448 159.6811 310.4967 159.5122 311.6 156C312.3815 153.5122 311.6 152.4743 312.3815 150C318.7069 129.9743 342 111 342 111" fill="transparent" stroke="rgb(84,112,198)" stroke-width="2" stroke-linejoin="bevel" class="zr0-cls-4"></path>
</g>
<g clip-path="url(#zr0-c1)">
<path d="M38 60C38 60 38 144 44.08 144C58.2917 144 141.1556 114 238.64 114C259.7156 114 264.437 114 281.2 114C291.7969 114 285.2748 90 293.36 90C297.4348 90 299.9247 92.3189 305.52 96C309.0448 98.3189 310.4967 98.4878 311.6 102C312.3815 104.4878 311.6 105.2634 312.3815 108C321.0241 138.2634 342 168 342 168" fill="transparent" stroke="#91cc75" stroke-width="2" stroke-linejoin="bevel" class="zr0-cls-4"></path>
</g>
<path d="M1 0A1 1 0 1 1 1 -0.0001" transform="matrix(2,0,0,2,38,162)" fill="rgb(255,255,255)" stroke="#5470c6" class="zr0-cls-5"></path>
<path d="M1 0A1 1 0 1 1 1 -0.0001" transform="matrix(2,0,0,2,44.08,150)" fill="rgb(255,255,255)" stroke="#5470c6" class="zr0-cls-5"></path>
<path d="M1 0A1 1 0 1 1 1 -0.0001" transform="matrix(2,0,0,2,238.64,168)" fill="rgb(255,255,255)" stroke="#5470c6" class="zr0-cls-5"></path>
<path d="M1 0A1 1 0 1 1 1 -0.0001" transform="matrix(2,0,0,2,281.2,156)" fill="rgb(255,255,255)" stroke="#5470c6" class="zr0-cls-5"></path>
<path d="M1 0A1 1 0 1 1 1 -0.0001" transform="matrix(2,0,0,2,293.36,168)" fill="rgb(255,255,255)" stroke="#5470c6" class="zr0-cls-5"></path>
<path d="M1 0A1 1 0 1 1 1 -0.0001" transform="matrix(2,0,0,2,305.52,162)" fill="rgb(255,255,255)" stroke="#5470c6" class="zr0-cls-5"></path>
<path d="M1 0A1 1 0 1 1 1 -0.0001" transform="matrix(2,0,0,2,311.6,156)" fill="rgb(255,255,255)" stroke="#5470c6" class="zr0-cls-5"></path>
<path d="M1 0A1 1 0 1 1 1 -0.0001" transform="matrix(2,0,0,2,312.3815,150)" fill="rgb(255,255,255)" stroke="#5470c6" class="zr0-cls-5"></path>
<path d="M1 0A1 1 0 1 1 1 -0.0001" transform="matrix(2,0,0,2,342,111)" fill="rgb(255,255,255)" stroke="#5470c6" class="zr0-cls-5"></path>
<path d="M1 0A1 1 0 1 1 1 -0.0001" transform="matrix(2,0,0,2,38,60)" fill="#fff" stroke="#91cc75" class="zr0-cls-5"></path>
<path d="M1 0A1 1 0 1 1 1 -0.0001" transform="matrix(2,0,0,2,44.08,144)" fill="#fff" stroke="#91cc75" class="zr0-cls-5"></path>
<path d="M1 0A1 1 0 1 1 1 -0.0001" transform="matrix(2,0,0,2,238.64,114)" fill="#fff" stroke="#91cc75" class="zr0-cls-5"></path>
<path d="M1 0A1 1 0 1 1 1 -0.0001" transform="matrix(2,0,0,2,281.2,114)" fill="#fff" stroke="#91cc75" class="zr0-cls-5"></path>
<path d="M1 0A1 1 0 1 1 1 -0.0001" transform="matrix(2,0,0,2,293.36,90)" fill="#fff" stroke="#91cc75" class="zr0-cls-5"></path>
<path d="M1 0A1 1 0 1 1 1 -0.0001" transform="matrix(2,0,0,2,305.52,96)" fill="#fff" stroke="#91cc75" class="zr0-cls-5"></path>
<path d="M1 0A1 1 0 1 1 1 -0.0001" transform="matrix(2,0,0,2,311.6,102)" fill="#fff" stroke="#91cc75" class="zr0-cls-5"></path>
<path d="M1 0A1 1 0 1 1 1 -0.0001" transform="matrix(2,0,0,2,312.3815,108)" fill="#fff" stroke="#91cc75" class="zr0-cls-5"></path>
<path d="M1 0A1 1 0 1 1 1 -0.0001" transform="matrix(2,0,0,2,342,168)" fill="#fff" stroke="#91cc75" class="zr0-cls-5"></path>
<path d="M-5 -5l107.3333 0l0 23.2l-107.3333 0Z" transform="translate(141.3333 5)" fill="rgb(0,0,0)" fill-opacity="0" stroke="#ccc" stroke-width="0" class="zr0-cls-0"></path>
<path d="M0 7L25 7" transform="translate(142.3333 4.6)" fill="#000" stroke="#5470c6" stroke-width="2" stroke-linecap="butt" stroke-miterlimit="10" class="zr0-cls-0"></path>
<path d="M18.1 7A5.6 5.6 0 1 1 18.1 6.9994" transform="translate(142.3333 4.6)" fill="#fff" stroke="#5470c6" stroke-width="2" stroke-linecap="butt" stroke-miterlimit="10" class="zr0-cls-0"></path>
<text dominant-baseline="central" text-anchor="start" style="font-size:12px;font-family:sans-serif;" x="30" y="7" transform="translate(142.3333 4.6)" fill="#333">v1</text>
<path d="M-1 0.4l43.6667 0l0 13.2l-43.6667 0Z" transform="translate(142.3333 4.6)" fill="transparent" class="zr0-cls-6"></path>
<path d="M0 7L25 7" transform="translate(196 4.6)" fill="#000" stroke="#91cc75" stroke-width="2" stroke-linecap="butt" stroke-miterlimit="10" class="zr0-cls-0"></path>
<path d="M18.1 7A5.6 5.6 0 1 1 18.1 6.9994" transform="translate(196 4.6)" fill="#fff" stroke="#91cc75" stroke-width="2" stroke-linecap="butt" stroke-miterlimit="10" class="zr0-cls-0"></path>
<text dominant-baseline="central" text-anchor="start" style="font-size:12px;font-family:sans-serif;" x="30" y="7" transform="translate(196 4.6)" fill="#333">v2</text>
<path d="M-1 0.4l43.6667 0l0 13.2l-43.6667 0Z" transform="translate(196 4.6)" fill="transparent" class="zr0-cls-6"></path>
<path d="M-5 -5l49.2 0l0 28l-49.2 0Z" transform="translate(5 5)" fill="rgb(0,0,0)" fill-opacity="0" stroke="#ccc" stroke-width="0" class="zr0-cls-0"></path>
<text dominant-baseline="central" text-anchor="start" style="font-size:18px;font-family:sans-serif;font-weight:bold;" xml:space="preserve" y="9" transform="translate(5 5)" fill="#464646">T, °C</text>
<defs >
<clipPath id="zr0-c0">
<path d="M37 59l306 0l0 122l-306 0Z" fill="#000" class="zr0-cls-1"></path>
</clipPath>
<clipPath id="zr0-c1">
<path d="M37 59l306 0l0 122l-306 0Z" fill="#000" class="zr0-cls-1"></path>
</clipPath>
</defs>
<style ><![CDATA[
.zr0-cls-0:hover {
pointer-events:none;
}
.zr0-cls-1:hover {
cursor:pointer;
fill:rgba(0,0,0,1);
}
.zr0-cls-2:hover {
cursor:pointer;
fill:rgba(92,123,217,1);
}
.zr0-cls-3:hover {
cursor:pointer;
fill:rgba(159,224,128,1);
}
.zr0-cls-4:hover {
cursor:pointer;
}
.zr0-cls-5:hover {
cursor:pointer;
fill:rgba(255,255,255,1);
}
.zr0-cls-6:hover {
cursor:pointer;
fill:rgba(0,0,0,0);
}

]]>

</style>
</svg>