<svg id="Layer_1" data-name="Layer 1" xmlns="http://www.w3.org/2000/svg" width="68" height="48" viewBox="0 0 68 48">
  <defs>
    <style>
      .cls-1 {
        fill: #212121;
      }

      .cls-2 {
        fill: #fff;
      }
    </style>
  </defs>
  <path class="cls-1" d="M66.52,7.74c-.78-2.93-2.49-5.41-5.42-6.19C55.79.13,34,0,34,0S12.21.13,6.9,1.55c-2.93.78-4.63,3.26-5.42,6.19C.06,13.05,0,24,0,24S.06,34.95,1.48,40.26c.78,2.93,2.49,5.41,5.42,6.19C12.21,47.87,34,48,34,48s21.79-.13,27.1-1.55c2.93-.78,4.64-3.26,5.42-6.19C67.94,34.95,68,24,68,24S67.94,13.05,66.52,7.74Z"/>
  <path class="cls-2" d="M45,24,27,14V34"/>
</svg>
