<svg width="30" height="30" viewBox="0 0 30 30" fill="none" xmlns="http://www.w3.org/2000/svg">
<path d="M30 21.0685H26.7043V0H30V21.0685Z" fill="black"/>
<path d="M0.419645 29.5809C0.979174 30.1397 1.81824 30.1397 2.37777 29.5809L27.1327 4.85557V23.2247C27.1327 23.9932 27.7623 24.6216 28.5313 24.6216C29.3007 24.6216 29.9299 23.9932 29.9299 23.2247V1.51151C29.9303 1.46286 29.9281 1.41465 29.9231 1.36645C29.858 0.704826 29.3262 0.175524 28.6633 0.11277C28.6196 0.108223 28.5755 0.105951 28.5313 0.105951H6.78343C6.01402 0.105951 5.38483 0.734383 5.38483 1.50287C5.38483 2.2709 6.01402 2.89979 6.78343 2.89979H25.1104L0.419645 27.6251C-0.139883 28.1839 -0.139883 29.022 0.419645 29.5809Z" fill="#00D1B1"/>
</svg>
